<?xml version="1.0" encoding="utf-8"?>
<!-- Generator: Adobe Illustrator 27.5.0, SVG Export Plug-In . SVG Version: 6.00 Build 0)  -->
<svg version="1.1" xmlns="http://www.w3.org/2000/svg" xmlns:xlink="http://www.w3.org/1999/xlink" x="0px" y="0px"
	 viewBox="0 0 500 500" style="enable-background:new 0 0 500 500;" xml:space="preserve">
<g id="Background_Complete">
	<g>
		<g>
			<path style="fill:#E0E0E0;" d="M428.786,431.703c0,0-4.101-28.191-3.759-44.594c0.342-16.402-0.02-34.855-0.02-34.855h1.889
				c0,0-1.279,32.557,0.113,52.193c1.391,19.621,5.058,27.256,5.058,27.256H428.786"/>
			<path style="fill:#EBEBEB;" d="M441,320.535c-0.38-0.963-0.847-1.966-1.721-2.521c-1.199-0.76-2.77-0.444-4.108,0.029
				c-5.709,2.019-10.77,12.664-13.078,18.263l7.58,25.539C443.353,349.153,445.722,332.503,441,320.535z"/>
			<g>
				<path style="fill:#E0E0E0;" d="M438.836,319.047c0.01,0.005-0.028,0.119-0.11,0.333c-0.098,0.245-0.22,0.552-0.371,0.93
					c-0.332,0.804-0.798,1.972-1.356,3.423c-1.117,2.9-2.538,6.955-3.81,11.523c-1.266,4.571-2.138,8.779-2.676,11.839
					c-0.27,1.53-0.473,2.772-0.603,3.632c-0.066,0.401-0.119,0.729-0.162,0.988c-0.04,0.226-0.067,0.344-0.077,0.342
					c-0.011-0.001-0.005-0.122,0.015-0.35c0.027-0.262,0.061-0.592,0.103-0.997c0.093-0.866,0.263-2.114,0.505-3.652
					c0.483-3.076,1.323-7.303,2.593-11.886c1.274-4.58,2.733-8.635,3.905-11.52c0.585-1.443,1.082-2.601,1.449-3.39
					c0.173-0.369,0.314-0.669,0.425-0.908C438.769,319.149,438.826,319.043,438.836,319.047z"/>
			</g>
			<path style="fill:#E0E0E0;" d="M426.304,367.969c-7.105-3.926-11.292-11.311-11.682-19.418
				c-0.273-5.668,1.468-11.229,3.441-16.549c0.171-0.462,0.374-0.959,0.803-1.201c0.596-0.338,1.342-0.037,1.937,0.302
				c5.162,2.94,8.29,8.544,9.955,14.247c1.108,3.795,1.681,7.796,1.169,11.716C431.413,360.985,429.172,365.25,426.304,367.969"/>
			<g>
				<path style="fill:#EBEBEB;" d="M426.304,367.969c-0.011,0-0.02-0.118-0.028-0.342c-0.005-0.259-0.011-0.583-0.019-0.98
					c-0.002-0.851-0.037-2.082-0.107-3.6c-0.137-3.038-0.535-7.224-1.319-11.798c-0.788-4.574-1.745-8.671-2.449-11.631
					c-0.348-1.449-0.632-2.636-0.841-3.506c-0.089-0.387-0.161-0.704-0.219-0.956c-0.046-0.22-0.066-0.336-0.056-0.339
					c0.01-0.003,0.05,0.108,0.117,0.323c0.073,0.248,0.164,0.56,0.276,0.941c0.234,0.819,0.556,2.009,0.938,3.483
					c0.76,2.949,1.752,7.045,2.543,11.632c0.786,4.587,1.151,8.794,1.232,11.842c0.042,1.524,0.042,2.758,0.007,3.61
					c-0.016,0.398-0.029,0.722-0.04,0.981C426.326,367.852,426.314,367.969,426.304,367.969z"/>
			</g>
			<path style="fill:#EBEBEB;" d="M434.319,411.104c6.993,1.536,12.75,6.468,19.495,8.866c4.463,1.587,9.51,2.148,13.074,5.269
				c-0.855-2.159-2.882-3.597-4.852-4.827c-5.547-3.465-11.488-6.301-17.67-8.436c-3.174-1.096-6.617-2.012-9.851-1.109"/>
			<path style="fill:#EBEBEB;" d="M424.21,417.333c-8.757-0.141-17.977-7.596-26.693-8.041
				C406.638,406.347,419.698,408.752,424.21,417.333"/>
			<path style="fill:#EBEBEB;" d="M427.631,396.327c4.447-1.603,9.329-1.679,14-0.953c4.671,0.726,9.181,2.224,13.667,3.715
				c-0.449-3.038-2.91-5.323-5.221-7.345c-1.739-1.522-3.492-3.053-5.488-4.218c-1.996-1.165-4.273-1.954-6.582-1.857
				c-2.785,0.118-5.437,1.555-7.264,3.661C428.916,391.436,427.933,393.555,427.631,396.327"/>
			<path style="fill:#EBEBEB;" d="M409.659,386.658c-5.512-4.706-13.862-4.246-21.108-4.083c11.139,5.326,23.142,12.627,32.736,20.4
				C421.581,397.852,416.622,392.603,409.659,386.658z"/>
			<path style="fill:#EBEBEB;" d="M430.11,380.162c2.772-1.848,5.576-3.609,8.477-4.927c2.901-1.318,5.608-3.418,8.411-4.936
				c3.634-1.968,6.781-4.702,10.117-7.142c3.335-2.439,6.999-4.641,11.08-5.287c-3.328-0.687-6.805-0.312-10.083,0.583
				c-3.278,0.895-6.392,2.297-9.491,3.692c-4.3,1.937-8.675,3.922-12.19,7.067C432.916,372.357,429.739,375.46,430.11,380.162"/>
			<g>
				<path style="fill:#E0E0E0;" d="M453.654,417.333c-0.005,0.009-0.101-0.032-0.277-0.12c-0.207-0.107-0.459-0.238-0.764-0.396
					c-0.659-0.351-1.606-0.871-2.798-1.47c-0.59-0.311-1.244-0.637-1.954-0.97c-0.702-0.349-1.466-0.693-2.274-1.043
					c-1.617-0.691-3.423-1.411-5.392-1.879c-1.963-0.482-3.92-0.588-5.617-0.141c-0.856,0.207-1.663,0.411-2.38,0.711
					c-0.72,0.292-1.362,0.633-1.921,0.986c-1.122,0.706-1.906,1.455-2.414,1.994c-0.507,0.543-0.754,0.876-0.777,0.859
					c-0.009-0.006,0.045-0.095,0.157-0.258c0.109-0.164,0.287-0.396,0.529-0.683c0.486-0.57,1.257-1.355,2.385-2.099
					c0.562-0.372,1.211-0.732,1.943-1.04c0.73-0.317,1.555-0.536,2.412-0.751c1.735-0.474,3.768-0.373,5.756,0.117
					c2,0.476,3.815,1.21,5.435,1.92c0.81,0.359,1.572,0.713,2.272,1.074c0.708,0.344,1.358,0.682,1.942,1.007
					c1.182,0.626,2.114,1.176,2.756,1.56c0.294,0.179,0.537,0.326,0.736,0.447C453.575,417.264,453.66,417.324,453.654,417.333z"/>
			</g>
			<g>
				<path style="fill:#E0E0E0;" d="M417.678,412.994c0.008-0.02,0.202,0.038,0.549,0.161c0.348,0.118,0.838,0.327,1.427,0.62
					c1.178,0.582,2.728,1.573,4.184,2.967c1.452,1.399,2.504,2.908,3.133,4.062c0.316,0.577,0.545,1.058,0.677,1.401
					c0.137,0.341,0.202,0.533,0.182,0.542c-0.05,0.022-0.377-0.719-1.05-1.831c-0.67-1.112-1.731-2.573-3.158-3.948
					c-1.431-1.37-2.932-2.372-4.07-2.997C418.412,413.342,417.658,413.045,417.678,412.994z"/>
			</g>
			<g>
				<path style="fill:#E0E0E0;" d="M398.303,386.218c0.004-0.01,0.132,0.028,0.373,0.11c0.271,0.096,0.619,0.22,1.051,0.374
					c0.467,0.172,1.021,0.377,1.657,0.611c0.646,0.24,1.347,0.594,2.141,0.944c3.153,1.431,7.348,3.84,11.4,7.264
					c1.998,1.739,3.805,3.507,5.316,5.235c1.505,1.731,2.78,3.36,3.773,4.781c1,1.416,1.758,2.596,2.277,3.412
					c0.246,0.385,0.445,0.697,0.599,0.939c0.136,0.216,0.203,0.332,0.194,0.338c-0.009,0.006-0.093-0.098-0.246-0.302
					c-0.153-0.204-0.375-0.508-0.649-0.908c-0.551-0.796-1.336-1.955-2.356-3.35c-1.013-1.4-2.3-3.007-3.809-4.719
					c-1.515-1.708-3.317-3.46-5.303-5.188c-4.027-3.402-8.176-5.825-11.292-7.302c-0.784-0.361-1.477-0.728-2.114-0.983
					c-0.627-0.253-1.173-0.473-1.633-0.659c-0.422-0.176-0.763-0.318-1.029-0.428C398.421,386.287,398.3,386.229,398.303,386.218z"
					/>
			</g>
			<g>
				<path style="fill:#E0E0E0;" d="M440.77,391.404c-0.006,0.021-0.255-0.012-0.698-0.09c-0.241-0.044-0.508-0.094-0.805-0.148
					c-0.313-0.061-0.678-0.062-1.076-0.103c-1.575-0.114-3.869,0.016-6.018,1.187c-1.085,0.549-1.994,1.289-2.738,2.032
					c-0.755,0.737-1.329,1.505-1.76,2.177c-0.879,1.345-1.15,2.316-1.204,2.298c-0.017-0.004,0.032-0.251,0.178-0.683
					c0.161-0.424,0.409-1.039,0.838-1.731c0.415-0.698,0.982-1.496,1.743-2.262c0.75-0.771,1.68-1.54,2.797-2.106
					c2.217-1.208,4.59-1.305,6.183-1.131c0.403,0.056,0.772,0.073,1.086,0.151c0.296,0.075,0.562,0.142,0.802,0.202
					C440.538,391.311,440.776,391.384,440.77,391.404z"/>
			</g>
			<g>
				<path style="fill:#E0E0E0;" d="M449.571,364.102c0.005,0.01-0.109,0.08-0.331,0.204c-0.252,0.137-0.576,0.313-0.977,0.531
					c-0.85,0.458-2.072,1.133-3.557,2.008c-1.478,0.887-3.22,1.976-5.073,3.301c-1.847,1.327-3.832,2.871-5.664,4.745
					c-0.904,0.943-1.736,1.928-2.317,2.999c-0.574,1.102-1.122,2.166-1.626,3.188c-1.013,2.043-1.837,3.923-2.433,5.539
					c-0.594,1.616-0.964,2.962-1.184,3.9c-0.224,0.937-0.305,1.466-0.336,1.461c-0.011-0.002,0.002-0.135,0.035-0.387
					c0.032-0.253,0.085-0.625,0.182-1.099c0.184-0.95,0.524-2.313,1.095-3.949c0.572-1.635,1.381-3.535,2.382-5.59
					c0.499-1.029,1.043-2.098,1.613-3.203c0.603-1.12,1.448-2.119,2.364-3.076c1.854-1.897,3.856-3.441,5.722-4.763
					c1.871-1.318,3.631-2.392,5.128-3.257c1.504-0.853,2.745-1.5,3.613-1.926c0.412-0.197,0.745-0.355,1.005-0.479
					C449.443,364.143,449.567,364.092,449.571,364.102z"/>
			</g>
			<g>
				<path style="fill:#E0E0E0;" d="M425.017,390.616c-0.021,0.003-0.082-0.26-0.174-0.738c-0.102-0.54-0.23-1.218-0.383-2.023
					c-0.334-1.704-0.844-4.052-1.656-6.571c-0.805-2.522-1.785-4.717-2.501-6.3c-0.34-0.746-0.626-1.374-0.854-1.875
					c-0.199-0.444-0.3-0.694-0.281-0.704c0.019-0.01,0.157,0.222,0.39,0.65c0.233,0.428,0.559,1.052,0.944,1.834
					c0.768,1.562,1.787,3.756,2.599,6.299c0.818,2.538,1.297,4.908,1.576,6.628c0.137,0.861,0.236,1.559,0.286,2.044
					C425.018,390.344,425.038,390.612,425.017,390.616z"/>
			</g>
			<path style="fill:#EBEBEB;" d="M424.383,370.693c-0.22-3.308-1.297-6.523-2.848-9.454c-4.25-8.036-12.238-13.993-21.153-15.774
				c6.528,9.729,13.056,19.459,19.583,29.188l2.529,5.21C424.22,377.031,424.603,374.001,424.383,370.693z"/>
		</g>
		<g>
			<g>
				<rect x="406.937" y="428.216" style="fill:#EBEBEB;" width="45.537" height="8.071"/>
			</g>
			<g>
				<polygon style="fill:#EBEBEB;" points="410.338,434.685 414.216,459.729 444.447,459.729 449.073,434.685 				"/>
			</g>
			<g>
				<g>
					<path style="fill:#E0E0E0;" d="M452.449,436.297c0,0.089-10.271,0.16-22.939,0.16c-12.672,0-22.941-0.072-22.941-0.16
						c0-0.088,10.269-0.16,22.941-0.16C442.178,436.137,452.449,436.208,452.449,436.297z"/>
				</g>
			</g>
		</g>
	</g>
	<g>
		<g>
			<path style="fill:#E0E0E0;" d="M420.518,92.867h-57.303c-0.816,0-1.477-0.661-1.477-1.477c0-0.816,0.661-1.477,1.477-1.477
				h56.066l6.318-35.701h-67.786c-0.816,0-1.477-0.66-1.477-1.477s0.661-1.477,1.477-1.477h69.548c0.435,0,0.851,0.193,1.13,0.528
				c0.283,0.334,0.401,0.776,0.323,1.207l-6.844,38.655C421.847,92.353,421.233,92.867,420.518,92.867z"/>
		</g>
		<g>
			<path style="fill:#E0E0E0;" d="M418.62,106.389c-0.003,0-0.003,0-0.006,0l-54.575-0.188c-0.741-0.003-1.364-0.554-1.459-1.289
				l-7.827-60.991h-16.231c-0.816,0-1.477-0.66-1.477-1.477c0-0.816,0.66-1.476,1.477-1.476h17.528c0.744,0,1.37,0.552,1.465,1.289
				l7.83,60.995l53.28,0.183c0.816,0.003,1.474,0.666,1.471,1.482C420.094,105.732,419.433,106.389,418.62,106.389z"/>
		</g>
		<g>
			<path style="fill:#E0E0E0;" d="M372.948,125.808c-4.559,0-8.271-3.71-8.271-8.271c0-4.56,3.712-8.27,8.271-8.27
				c4.56,0,8.271,3.71,8.271,8.27C381.219,122.098,377.507,125.808,372.948,125.808z M372.948,112.221
				c-2.933,0-5.318,2.385-5.318,5.317c0,2.933,2.385,5.318,5.318,5.318c2.933,0,5.318-2.385,5.318-5.318
				C378.266,114.606,375.881,112.221,372.948,112.221z"/>
		</g>
		<g>
			<path style="fill:#E0E0E0;" d="M410.617,125.808c-4.56,0-8.271-3.71-8.271-8.271c0-4.56,3.712-8.27,8.271-8.27
				c4.559,0,8.271,3.71,8.271,8.27C418.888,122.098,415.177,125.808,410.617,125.808z M410.617,112.221
				c-2.933,0-5.318,2.385-5.318,5.317c0,2.933,2.385,5.318,5.318,5.318c2.933,0,5.318-2.385,5.318-5.318
				C415.935,114.606,413.55,112.221,410.617,112.221z"/>
		</g>
		<g>
			<path style="fill:#E0E0E0;" d="M380.907,92.867c-0.776,0-1.425-0.603-1.474-1.384l-2.33-37.407
				c-0.052-0.815,0.568-1.515,1.381-1.566c0.88-0.029,1.514,0.571,1.566,1.381l2.33,37.407c0.052,0.815-0.568,1.516-1.382,1.566
				C380.968,92.865,380.936,92.867,380.907,92.867z"/>
		</g>
		<g>
			<path style="fill:#E0E0E0;" d="M401.859,92.867c-0.026,0-0.055-0.002-0.084-0.003c-0.813-0.045-1.436-0.741-1.39-1.556
				l2.091-37.407c0.046-0.812,0.672-1.42,1.557-1.391c0.813,0.045,1.436,0.741,1.39,1.556l-2.091,37.407
				C403.289,92.258,402.637,92.867,401.859,92.867z"/>
		</g>
		<g>
			<path style="fill:#E0E0E0;" d="M359.933,74.163c-0.81,0-1.468-0.652-1.477-1.462c-0.009-0.816,0.646-1.482,1.462-1.491
				l64.005-0.623c0.94-0.019,1.483,0.646,1.491,1.462c0.009,0.816-0.646,1.483-1.462,1.491l-64.005,0.623
				C359.941,74.163,359.938,74.163,359.933,74.163z"/>
		</g>
	</g>
	<g>
		<g>
			<path style="fill:#E0E0E0;" d="M96.459,227.837c8.582,3.954,13.495,12.854,12.327,22.232c-0.105,0.841,0.79,1.547,1.555,1.555
				c0.926,0.01,1.452-0.725,1.555-1.555c1.288-10.342-4.41-20.561-13.868-24.918C96.223,224.32,94.641,227,96.459,227.837
				L96.459,227.837z"/>
		</g>
		<g>
			<path style="fill:#E0E0E0;" d="M103.313,213.774c13.982,6.417,22.11,21.104,20.182,36.37c-0.25,1.981,2.863,1.963,3.11,0
				c2.05-16.23-6.866-32.237-21.723-39.056C103.077,210.259,101.494,212.939,103.313,213.774L103.313,213.774z"/>
		</g>
		<g>
			<path style="fill:#E0E0E0;" d="M114.051,199.968c8.529,3.897,15.805,10.261,20.627,18.324c5.33,8.913,7.368,19.464,6.052,29.738
				c-0.254,1.98,2.859,1.962,3.111,0c2.7-21.075-8.907-41.924-28.219-50.748C113.813,196.456,112.231,199.136,114.051,199.968
				L114.051,199.968z"/>
		</g>
	</g>
</g>
<g id="Background_Simple" style="display:none;">
	<path style="display:inline;fill:#F5F5F5;" d="M461.345,131.689l-0.986,1.131c-8.309,9.532-21.108,13.929-33.295,11.016
		c-1.567-0.374-3.107-0.862-4.605-1.465c-10.788-4.339-19.068-14.499-21.229-26.049c-1.271-6.793-0.662-14.255-4.294-20.101
		c-4.727-7.609-14.655-9.541-23.463-10.786c-8.808-1.244-18.738-3.204-23.432-10.834c-2.94-4.778-3.081-10.874-1.825-16.373
		c3.326-14.56,15.842-25.926,29.996-30.201c14.154-4.275,29.588-2.204,43.343,3.137c19.269,7.483,36.342,21.825,44.798,40.874
		C474.809,91.086,473.668,114.844,461.345,131.689z"/>
	
		<ellipse transform="matrix(0.9252 -0.3795 0.3795 0.9252 -78.6467 59.1335)" style="display:inline;fill:#F5F5F5;" cx="110.652" cy="229.031" rx="34.684" ry="34.684"/>
</g>
<g id="Floor">
	<g>
		<path style="fill:#263238;" d="M465.385,459.425c0,0.144-97.334,0.26-217.375,0.26c-120.082,0-217.395-0.116-217.395-0.26
			s97.313-0.26,217.395-0.26C368.051,459.165,465.385,459.281,465.385,459.425z"/>
	</g>
</g>
<g id="Device_2">
	<g>
		<g>
			<g>
				<path style="fill:#E0E0E0;" d="M128.023,315.65l-1.752,0.619c-0.693,0.245-1.454-0.118-1.699-0.811l-5.748-16.255
					c-0.245-0.693,0.118-1.454,0.812-1.699l1.751-0.619c0.693-0.245,1.454,0.118,1.699,0.811l5.748,16.255
					C129.08,314.644,128.716,315.405,128.023,315.65z"/>
			</g>
			<g>
				<g>
					<path style="fill:#455A64;" d="M128.023,315.65c-0.012-0.027,0.152-0.075,0.37-0.28c0.21-0.193,0.483-0.604,0.389-1.149
						c-0.366-1.069-1.008-2.687-1.723-4.658c-0.731-2.013-1.585-4.363-2.527-6.955c-0.471-1.315-0.963-2.69-1.473-4.114
						c-0.138-0.344-0.234-0.765-0.398-0.976c-0.18-0.239-0.471-0.396-0.775-0.412c-0.158-0.006-0.29,0.018-0.462,0.08l-0.559,0.198
						c-0.374,0.133-0.75,0.266-1.129,0.4c-0.296,0.105-0.534,0.345-0.633,0.638c-0.101,0.323-0.063,0.554,0.097,0.953
						c0.259,0.738,0.515,1.466,0.766,2.181c0.499,1.429,0.98,2.808,1.441,4.126c0.897,2.609,1.711,4.974,2.407,6.998
						c0.331,0.984,0.634,1.885,0.906,2.695c0.231,0.742,1.043,0.972,1.539,0.773C127.382,315.792,128.009,315.612,128.023,315.65
						c0.014,0.039-0.587,0.293-1.686,0.72c-0.559,0.273-1.601,0.048-1.931-0.881c-0.298-0.801-0.628-1.692-0.99-2.665
						c-0.731-2.013-1.585-4.363-2.527-6.956c-0.471-1.315-0.963-2.69-1.474-4.115c-0.254-0.715-0.513-1.441-0.775-2.178
						c-0.057-0.171-0.151-0.374-0.178-0.629c-0.028-0.24-0.001-0.486,0.078-0.716c0.154-0.46,0.533-0.844,0.998-1.007
						c0.379-0.134,0.755-0.267,1.13-0.399l0.559-0.197c0.198-0.074,0.458-0.128,0.692-0.112c0.48,0.026,0.934,0.273,1.216,0.651
						c0.288,0.422,0.328,0.782,0.476,1.134c0.499,1.428,0.98,2.807,1.44,4.126c0.897,2.608,1.71,4.973,2.407,6.998
						c0.668,2.008,1.234,3.584,1.555,4.765c0.069,0.656-0.289,1.095-0.542,1.275C128.205,315.655,128.024,315.661,128.023,315.65z"
						/>
				</g>
			</g>
		</g>
		<g>
			<g>
				<path style="fill:#E0E0E0;" d="M137.945,346.22l-0.174,0.061c-1.129,0.399-2.368-0.192-2.767-1.321l-5.19-14.677
					c-0.399-1.129,0.192-2.368,1.321-2.767l0.174-0.061c1.129-0.399,2.368,0.192,2.767,1.321l5.19,14.677
					C139.666,344.582,139.074,345.821,137.945,346.22z"/>
			</g>
			<g>
				<g>
					<path style="fill:#455A64;" d="M137.945,346.22c-0.058-0.059,0.702-0.199,1.155-1.222c0.219-0.515,0.21-1.17-0.14-1.913
						c-0.289-0.777-0.61-1.64-0.96-2.583c-0.71-1.952-1.538-4.229-2.451-6.74c-0.456-1.274-0.934-2.607-1.428-3.987
						c-0.123-0.336-0.248-0.717-0.372-1.025c-0.124-0.299-0.34-0.556-0.598-0.755c-0.539-0.393-1.246-0.487-1.913-0.201
						c-0.638,0.223-1.118,0.802-1.223,1.453c-0.053,0.324-0.023,0.652,0.089,0.964c0.124,0.352,0.246,0.702,0.368,1.048
						c0.483,1.384,0.95,2.721,1.396,3.999c0.868,2.527,1.656,4.819,2.331,6.783c0.732,1.879,0.907,3.724,2.067,4.087
						C137.296,346.555,137.946,346.128,137.945,346.22c0.005,0.016-0.128,0.1-0.425,0.193c-0.292,0.083-0.778,0.146-1.346-0.068
						c-0.563-0.189-1.185-0.764-1.416-1.578c-0.289-0.777-0.61-1.64-0.96-2.583c-0.71-1.952-1.538-4.229-2.451-6.74
						c-0.457-1.275-0.934-2.607-1.428-3.988c-0.123-0.346-0.248-0.695-0.373-1.047c-0.143-0.39-0.189-0.836-0.118-1.26
						c0.135-0.855,0.768-1.623,1.609-1.916c0.768-0.34,1.786-0.241,2.466,0.286c0.341,0.262,0.623,0.604,0.785,0.997
						c0.153,0.385,0.255,0.711,0.383,1.065c0.483,1.384,0.95,2.721,1.395,3.998c0.868,2.527,1.656,4.818,2.331,6.783
						c0.32,0.953,0.613,1.826,0.877,2.612c0.125,0.372,0.268,0.768,0.257,1.143c-0.001,0.371-0.09,0.704-0.219,0.975
						c-0.262,0.547-0.656,0.838-0.923,0.982C138.113,346.214,137.949,346.234,137.945,346.22z"/>
				</g>
			</g>
		</g>
		<g>
			<g>
				<path style="fill:#E0E0E0;" d="M41.567,301.006l-0.341-4.277c-0.167-2.089,1.092-4.029,3.068-4.728l49.585-17.534
					c1.783-0.631,3.771-0.112,5.019,1.31l3.317,3.782L41.567,301.006z"/>
			</g>
			<g>
				<g>
					<path style="fill:#455A64;" d="M41.567,301.006c0.005-0.008,0.115-0.053,0.324-0.134c0.238-0.089,0.542-0.203,0.922-0.345
						c0.841-0.307,2.018-0.737,3.517-1.284c3.079-1.111,7.474-2.697,12.911-4.658c10.916-3.897,26.005-9.283,42.875-15.306
						l-0.124,0.477c-0.958-1.092-1.982-2.26-3.015-3.437c-0.72-0.926-1.67-1.542-2.768-1.746c-0.541-0.095-1.098-0.095-1.633,0.012
						c-0.521,0.107-1.069,0.339-1.617,0.523c-2.185,0.771-4.337,1.531-6.453,2.277c-4.23,1.49-8.312,2.926-12.201,4.296
						c-7.772,2.723-14.775,5.176-20.671,7.242c-2.939,1.022-5.602,1.948-7.947,2.763c-0.577,0.207-1.167,0.388-1.676,0.596
						c-0.51,0.223-0.955,0.536-1.323,0.894c-0.74,0.72-1.15,1.618-1.298,2.451c-0.147,0.842-0.001,1.605,0.016,2.262
						c0.038,0.654,0.07,1.214,0.097,1.681c0.023,0.437,0.041,0.785,0.056,1.055C41.569,300.869,41.573,300.998,41.567,301.006
						s-0.021-0.103-0.047-0.33c-0.028-0.263-0.065-0.602-0.11-1.026c-0.048-0.474-0.106-1.041-0.173-1.703
						c-0.043-0.677-0.213-1.466-0.077-2.356c0.137-0.879,0.553-1.838,1.327-2.616c0.385-0.387,0.855-0.728,1.397-0.974
						c0.553-0.234,1.107-0.409,1.692-0.628c2.337-0.84,4.989-1.794,7.917-2.846c5.884-2.1,12.872-4.594,20.628-7.362
						c3.886-1.38,7.963-2.828,12.189-4.329c2.114-0.749,4.266-1.512,6.45-2.285c0.549-0.182,1.075-0.414,1.699-0.547
						c0.609-0.122,1.243-0.123,1.858-0.014c1.23,0.21,2.373,0.981,3.108,1.939c1.033,1.178,2.057,2.346,3.014,3.438l0.291,0.331
						l-0.415,0.146c-16.999,5.954-32.203,11.28-43.202,15.132c-5.429,1.881-9.817,3.401-12.891,4.466
						c-1.478,0.506-2.639,0.903-3.469,1.187c-0.368,0.122-0.662,0.22-0.892,0.296C41.661,300.986,41.562,301.015,41.567,301.006z"/>
				</g>
			</g>
		</g>
		<g>
			<g>
				<path style="fill:#455A64;" d="M91.236,283.443l-39.025,13.8l-14.307-40.459c-0.774-2.188,0.373-4.59,2.561-5.363l31.101-10.998
					c2.188-0.774,4.59,0.373,5.363,2.561L91.236,283.443z"/>
			</g>
			<g>
				<g>
					<path style="fill:#263238;" d="M91.236,283.443c-0.009-0.004-0.069-0.152-0.177-0.435c-0.115-0.309-0.269-0.723-0.465-1.25
						c-0.409-1.124-0.993-2.727-1.739-4.776c-1.498-4.158-3.646-10.121-6.296-17.476c-1.317-3.683-2.759-7.714-4.306-12.039
						c-0.385-1.082-0.778-2.182-1.176-3.3c-0.208-0.552-0.377-1.147-0.635-1.637c-0.267-0.501-0.646-0.945-1.106-1.292
						c-0.922-0.692-2.172-0.962-3.321-0.667c-1.155,0.37-2.387,0.837-3.601,1.26c-4.889,1.735-10.019,3.555-15.337,5.442
						c-2.66,0.942-5.367,1.901-8.114,2.874c-1.374,0.486-2.757,0.976-4.15,1.469c-1.364,0.39-2.422,1.509-2.743,2.874
						c-0.112,0.471-0.135,0.961-0.069,1.438c0.059,0.473,0.252,0.93,0.423,1.43c0.344,0.974,0.687,1.944,1.028,2.909
						c0.682,1.93,1.357,3.841,2.024,5.731c1.334,3.78,2.637,7.475,3.903,11.064c2.526,7.177,4.902,13.931,7.072,20.098l-0.324-0.155
						c11.702-4.081,21.438-7.476,28.283-9.863c3.408-1.175,6.094-2.101,7.962-2.745c0.903-0.306,1.607-0.544,2.115-0.717
						C90.969,283.517,91.236,283.443,91.236,283.443s-0.219,0.097-0.679,0.27c-0.493,0.182-1.175,0.433-2.05,0.756
						c-1.845,0.669-4.498,1.631-7.864,2.851c-6.86,2.459-16.619,5.958-28.348,10.163l-0.239,0.086l-0.086-0.241
						c-2.189-6.16-4.586-12.907-7.134-20.076c-1.271-3.587-2.58-7.28-3.92-11.058c-0.669-1.89-1.346-3.8-2.028-5.73
						c-0.342-0.965-0.685-1.934-1.029-2.908c-0.161-0.475-0.377-0.983-0.451-1.545c-0.076-0.551-0.05-1.117,0.08-1.659
						c0.351-1.566,1.63-2.877,3.125-3.298c1.393-0.492,2.777-0.981,4.151-1.467c2.748-0.97,5.456-1.926,8.117-2.866
						c5.322-1.876,10.456-3.685,15.349-5.409c1.237-0.425,2.401-0.867,3.653-1.263c1.308-0.331,2.727-0.019,3.767,0.77
						c0.52,0.395,0.948,0.9,1.248,1.468c0.301,0.585,0.452,1.158,0.663,1.72c0.396,1.129,0.786,2.24,1.17,3.333
						c1.527,4.367,2.95,8.437,4.25,12.157c2.565,7.391,4.644,13.383,6.094,17.561c0.699,2.038,1.246,3.633,1.63,4.75
						c0.173,0.517,0.309,0.924,0.411,1.228C91.204,283.308,91.245,283.447,91.236,283.443z"/>
				</g>
			</g>
		</g>
		<g>
			<g>
				<path style="fill:#E0E0E0;" d="M134.365,369.947l0.341,4.277c0.167,2.089-1.093,4.029-3.068,4.728l-49.584,17.534
					c-1.784,0.631-3.771,0.112-5.019-1.31l-3.317-3.782L134.365,369.947z"/>
			</g>
			<g>
				<g>
					<path style="fill:#455A64;" d="M134.365,369.947c-0.005,0.008-0.115,0.053-0.324,0.134c-0.238,0.089-0.542,0.203-0.921,0.345
						c-0.842,0.307-2.018,0.737-3.517,1.284c-3.078,1.111-7.474,2.697-12.91,4.658c-10.916,3.897-26.005,9.283-42.875,15.306
						l0.125-0.477c0.958,1.091,1.982,2.259,3.015,3.437c0.72,0.926,1.67,1.542,2.768,1.746c0.541,0.095,1.098,0.095,1.633-0.012
						c0.521-0.107,1.068-0.339,1.617-0.523c2.184-0.771,4.337-1.53,6.452-2.277c4.231-1.49,8.312-2.927,12.201-4.296
						c7.772-2.723,14.775-5.176,20.671-7.242c2.939-1.022,5.601-1.948,7.947-2.763c0.577-0.207,1.167-0.388,1.677-0.596
						c0.51-0.223,0.955-0.536,1.323-0.894c0.74-0.72,1.15-1.618,1.298-2.451c0.147-0.842,0.001-1.605-0.016-2.262
						c-0.037-0.654-0.07-1.214-0.096-1.681c-0.023-0.437-0.041-0.784-0.056-1.055C134.363,370.084,134.359,369.956,134.365,369.947
						c0.006-0.009,0.021,0.103,0.046,0.33c0.028,0.263,0.065,0.602,0.11,1.026c0.048,0.474,0.106,1.041,0.173,1.703
						c0.043,0.677,0.213,1.466,0.077,2.357c-0.137,0.879-0.553,1.838-1.327,2.616c-0.385,0.387-0.855,0.728-1.397,0.974
						c-0.553,0.234-1.107,0.409-1.692,0.628c-2.337,0.84-4.989,1.794-7.917,2.846c-5.884,2.1-12.872,4.594-20.628,7.362
						c-3.886,1.38-7.963,2.828-12.189,4.329c-2.114,0.749-4.266,1.512-6.45,2.285c-0.549,0.182-1.075,0.414-1.699,0.547
						c-0.609,0.122-1.243,0.123-1.858,0.014c-1.23-0.21-2.373-0.981-3.108-1.939c-1.033-1.177-2.057-2.346-3.014-3.437l-0.291-0.332
						l0.415-0.145c16.999-5.954,32.203-11.28,43.202-15.132c5.429-1.881,9.817-3.401,12.891-4.466
						c1.478-0.506,2.639-0.903,3.469-1.187c0.368-0.122,0.661-0.22,0.892-0.296C134.271,369.967,134.37,369.939,134.365,369.947z"/>
				</g>
			</g>
		</g>
		<g>
			<g>
				<path style="fill:#455A64;" d="M86.066,386.899l39.025-13.8l14.538,41.112c0.774,2.188-0.373,4.59-2.561,5.363l-31.101,10.998
					c-2.188,0.774-4.59-0.373-5.363-2.561L86.066,386.899z"/>
			</g>
			<g>
				<g>
					<path style="fill:#263238;" d="M86.066,386.899c0.009,0.004,0.069,0.153,0.178,0.439c0.116,0.311,0.271,0.729,0.469,1.26
						c0.412,1.132,1,2.748,1.753,4.815c1.509,4.191,3.675,10.202,6.345,17.617c1.328,3.713,2.781,7.776,4.341,12.136
						c0.389,1.091,0.784,2.2,1.185,3.326c0.204,0.554,0.395,1.152,0.614,1.683c0.228,0.524,0.567,1.007,1.007,1.387
						c0.872,0.763,2.109,1.144,3.285,0.918c0.571-0.104,1.176-0.368,1.786-0.573c0.608-0.216,1.22-0.434,1.836-0.652
						c4.928-1.748,10.099-3.583,15.46-5.485c2.681-0.95,5.41-1.916,8.179-2.897c1.385-0.49,2.779-0.984,4.184-1.48
						c1.38-0.389,2.453-1.507,2.777-2.885c0.114-0.478,0.136-0.977,0.065-1.461c-0.059-0.478-0.264-0.946-0.435-1.454
						c-0.35-0.99-0.698-1.975-1.044-2.955c-0.693-1.961-1.378-3.902-2.056-5.822c-1.355-3.84-2.678-7.592-3.964-11.236
						c-2.564-7.288-4.976-14.141-7.177-20.395l0.323,0.154c-11.707,4.083-21.444,7.478-28.287,9.865
						c-3.407,1.175-6.092,2.101-7.96,2.745c-0.902,0.306-1.606,0.544-2.114,0.717C86.333,386.824,86.066,386.899,86.066,386.899
						s0.219-0.097,0.678-0.27c0.493-0.182,1.174-0.433,2.049-0.755c1.844-0.669,4.497-1.63,7.862-2.85
						c6.859-2.459,16.617-5.957,28.352-10.164l0.238-0.085l0.085,0.24c2.22,6.247,4.653,13.093,7.239,20.373
						c1.291,3.642,2.62,7.392,3.98,11.23c0.68,1.919,1.367,3.86,2.061,5.821c0.347,0.98,0.695,1.965,1.046,2.955
						c0.162,0.484,0.387,0.992,0.463,1.565c0.082,0.559,0.057,1.134-0.074,1.686c-0.352,1.581-1.656,2.893-3.159,3.31
						c-1.404,0.496-2.799,0.989-4.184,1.478c-2.77,0.978-5.5,1.941-8.182,2.888c-5.365,1.891-10.54,3.714-15.471,5.452
						c-0.616,0.217-1.229,0.433-1.838,0.647c-0.613,0.201-1.19,0.462-1.874,0.59c-1.34,0.251-2.742-0.185-3.726-1.054
						c-0.496-0.433-0.88-0.982-1.135-1.576c-0.242-0.598-0.416-1.157-0.624-1.73c-0.399-1.138-0.792-2.258-1.179-3.36
						c-1.539-4.402-2.973-8.504-4.284-12.253c-2.586-7.45-4.682-13.49-6.143-17.7c-0.705-2.055-1.257-3.662-1.643-4.788
						c-0.175-0.522-0.312-0.931-0.414-1.237C86.099,387.034,86.057,386.894,86.066,386.899z"/>
				</g>
			</g>
		</g>
		<g>
			<g>
				<path style="fill:#E0E0E0;" d="M133.727,371.622l-58.838,20.806c-5.984,2.116-12.551-1.02-14.667-7.004l-24.776-70.064
					c-2.116-5.984,1.02-12.551,7.004-14.667l58.838-20.806c5.984-2.116,12.55,1.02,14.667,7.004l24.776,70.064
					C142.846,362.94,139.71,369.506,133.727,371.622z"/>
			</g>
			<g>
				<g>
					<path style="fill:#455A64;" d="M133.727,371.622c-0.033-0.061,1.19-0.347,3.047-1.702c0.902-0.702,1.931-1.707,2.811-3.13
						c0.88-1.415,1.552-3.285,1.671-5.448c0.05-1.082-0.075-2.227-0.364-3.391c-0.315-1.152-0.803-2.345-1.233-3.599
						c-0.895-2.507-1.866-5.229-2.909-8.153c-2.084-5.854-4.456-12.517-7.077-19.881c-2.618-7.369-5.484-15.439-8.561-24.101
						c-1.537-4.333-3.127-8.813-4.764-13.428c-0.42-1.156-0.772-2.337-1.359-3.391c-0.579-1.061-1.309-2.064-2.226-2.887
						c-1.809-1.654-4.187-2.778-6.711-2.959c-1.257-0.1-2.536,0.012-3.771,0.331c-1.219,0.331-2.469,0.847-3.714,1.266
						c-2.495,0.884-5.018,1.778-7.568,2.681c-5.101,1.806-10.309,3.651-15.61,5.528c-10.605,3.752-21.585,7.637-32.83,11.616
						c-2.75,0.963-5.057,3.03-6.314,5.615c-1.281,2.574-1.499,5.623-0.623,8.316c1.929,5.478,3.829,10.875,5.696,16.178
						c3.745,10.61,7.358,20.844,10.8,30.593c1.719,4.875,3.396,9.629,5.025,14.248c0.814,2.31,1.616,4.585,2.406,6.826
						c0.409,1.107,0.756,2.261,1.206,3.304c0.46,1.042,1.039,2.035,1.791,2.874c1.461,1.713,3.426,2.919,5.514,3.506
						c2.093,0.577,4.309,0.543,6.304-0.088c4.023-1.365,7.888-2.762,11.575-4.047c14.745-5.172,26.68-9.357,34.948-12.258
						c4.118-1.431,7.32-2.543,9.512-3.304c1.078-0.367,1.903-0.649,2.479-0.845C133.435,371.703,133.727,371.622,133.727,371.622
						s-0.278,0.12-0.831,0.326c-0.571,0.209-1.39,0.509-2.459,0.901c-2.183,0.786-5.372,1.933-9.474,3.41
						c-8.253,2.942-20.166,7.189-34.885,12.437c-3.691,1.301-7.526,2.701-11.581,4.09c-2.074,0.662-4.384,0.706-6.568,0.108
						c-2.179-0.606-4.231-1.858-5.761-3.644c-0.787-0.874-1.395-1.909-1.878-2.997c-0.477-1.105-0.809-2.213-1.225-3.333
						c-0.794-2.239-1.601-4.513-2.42-6.821c-1.637-4.616-3.321-9.367-5.049-14.239c-3.452-9.746-7.076-19.976-10.833-30.582
						c-1.872-5.309-3.777-10.711-5.711-16.194c-0.923-2.835-0.694-6.05,0.654-8.759c1.322-2.721,3.756-4.902,6.65-5.914
						c11.247-3.975,22.228-7.856,32.834-11.604c5.303-1.873,10.513-3.712,15.615-5.514c2.551-0.901,5.076-1.792,7.571-2.672
						c1.264-0.423,2.452-0.918,3.759-1.274c1.297-0.333,2.64-0.449,3.958-0.342c2.648,0.196,5.139,1.376,7.032,3.113
						c0.959,0.865,1.723,1.916,2.328,3.029c0.619,1.124,0.972,2.326,1.386,3.468c1.628,4.618,3.208,9.102,4.736,13.438
						c3.052,8.671,5.896,16.749,8.492,24.125c2.59,7.375,4.934,14.047,6.994,19.91c1.027,2.93,1.983,5.658,2.863,8.17
						c0.424,1.264,0.896,2.436,1.215,3.629c0.287,1.192,0.405,2.363,0.345,3.467c-0.14,2.207-0.843,4.103-1.752,5.53
						c-0.909,1.436-1.967,2.44-2.89,3.133c-0.946,0.667-1.734,1.072-2.282,1.294C134.013,371.526,133.727,371.622,133.727,371.622z"
						/>
				</g>
			</g>
		</g>
		<g>
			<g>
				<path style="fill:#263238;" d="M131.638,367.708l-57.586,20.363c-4.484,1.586-9.404-0.764-10.99-5.248l-24.371-68.919
					c-1.586-4.484,0.764-9.404,5.248-10.99l57.586-20.363c4.484-1.586,9.404,0.764,10.99,5.248l24.371,68.919
					C138.471,361.202,136.122,366.122,131.638,367.708z"/>
			</g>
			<g>
				<g>
					<path style="fill:#455A64;" d="M131.638,367.708c-0.042-0.067,1.144-0.285,2.767-1.695c0.794-0.705,1.662-1.746,2.239-3.196
						c0.6-1.427,0.843-3.292,0.372-5.254c-2.666-7.685-6.695-18.801-11.565-32.547c-2.443-6.875-5.118-14.403-7.989-22.484
						c-1.434-4.042-2.918-8.222-4.446-12.527c-0.397-1.066-0.722-2.195-1.225-3.183c-0.516-0.996-1.243-1.891-2.126-2.608
						c-1.758-1.44-4.159-2.15-6.473-1.791c-1.149,0.158-2.261,0.654-3.423,1.044c-1.15,0.408-2.307,0.818-3.471,1.23
						c-2.327,0.825-4.682,1.659-7.061,2.502c-4.759,1.685-9.617,3.406-14.563,5.158c-9.894,3.501-20.137,7.125-30.628,10.837
						c-2.549,0.891-4.558,3.068-5.249,5.641c-0.361,1.278-0.379,2.637-0.112,3.925c0.292,1.263,0.851,2.56,1.272,3.834
						c1.806,5.111,3.585,10.147,5.333,15.096c3.494,9.898,6.864,19.446,10.074,28.542c1.604,4.548,3.168,8.983,4.687,13.293
						c0.759,2.155,1.508,4.278,2.244,6.368c0.373,1.039,0.723,2.094,1.106,3.098c0.38,0.988,0.946,1.893,1.654,2.657
						c1.411,1.539,3.392,2.47,5.394,2.64c1.002,0.089,2.008-0.008,2.96-0.269c0.945-0.269,1.903-0.652,2.839-0.967
						c3.755-1.321,7.36-2.589,10.801-3.799c13.756-4.822,24.889-8.725,32.606-11.429c3.841-1.333,6.828-2.369,8.875-3.079
						c1.004-0.341,1.774-0.603,2.313-0.786C131.365,367.783,131.638,367.708,131.638,367.708s-0.259,0.113-0.775,0.306
						c-0.534,0.196-1.298,0.477-2.293,0.842c-2.039,0.735-5.012,1.806-8.838,3.184c-7.701,2.747-18.814,6.711-32.543,11.608
						c-3.437,1.222-7.037,2.502-10.788,3.835c-0.949,0.323-1.86,0.694-2.867,0.986c-1.004,0.278-2.068,0.384-3.127,0.293
						c-2.117-0.174-4.214-1.153-5.714-2.779c-0.752-0.807-1.355-1.767-1.76-2.812c-0.396-1.033-0.741-2.065-1.119-3.11
						c-0.741-2.089-1.494-4.21-2.258-6.363c-1.527-4.307-3.099-8.739-4.711-13.284c-3.221-9.092-6.602-18.636-10.107-28.53
						c-1.751-4.948-3.533-9.983-5.342-15.093c-0.427-1.298-0.965-2.51-1.294-3.907c-0.288-1.38-0.267-2.838,0.119-4.208
						c0.389-1.365,1.081-2.657,2.061-3.703c0.978-1.044,2.209-1.857,3.564-2.343c10.493-3.708,20.737-7.329,30.632-10.826
						c4.948-1.747,9.808-3.463,14.568-5.144c2.38-0.84,4.735-1.671,7.064-2.493c1.164-0.411,2.322-0.819,3.473-1.225
						c1.146-0.381,2.276-0.889,3.528-1.065c2.469-0.378,5.024,0.382,6.893,1.918c0.938,0.765,1.71,1.72,2.258,2.78
						c0.544,1.081,0.85,2.181,1.248,3.253c1.518,4.309,2.992,8.492,4.418,12.537c2.847,8.089,5.499,15.626,7.921,22.508
						c4.821,13.773,8.781,24.88,11.392,32.632c0.467,2.02,0.196,3.927-0.433,5.377c-0.607,1.472-1.506,2.518-2.324,3.219
						c-0.814,0.719-1.572,1.073-2.064,1.316C131.906,367.62,131.638,367.708,131.638,367.708z"/>
				</g>
			</g>
		</g>
		<g>
			<g>
				<path style="fill:#FF725E;" d="M108.286,333.304c-0.009,0-0.029-0.115-0.059-0.341c-0.03-0.253-0.07-0.584-0.12-1.002
					c-0.039-0.442-0.106-0.985-0.26-1.615c-0.132-0.633-0.263-1.369-0.545-2.162c-0.45-1.616-1.304-3.51-2.603-5.499
					c-1.308-1.98-3.156-4.026-5.622-5.723c-2.457-1.68-5.524-3.065-9.013-3.526c-3.464-0.44-7.341-0.163-10.975,1.403
					c-0.927,0.342-1.791,0.846-2.681,1.322c-0.838,0.558-1.724,1.077-2.497,1.764c-0.826,0.622-1.539,1.386-2.289,2.124
					c-0.671,0.811-1.378,1.606-1.947,2.518c-1.172,1.786-2.177,3.757-2.744,5.901c-0.592,2.132-0.863,4.381-0.795,6.655
					c0.128,2.272,0.591,4.49,1.365,6.564c0.749,2.088,1.921,3.965,3.243,5.644c0.646,0.859,1.419,1.591,2.157,2.341
					c0.81,0.671,1.587,1.371,2.464,1.919c0.829,0.617,1.757,1.058,2.64,1.542c0.928,0.397,1.832,0.824,2.785,1.086
					c3.756,1.246,7.642,1.187,11.056,0.45c3.436-0.76,6.372-2.405,8.675-4.291c2.31-1.903,3.974-4.101,5.106-6.187
					c1.122-2.094,1.81-4.054,2.118-5.703c0.213-0.814,0.28-1.558,0.357-2.201c0.099-0.641,0.119-1.188,0.12-1.631
					c0.014-0.421,0.025-0.754,0.033-1.008C108.267,333.421,108.277,333.304,108.286,333.304c0.009,0,0.017,0.116,0.024,0.343
					c0.005,0.255,0.011,0.589,0.019,1.012c0.016,0.446,0.013,0.997-0.07,1.644c-0.061,0.649-0.113,1.401-0.312,2.226
					c-0.281,1.671-0.947,3.664-2.06,5.8c-1.123,2.128-2.792,4.377-5.127,6.332c-2.328,1.937-5.31,3.634-8.813,4.429
					c-3.48,0.772-7.45,0.848-11.298-0.413c-0.976-0.265-1.903-0.698-2.853-1.102c-0.906-0.491-1.856-0.942-2.707-1.571
					c-0.899-0.56-1.696-1.273-2.526-1.96c-0.758-0.766-1.551-1.515-2.214-2.393c-1.356-1.717-2.558-3.64-3.329-5.779
					c-0.795-2.125-1.27-4.398-1.401-6.726c-0.07-2.329,0.208-4.635,0.817-6.82c0.584-2.197,1.615-4.216,2.818-6.043
					c0.585-0.932,1.31-1.747,1.999-2.575c0.768-0.755,1.501-1.535,2.348-2.17c0.793-0.7,1.701-1.23,2.561-1.798
					c0.912-0.485,1.798-0.996,2.747-1.344c3.724-1.588,7.685-1.855,11.218-1.387c3.558,0.489,6.676,1.922,9.162,3.651
					c2.495,1.746,4.352,3.843,5.655,5.865c1.293,2.032,2.129,3.961,2.554,5.601c0.269,0.805,0.386,1.55,0.503,2.191
					c0.139,0.638,0.19,1.186,0.212,1.632c0.029,0.422,0.051,0.755,0.069,1.01C108.293,333.187,108.295,333.303,108.286,333.304z"/>
			</g>
			<g>
				<g>
					<g>
						<g>
							<g>
								<g>
									<g>
										<polygon style="fill:#FF725E;" points="76.65,340.409 78.467,335.661 86.661,338.257 92.87,323.077 97.383,324.999 
											89.665,345.001 										"/>
									</g>
								</g>
							</g>
						</g>
					</g>
				</g>
			</g>
		</g>
		<g style="opacity:0.3;">
			<path style="fill:#FFFFFF;" d="M63.702,384.405l39.476-102.12l-60.676,21.366c-2.867,1.014-4.685,5.117-3.802,10.053
				L63.702,384.405z"/>
		</g>
	</g>
</g>
<g id="Credit_Card">
	<g>
		<g>
			<g>
				<g>
					<g>
						<g>
							<path style="fill:#FF725E;" d="M247.874,147.822l-164.972,31.59c-2.971,0.569-5.841-1.378-6.41-4.349L57.204,74.337
								c-0.569-2.971,1.379-5.841,4.349-6.41l164.972-31.59c2.971-0.569,5.841,1.378,6.41,4.349l19.288,100.726
								C252.792,144.384,250.845,147.254,247.874,147.822z"/>
						</g>
					</g>
				</g>
				<g>
					<g>
						<g>
							<path style="fill:#FFFFFF;" d="M89.989,88.882c0.273,1.427-0.701,2.468-2.869,2.883l-4.267,0.817l-1.58-8.249l4.031-0.772
								c2.062-0.395,3.287,0.262,3.533,1.547c0.158,0.825-0.144,1.542-0.748,2.024C89.066,87.251,89.791,87.845,89.989,88.882z
								 M83.447,85.406l0.372,1.944l1.897-0.363c0.93-0.178,1.375-0.605,1.251-1.253c-0.124-0.649-0.693-0.87-1.623-0.692
								L83.447,85.406z M88.029,89.049c-0.133-0.695-0.726-0.924-1.717-0.734l-2.226,0.426l0.39,2.038l2.226-0.426
								C87.694,90.164,88.165,89.757,88.029,89.049z"/>
						</g>
					</g>
					<g>
						<g>
							<path style="fill:#FFFFFF;" d="M96.957,88.049l-3.831,0.733l-0.393,1.908l-1.955,0.374l2.097-8.953l1.886-0.361l5.268,7.543
								l-2.004,0.384L96.957,88.049z M96.079,86.714l-1.913-2.908l-0.703,3.409L96.079,86.714z"/>
						</g>
					</g>
					<g>
						<g>
							<path style="fill:#FFFFFF;" d="M106.87,79.431l1.58,8.249l-1.568,0.3l-5.072-4.221l0.959,5.009l-1.886,0.361l-1.58-8.249
								l1.58-0.303l5.059,4.223l-0.959-5.008L106.87,79.431z"/>
						</g>
					</g>
					<g>
						<g>
							<path style="fill:#FFFFFF;" d="M112.783,83.491l-0.886,1.367l0.399,2.086l-1.898,0.364l-1.58-8.25l1.898-0.363l0.738,3.853
								l2.915-4.553l2.121-0.406l-2.713,4.331l4.493,3.88l-2.228,0.426L112.783,83.491z"/>
						</g>
					</g>
				</g>
				<g>
					<g>
						<g>
							<path style="fill:#FFFFFF;" d="M95.013,123.48l-1.515,0.29l0.381,1.991l-0.778,0.149l-0.381-1.991l-4.273,0.818l-0.108-0.562
								l3.052-5.788l0.866-0.166l-2.936,5.631l3.288-0.629l-0.336-1.752l0.757-0.145l0.335,1.752l1.515-0.29L95.013,123.48z"/>
						</g>
					</g>
					<g>
						<g>
							<path style="fill:#FFFFFF;" d="M100.538,122.231c0.243,1.266-0.491,2.415-2.319,2.765c-1.093,0.209-2.215,0.031-2.913-0.451
								l0.261-0.689c0.584,0.416,1.53,0.615,2.516,0.427c1.255-0.24,1.835-0.957,1.655-1.898c-0.174-0.909-0.927-1.381-2.333-1.112
								l-0.541,0.103l-0.11-0.573l1.595-3.031l-3.873,0.742l-0.133-0.692l4.868-0.932l0.106,0.552l-1.625,3.103
								C99.331,120.321,100.306,121.02,100.538,122.231z"/>
						</g>
					</g>
					<g>
						<g>
							<path style="fill:#FFFFFF;" d="M106.65,121.005c0.246,1.287-0.46,2.465-2.309,2.819c-1.092,0.209-2.203,0.029-2.901-0.454
								l0.261-0.69c0.583,0.416,1.519,0.618,2.493,0.431c1.287-0.247,1.849-1.004,1.673-1.924c-0.187-0.973-0.908-1.464-2.834-1.095
								l-1.612,0.309l-0.337-3.871l4.143-0.793l0.133,0.692l-3.462,0.663l0.202,2.462l0.974-0.187
								C105.355,118.931,106.393,119.664,106.65,121.005z"/>
						</g>
					</g>
					<g>
						<g>
							<path style="fill:#FFFFFF;" d="M113.317,119.695c0.271,1.418-0.67,2.539-2.14,2.821c-2.011,0.385-3.372-0.801-3.829-3.192
								c-0.493-2.574,0.656-4.185,2.712-4.579c0.681-0.13,1.343-0.134,1.875,0.067l-0.194,0.688
								c-0.438-0.185-0.977-0.183-1.539-0.075c-1.634,0.313-2.482,1.563-2.089,3.618c0.033,0.173,0.086,0.387,0.151,0.61
								c0.219-0.906,1.017-1.54,2.066-1.741C111.833,117.624,113.052,118.31,113.317,119.695z M112.552,119.864
								c-0.191-0.995-1.048-1.493-2.216-1.269c-1.157,0.222-1.81,1.087-1.63,2.028c0.16,0.833,1.003,1.49,2.311,1.24
								C112.11,121.652,112.745,120.869,112.552,119.864z"/>
						</g>
					</g>
					<g>
						<g>
							<path style="fill:#FFFFFF;" d="M130.113,118.822l-2.262-2.034l-1.361,2.728l-0.866,0.166l1.691-3.351l-2.673-2.359
								l0.866-0.166l2.135,1.901l1.282-2.555l0.844-0.162l-1.612,3.179l2.832,2.485L130.113,118.822z"/>
						</g>
					</g>
					<g>
						<g>
							<path style="fill:#FFFFFF;" d="M135.89,117.716l-2.262-2.034l-1.361,2.728l-0.866,0.166l1.691-3.351l-2.673-2.359
								l0.866-0.166l2.136,1.901l1.282-2.555l0.844-0.162l-1.612,3.179l2.832,2.485L135.89,117.716z"/>
						</g>
					</g>
					<g>
						<g>
							<path style="fill:#FFFFFF;" d="M141.665,116.61l-2.262-2.034l-1.361,2.728l-0.866,0.166l1.692-3.352l-2.673-2.359
								l0.866-0.166l2.136,1.901l1.282-2.555l0.844-0.162l-1.612,3.18l2.832,2.485L141.665,116.61z"/>
						</g>
					</g>
					<g>
						<g>
							<path style="fill:#FFFFFF;" d="M147.441,115.504l-2.262-2.034l-1.361,2.728l-0.866,0.166l1.691-3.351l-2.673-2.359
								l0.866-0.166l2.136,1.901l1.282-2.555l0.844-0.162l-1.612,3.179l2.832,2.485L147.441,115.504z"/>
						</g>
					</g>
					<g>
						<g>
							<path style="fill:#FFFFFF;" d="M167.386,111.685l-2.262-2.034l-1.361,2.728l-0.866,0.166l1.691-3.352l-2.673-2.359
								l0.866-0.166l2.136,1.901l1.282-2.555l0.844-0.162l-1.612,3.18l2.832,2.485L167.386,111.685z"/>
						</g>
					</g>
					<g>
						<g>
							<path style="fill:#FFFFFF;" d="M173.162,110.579l-2.262-2.034l-1.361,2.728l-0.866,0.166l1.691-3.351l-2.673-2.359
								l0.866-0.166l2.136,1.901l1.282-2.555l0.844-0.162l-1.612,3.18l2.832,2.485L173.162,110.579z"/>
						</g>
					</g>
					<g>
						<g>
							<path style="fill:#FFFFFF;" d="M178.938,109.473l-2.262-2.034l-1.361,2.728l-0.866,0.166l1.691-3.351l-2.673-2.359
								l0.866-0.166l2.136,1.901l1.282-2.555l0.844-0.162l-1.612,3.18l2.832,2.485L178.938,109.473z"/>
						</g>
					</g>
					<g>
						<g>
							<path style="fill:#FFFFFF;" d="M184.714,108.367l-2.262-2.034l-1.361,2.728l-0.866,0.166l1.691-3.351l-2.673-2.359
								l0.866-0.166l2.136,1.901l1.282-2.555l0.844-0.161l-1.612,3.179l2.832,2.485L184.714,108.367z"/>
						</g>
					</g>
					<g>
						<g>
							<path style="fill:#FFFFFF;" d="M201.176,97.365l1.45,7.572l-0.779,0.149l-1.317-6.88l-1.785,0.342l-0.133-0.692
								L201.176,97.365z"/>
						</g>
					</g>
					<g>
						<g>
							<path style="fill:#FFFFFF;" d="M209.023,101.458c0.242,1.266-0.491,2.415-2.318,2.765c-1.093,0.209-2.215,0.031-2.913-0.451
								l0.261-0.69c0.585,0.416,1.531,0.615,2.516,0.427c1.255-0.24,1.835-0.957,1.655-1.898c-0.174-0.909-0.927-1.381-2.333-1.112
								l-0.541,0.104l-0.11-0.573l1.595-3.031l-3.873,0.742l-0.133-0.692l4.868-0.932l0.106,0.552l-1.626,3.104
								C207.817,99.547,208.792,100.246,209.023,101.458z"/>
						</g>
					</g>
					<g>
						<g>
							<path style="fill:#FFFFFF;" d="M216.587,100.2l-1.514,0.29l0.381,1.991l-0.778,0.149l-0.381-1.991l-4.273,0.818l-0.108-0.563
								l3.052-5.787l0.866-0.166l-2.936,5.631l3.288-0.63l-0.336-1.752l0.757-0.145l0.335,1.752l1.515-0.29L216.587,100.2z"/>
						</g>
					</g>
					<g>
						<g>
							<path style="fill:#FFFFFF;" d="M222.676,100.38l0.132,0.692l-5.311,1.017l-0.106-0.552l2.558-3.686
								c0.693-1.007,0.758-1.547,0.658-2.066c-0.168-0.876-0.887-1.299-2.045-1.077c-0.888,0.17-1.517,0.571-1.904,1.239
								l-0.644-0.37c0.452-0.804,1.318-1.374,2.476-1.596c1.536-0.294,2.658,0.298,2.901,1.564c0.139,0.725,0.036,1.417-0.79,2.607
								l-2.09,3.024L222.676,100.38z"/>
						</g>
					</g>
				</g>
				<g>
					<g>
						<g>
							<path style="fill:#FFFFFF;" d="M87.943,143.19c-0.209-1.089,0.478-2.029,1.604-2.244c0.624-0.12,1.189,0.008,1.609,0.355
								l-0.442,0.598c-0.296-0.232-0.629-0.318-0.989-0.249c-0.677,0.13-1.066,0.696-0.935,1.378
								c0.13,0.681,0.701,1.064,1.378,0.935c0.361-0.069,0.638-0.272,0.826-0.603l0.632,0.393c-0.261,0.484-0.739,0.811-1.368,0.931
								C89.137,144.899,88.152,144.28,87.943,143.19z"/>
						</g>
					</g>
					<g>
						<g>
							<path style="fill:#FFFFFF;" d="M94.465,143.011l-1.677,0.321l-0.173,0.836l-0.856,0.164l0.919-3.922l0.826-0.158l2.307,3.304
								l-0.877,0.168L94.465,143.011z M94.08,142.427l-0.837-1.274l-0.308,1.493L94.08,142.427z"/>
						</g>
					</g>
					<g>
						<g>
							<path style="fill:#FFFFFF;" d="M98.495,143.042l-0.89-0.873l-0.041,0.008l-0.727,0.139l0.192,1.006l-0.836,0.16l-0.692-3.613
								l1.563-0.299c0.966-0.185,1.665,0.201,1.82,1.01c0.104,0.542-0.093,0.992-0.525,1.283l1.034,1.006L98.495,143.042z
								 M97.149,140.261l-0.681,0.13l0.241,1.26l0.681-0.13c0.511-0.098,0.724-0.385,0.649-0.777
								C97.964,140.346,97.661,140.163,97.149,140.261z"/>
						</g>
					</g>
					<g>
						<g>
							<path style="fill:#FFFFFF;" d="M99.642,142.453l0.164-0.683c0.346,0.163,0.83,0.231,1.265,0.148
								c0.495-0.095,0.664-0.298,0.622-0.521c-0.129-0.676-2.141,0.191-2.397-1.151c-0.118-0.615,0.28-1.22,1.307-1.417
								c0.454-0.087,0.94-0.067,1.316,0.08l-0.136,0.684c-0.373-0.127-0.737-0.153-1.057-0.092
								c-0.495,0.095-0.651,0.317-0.607,0.544c0.128,0.666,2.141-0.196,2.395,1.131c0.116,0.604-0.287,1.216-1.32,1.414
								C100.621,142.7,100.01,142.64,99.642,142.453z"/>
						</g>
					</g>
					<g>
						<g>
							<path style="fill:#FFFFFF;" d="M107.377,137.596l0.692,3.613l-0.836,0.16l-0.284-1.481l-1.642,0.314l0.284,1.481l-0.835,0.16
								l-0.692-3.613l0.835-0.16l0.273,1.425l1.642-0.314l-0.273-1.425L107.377,137.596z"/>
						</g>
					</g>
					<g>
						<g>
							<path style="fill:#FFFFFF;" d="M108.359,139.281c-0.206-1.074,0.478-2.029,1.62-2.247c1.134-0.217,2.127,0.411,2.334,1.49
								c0.206,1.079-0.484,2.03-1.618,2.247C109.553,140.989,108.565,140.355,108.359,139.281z M111.466,138.686
								c-0.131-0.686-0.706-1.064-1.351-0.94c-0.646,0.124-1.041,0.686-0.91,1.373c0.131,0.686,0.706,1.064,1.352,0.94
								C111.203,139.935,111.597,139.372,111.466,138.686z"/>
						</g>
					</g>
					<g>
						<g>
							<path style="fill:#FFFFFF;" d="M112.605,136.595l0.835-0.16l0.561,2.932l1.812-0.347l0.13,0.681l-2.648,0.507
								L112.605,136.595z"/>
						</g>
					</g>
					<g>
						<g>
							<path style="fill:#FFFFFF;" d="M115.727,135.997l1.641-0.314c1.183-0.227,2.13,0.33,2.339,1.425
								c0.21,1.094-0.464,1.962-1.647,2.188l-1.641,0.314L115.727,135.997z M117.887,138.617c0.718-0.137,1.106-0.656,0.973-1.347
								c-0.132-0.692-0.684-1.03-1.402-0.892l-0.764,0.146l0.429,2.24L117.887,138.617z"/>
						</g>
					</g>
					<g>
						<g>
							<path style="fill:#FFFFFF;" d="M123.358,137.586l0.129,0.671l-2.797,0.536l-0.692-3.613l2.73-0.523l0.129,0.671l-1.899,0.364
								l0.15,0.785l1.677-0.321l0.124,0.65l-1.677,0.321l0.16,0.836L123.358,137.586z"/>
						</g>
					</g>
					<g>
						<g>
							<path style="fill:#FFFFFF;" d="M126.459,137.688l-0.89-0.873l-0.041,0.008l-0.728,0.139l0.193,1.006l-0.835,0.16
								l-0.692-3.613l1.563-0.299c0.966-0.185,1.665,0.201,1.82,1.011c0.104,0.542-0.093,0.992-0.525,1.283l1.034,1.006
								L126.459,137.688z M125.113,134.906l-0.681,0.13l0.241,1.259l0.681-0.13c0.511-0.098,0.724-0.385,0.649-0.777
								C125.928,134.991,125.625,134.808,125.113,134.906z"/>
						</g>
					</g>
				</g>
				<g>
					<g>
						<path style="fill:#FFFFFF;" d="M142.197,148.788l-50.659,9.701c-0.813,0.156-1.598-0.377-1.754-1.19l-0.324-1.691
							c-0.156-0.813,0.377-1.598,1.19-1.754l50.658-9.701c0.813-0.156,1.598,0.377,1.754,1.19l0.324,1.691
							C143.542,147.847,143.009,148.632,142.197,148.788z"/>
					</g>
				</g>
				<g>
					<g>
						<path style="fill:#FFFFFF;" d="M230.787,131.824l-26.832,5.138c-0.813,0.156-1.598-0.377-1.754-1.19l-0.324-1.691
							c-0.156-0.813,0.377-1.598,1.19-1.754l26.832-5.138c0.813-0.156,1.598,0.377,1.754,1.19l0.324,1.691
							C232.132,130.883,231.6,131.668,230.787,131.824z"/>
					</g>
				</g>
			</g>
			<g style="opacity:0.2;">
				<g>
					<g>
						<g>
							<path style="fill:#FFFFFF;" d="M226.083,36.422L61.996,67.842c-3.215,0.616-5.323,3.722-4.707,6.937l5.637,29.438
								c11.755,5.243,26.234,3.788,38.362-1.272c14.296-5.965,26.322-16.16,39.001-25.059c12.679-8.898,26.96-16.826,42.447-17.128
								c14.614-0.284,28.365,6.221,42.403,10.294c4.535,1.316,9.339,2.321,14.143,2.776l-6.262-32.7
								C232.404,37.914,229.298,35.806,226.083,36.422z"/>
						</g>
					</g>
				</g>
			</g>
		</g>
	</g>
</g>
<g id="Device_1">
	<g>
		<g>
			<path style="fill:#263238;" d="M168.558,83.389c-11.94,0-21.476,9.925-20.974,21.855c2.665,63.313,11.661,247.649,14.805,311.785
				c0.613,12.504,10.929,22.309,23.448,22.309h108.482c12.625,0,22.989-9.984,23.461-22.6l11.62-310.68
				c0.463-12.38-9.448-22.668-21.836-22.668H168.558z"/>
			<rect x="164.632" y="134.59" style="opacity:0.3;" width="149.267" height="132.796"/>
			<path style="fill:#455A64;" d="M184.027,125.608h112.102c9.59,0,17.153-8.158,16.429-17.72l0,0
				c-0.651-8.592-7.812-15.232-16.429-15.232H184.027c-8.559,0-15.693,6.554-16.417,15.082l0,0
				C166.794,117.353,174.377,125.608,184.027,125.608z"/>
			<path style="fill:#E0E0E0;" d="M213.329,301.735h-32.682c-1.239,0-2.243-1.004-2.243-2.243v-13.049
				c0-1.239,1.004-2.243,2.243-2.243h32.682c1.239,0,2.243,1.004,2.243,2.243v13.049
				C215.573,300.73,214.568,301.735,213.329,301.735z"/>
			<path style="fill:#E0E0E0;" d="M257.842,301.735H225.16c-1.239,0-2.243-1.004-2.243-2.243v-13.049
				c0-1.239,1.004-2.243,2.243-2.243h32.682c1.239,0,2.243,1.004,2.243,2.243v13.049
				C260.086,300.73,259.081,301.735,257.842,301.735z"/>
			<path style="fill:#E0E0E0;" d="M302.355,301.735h-32.682c-1.239,0-2.243-1.004-2.243-2.243v-13.049
				c0-1.239,1.004-2.243,2.243-2.243h32.682c1.239,0,2.243,1.004,2.243,2.243v13.049
				C304.599,300.73,303.594,301.735,302.355,301.735z"/>
			<path style="fill:#E0E0E0;" d="M213.329,330.214h-32.682c-1.239,0-2.243-1.004-2.243-2.243v-13.049
				c0-1.239,1.004-2.243,2.243-2.243h32.682c1.239,0,2.243,1.004,2.243,2.243v13.049
				C215.573,329.21,214.568,330.214,213.329,330.214z"/>
			<path style="fill:#E0E0E0;" d="M257.842,330.214H225.16c-1.239,0-2.243-1.004-2.243-2.243v-13.049
				c0-1.239,1.004-2.243,2.243-2.243h32.682c1.239,0,2.243,1.004,2.243,2.243v13.049
				C260.086,329.21,259.081,330.214,257.842,330.214z"/>
			<path style="fill:#E0E0E0;" d="M302.355,330.214h-32.682c-1.239,0-2.243-1.004-2.243-2.243v-13.049
				c0-1.239,1.004-2.243,2.243-2.243h32.682c1.239,0,2.243,1.004,2.243,2.243v13.049
				C304.599,329.21,303.594,330.214,302.355,330.214z"/>
			<path style="fill:#E0E0E0;" d="M213.329,358.693h-32.682c-1.239,0-2.243-1.004-2.243-2.243v-13.049
				c0-1.239,1.004-2.243,2.243-2.243h32.682c1.239,0,2.243,1.004,2.243,2.243v13.049
				C215.573,357.689,214.568,358.693,213.329,358.693z"/>
			<path style="fill:#E0E0E0;" d="M257.842,358.693H225.16c-1.239,0-2.243-1.004-2.243-2.243v-13.049
				c0-1.239,1.004-2.243,2.243-2.243h32.682c1.239,0,2.243,1.004,2.243,2.243v13.049
				C260.086,357.689,259.081,358.693,257.842,358.693z"/>
			<path style="fill:#E0E0E0;" d="M302.355,358.693h-32.682c-1.239,0-2.243-1.004-2.243-2.243v-13.049
				c0-1.239,1.004-2.243,2.243-2.243h32.682c1.239,0,2.243,1.004,2.243,2.243v13.049
				C304.599,357.689,303.594,358.693,302.355,358.693z"/>
			<path style="fill:#E0E0E0;" d="M213.329,387.172h-32.682c-1.239,0-2.243-1.004-2.243-2.243V371.88
				c0-1.239,1.004-2.243,2.243-2.243h32.682c1.239,0,2.243,1.004,2.243,2.243v13.049
				C215.573,386.168,214.568,387.172,213.329,387.172z"/>
			<path style="fill:#E0E0E0;" d="M257.842,387.172H225.16c-1.239,0-2.243-1.004-2.243-2.243V371.88
				c0-1.239,1.004-2.243,2.243-2.243h32.682c1.239,0,2.243,1.004,2.243,2.243v13.049
				C260.086,386.168,259.081,387.172,257.842,387.172z"/>
			<path style="fill:#E0E0E0;" d="M302.355,387.172h-32.682c-1.239,0-2.243-1.004-2.243-2.243V371.88
				c0-1.239,1.004-2.243,2.243-2.243h32.682c1.239,0,2.243,1.004,2.243,2.243v13.049
				C304.599,386.168,303.594,387.172,302.355,387.172z"/>
			<path style="fill:#FF725E;" d="M213.329,418.414h-32.682c-1.239,0-2.243-1.004-2.243-2.243v-16.955
				c0-1.239,1.004-2.243,2.243-2.243h32.682c1.239,0,2.243,1.004,2.243,2.243v16.955
				C215.573,417.41,214.568,418.414,213.329,418.414z"/>
			<path style="fill:#E0E0E0;" d="M257.842,418.414H225.16c-1.239,0-2.243-1.004-2.243-2.243v-16.955
				c0-1.239,1.004-2.243,2.243-2.243h32.682c1.239,0,2.243,1.004,2.243,2.243v16.955
				C260.086,417.41,259.081,418.414,257.842,418.414z"/>
			<path style="fill:#455A64;" d="M302.355,418.414h-32.682c-1.239,0-2.243-1.004-2.243-2.243v-16.955
				c0-1.239,1.004-2.243,2.243-2.243h32.682c1.239,0,2.243,1.004,2.243,2.243v16.955
				C304.599,417.41,303.594,418.414,302.355,418.414z"/>
			<path style="fill:#455A64;" d="M203.786,259.05h-18.459c-1.101,0-1.993-0.892-1.993-1.993v-6.083
				c0-1.101,0.892-1.993,1.993-1.993h18.459c1.101,0,1.993,0.892,1.993,1.993v6.083C205.779,258.158,204.887,259.05,203.786,259.05z
				"/>
			<path style="fill:#455A64;" d="M235.92,259.05h-18.459c-1.101,0-1.993-0.892-1.993-1.993v-6.083c0-1.101,0.892-1.993,1.993-1.993
				h18.459c1.101,0,1.993,0.892,1.993,1.993v6.083C237.913,258.158,237.021,259.05,235.92,259.05z"/>
			<path style="fill:#455A64;" d="M266.826,259.05h-18.459c-1.101,0-1.993-0.892-1.993-1.993v-6.083
				c0-1.101,0.892-1.993,1.993-1.993h18.459c1.101,0,1.993,0.892,1.993,1.993v6.083C268.819,258.158,267.927,259.05,266.826,259.05z
				"/>
			<path style="fill:#455A64;" d="M299.413,259.05h-18.459c-1.101,0-1.993-0.892-1.993-1.993v-6.083
				c0-1.101,0.892-1.993,1.993-1.993h18.459c1.101,0,1.993,0.892,1.993,1.993v6.083C301.406,258.158,300.514,259.05,299.413,259.05z
				"/>
			<rect x="174.815" y="147.591" style="fill:#455A64;" width="129.784" height="89.907"/>
			<path style="opacity:0.3;" d="M322.409,292.967l-45.105-150.481c-2.467-8.229,2.597-16.816,10.992-18.64l40.77-8.857
				L322.409,292.967z"/>
		</g>
		<g>
			<g>
				<path style="fill:#FFFFFF;" d="M230.961,190.373c2.809,3.24,3.117,7.934,0.905,11.575c-0.838,1.379,1.324,2.637,2.159,1.262
					c2.82-4.642,2.241-10.525-1.296-14.605C231.673,187.387,229.911,189.162,230.961,190.373L230.961,190.373z"/>
			</g>
			<g>
				<path style="fill:#FFFFFF;" d="M236.818,185.498c4.713,5.435,5.285,13.301,1.565,19.425c-0.837,1.379,1.324,2.637,2.159,1.262
					c4.328-7.125,3.484-16.18-1.956-22.455C237.53,182.513,235.768,184.287,236.818,185.498L236.818,185.498z"/>
			</g>
			<g>
				<path style="fill:#FFFFFF;" d="M244.349,181.515c6.285,7.237,7.081,17.753,2.111,25.917c-0.839,1.378,1.322,2.636,2.159,1.262
					c5.58-9.166,4.513-20.869-2.502-28.946C245.06,178.531,243.298,180.305,244.349,181.515L244.349,181.515z"/>
			</g>
			<g>
				<path style="fill:#FFFFFF;" d="M250.995,178.421c7.719,8.861,8.721,21.813,2.606,31.815c-0.841,1.376,1.32,2.634,2.159,1.262
					c6.724-11,5.45-25.147-2.997-34.845C251.704,175.438,249.942,177.212,250.995,178.421L250.995,178.421z"/>
			</g>
			<g>
				<path style="fill:#FFFFFF;" d="M278.059,192.942c-0.088,11.821-10.085,20.399-20.731,23.499
					c-11.884,3.46-26.154,1.211-35.313-7.493c-3.894-3.701-6.699-8.604-7.229-14.008c-0.525-5.361,1.186-10.643,4.43-14.902
					c7.582-9.954,21.505-13.57,33.457-11.642c11.009,1.776,22.53,8.854,24.966,20.46
					C277.923,190.203,278.049,191.567,278.059,192.942c0.006,0.804,1.256,0.806,1.25,0c-0.092-12.32-10.356-21.358-21.476-24.654
					c-12.4-3.675-27.307-1.268-36.818,7.874c-4.048,3.891-6.876,9.003-7.464,14.629c-0.589,5.641,1.223,11.265,4.633,15.749
					c7.886,10.368,22.178,14.131,34.636,12.181c11.57-1.811,23.704-9.433,26.084-21.659c0.265-1.359,0.393-2.737,0.404-4.121
					C279.315,192.137,278.065,192.136,278.059,192.942z"/>
			</g>
		</g>
	</g>
</g>
<g id="Character_00000036232438232730651040000009104903605405890495_">
	<g>
		<g>
			<g>
				<g>
					<g>
						<g>
							<g>
								<g>
									<g>
										<g>
											<g>
												<path style="fill:#E0E0E0;" d="M424.852,300.548l-69.492,18.369c-8.358,2.21-16.925-2.773-19.137-11.13l-46.121-174.2
													c-2.214-8.362,2.772-16.934,11.134-19.145l69.492-18.37c8.358-2.209,16.925,2.773,19.137,11.13l46.121,174.201
													C438.2,289.765,433.214,298.338,424.852,300.548z"/>
												<g>
													<path style="fill:#263238;" d="M424.852,300.548c-0.061-0.105,2.186-0.319,5.435-2.711
														c1.594-1.198,3.322-3.064,4.604-5.695c0.61-1.324,1.121-2.825,1.367-4.49c0.224-1.664,0.201-3.475-0.181-5.33
														c-3.912-14.741-9.569-36.058-16.558-62.397c-6.992-26.348-15.318-57.719-24.561-92.551
														c-1.154-4.354-2.323-8.763-3.506-13.223c-1.348-4.372-1.755-9.297-4.927-12.834c-1.496-1.767-3.386-3.237-5.536-4.178
														c-2.146-0.943-4.514-1.405-6.88-1.316c-2.371,0.043-4.664,0.91-7.028,1.475c-2.348,0.621-4.707,1.245-7.077,1.872
														c-18.957,5.013-38.585,10.203-58.689,15.519c-2.471,0.669-4.757,1.943-6.624,3.667
														c-1.827,1.762-3.251,3.945-4.052,6.341c-0.778,2.398-1.012,4.977-0.578,7.45c0.232,1.225,0.577,2.457,0.902,3.686
														c0.325,1.229,0.65,2.455,0.974,3.679c2.591,9.792,5.144,19.441,7.653,28.921c5.015,18.962,9.852,37.252,14.46,54.676
														c4.604,17.424,8.98,33.981,13.075,49.477c2.046,7.748,4.022,15.231,5.921,22.424c0.949,3.596,1.879,7.121,2.79,10.569
														c0.467,1.726,0.849,3.441,1.623,4.987c0.765,1.544,1.772,2.942,2.956,4.137c2.359,2.419,5.491,3.878,8.644,4.387
														c1.588,0.224,3.181,0.206,4.728-0.014c1.529-0.286,3.033-0.726,4.518-1.108c5.937-1.562,11.535-3.035,16.771-4.412
														c10.47-2.75,19.489-5.118,26.863-7.055c7.369-1.926,13.092-3.422,16.982-4.438c1.937-0.5,3.416-0.882,4.42-1.142
														C424.338,300.666,424.852,300.548,424.852,300.548s-0.505,0.152-1.497,0.423c-1.001,0.271-2.475,0.669-4.406,1.191
														c-3.884,1.038-9.599,2.566-16.957,4.533c-7.368,1.96-16.379,4.357-26.841,7.141c-5.233,1.39-10.828,2.875-16.761,4.451
														c-1.487,0.386-2.973,0.826-4.548,1.124c-1.58,0.229-3.209,0.251-4.833,0.024c-3.226-0.514-6.432-2.001-8.852-4.473
														c-1.215-1.221-2.248-2.651-3.035-4.232c-0.797-1.587-1.191-3.344-1.657-5.053c-0.915-3.447-1.851-6.97-2.806-10.565
														c-1.909-7.191-3.894-14.671-5.95-22.416c-4.109-15.492-8.501-32.046-13.121-49.465
														c-4.617-17.421-9.465-35.709-14.49-54.668c-2.511-9.48-5.067-19.128-7.661-28.919c-0.324-1.224-0.649-2.45-0.974-3.678
														c-0.325-1.229-0.669-2.448-0.913-3.731c-0.448-2.556-0.208-5.224,0.597-7.703c0.828-2.477,2.298-4.733,4.188-6.555
														c1.929-1.784,4.296-3.101,6.848-3.792c20.104-5.313,39.733-10.499,58.692-15.509c2.37-0.626,4.729-1.249,7.078-1.87
														c1.174-0.31,2.346-0.619,3.515-0.928c0.59-0.145,1.198-0.259,1.795-0.388c0.61-0.055,1.216-0.155,1.827-0.172
														c2.444-0.091,4.89,0.388,7.104,1.363c2.219,0.973,4.169,2.49,5.713,4.316c1.542,1.83,2.664,4.005,3.24,6.3
														c0.596,2.255,1.189,4.498,1.779,6.729c1.179,4.46,2.345,8.87,3.497,13.225c9.203,34.843,17.492,66.223,24.454,92.58
														c6.934,26.364,12.616,47.672,16.401,62.45c0.379,1.88,0.394,3.714,0.159,5.396c-0.257,1.683-0.781,3.198-1.405,4.531
														c-1.31,2.65-3.065,4.519-4.68,5.712c-1.603,1.235-3.064,1.782-4.007,2.18
														C425.358,300.406,424.852,300.548,424.852,300.548z"/>
												</g>
											</g>
										</g>
									</g>
								</g>
								<g>
									<path style="fill:#FAFAFA;" d="M372.245,102.104l-13.473,3.562l-39.349,10.402l-4.738,1.252l-11.792,3.117
										c-5.856,1.548-9.348,7.552-7.798,13.408l45.018,170.032c1.55,5.854,7.549,9.343,13.403,7.796l69.354-18.333
										c5.856-1.548,9.348-7.552,7.798-13.408l-45.018-170.033C384.098,104.047,378.099,100.557,372.245,102.104z"/>
								</g>
							</g>
						</g>
					</g>
				</g>
			</g>
			<g>
				<g>
					<g>
						<g>
							<g>
								<path style="fill:#263238;" d="M376.916,117.401c0.127,0.479-0.158,0.971-0.637,1.098c-0.479,0.127-0.971-0.158-1.098-0.637
									c-0.127-0.479,0.158-0.971,0.637-1.098C376.297,116.637,376.789,116.922,376.916,117.401z"/>
							</g>
						</g>
					</g>
					<g>
						<g>
							<g>
								<path style="fill:#263238;" d="M377.744,120.522c0.127,0.479-0.158,0.971-0.638,1.098c-0.479,0.127-0.97-0.158-1.098-0.638
									c-0.127-0.479,0.158-0.971,0.637-1.098C377.125,119.758,377.616,120.043,377.744,120.522z"/>
							</g>
						</g>
					</g>
					<g>
						<g>
							<g>
								<path style="fill:#263238;" d="M378.571,123.643c0.127,0.479-0.158,0.971-0.637,1.098c-0.479,0.127-0.971-0.158-1.098-0.637
									c-0.127-0.479,0.158-0.971,0.637-1.098C377.953,122.879,378.444,123.164,378.571,123.643z"/>
							</g>
						</g>
					</g>
				</g>
			</g>
			<g>
				<g>
					<g>
						<g>
							<path style="fill:#FF725E;" d="M414.513,249.153l-68.32,19.357c-2.285,0.647-4.661-0.68-5.309-2.965l-11.423-40.318
								c-0.647-2.285,0.68-4.661,2.965-5.309l68.32-19.357c2.285-0.647,4.662,0.68,5.309,2.965l11.423,40.318
								C418.125,246.128,416.797,248.505,414.513,249.153z"/>
						</g>
					</g>
					<g>
						<g>
							<path style="fill:#FFFFFF;" d="M344.047,228.616c0.176,0.622-0.215,1.121-1.16,1.389l-1.86,0.527l-1.019-3.596l1.757-0.498
								c0.899-0.255,1.467-0.011,1.626,0.549c0.102,0.359-0.004,0.689-0.253,0.926C343.575,227.928,343.919,228.164,344.047,228.616
								z M341.013,227.328l0.24,0.848l0.827-0.234c0.405-0.115,0.586-0.321,0.506-0.604c-0.08-0.283-0.341-0.359-0.746-0.244
								L341.013,227.328z M343.185,228.766c-0.086-0.303-0.357-0.381-0.789-0.259l-0.97,0.275l0.252,0.889l0.97-0.275
								C343.079,229.273,343.272,229.074,343.185,228.766z"/>
						</g>
						<g>
							<path style="fill:#FFFFFF;" d="M347.104,227.977l-1.67,0.473l-0.1,0.861l-0.852,0.242l0.584-4.049l0.822-0.233l2.626,3.14
								l-0.873,0.247L347.104,227.977z M346.662,227.42l-0.96-1.215l-0.18,1.538L346.662,227.42z"/>
						</g>
						<g>
							<path style="fill:#FFFFFF;" d="M351.164,223.775l1.019,3.596l-0.683,0.194l-2.411-1.675l0.618,2.183l-0.822,0.233
								l-1.019-3.596l0.689-0.195l2.406,1.676l-0.618-2.183L351.164,223.775z"/>
						</g>
						<g>
							<path style="fill:#FFFFFF;" d="M353.942,225.346l-0.34,0.64l0.258,0.909l-0.827,0.234l-1.019-3.596l0.827-0.234l0.476,1.68
								l1.116-2.131l0.924-0.262l-1.035,2.024l2.141,1.546l-0.971,0.275L353.942,225.346z"/>
						</g>
					</g>
					<g>
						<g>
							<path style="fill:#FFFFFF;" d="M347.61,243.757l-0.66,0.187l0.246,0.868l-0.339,0.096l-0.246-0.868l-1.862,0.528
								l-0.069-0.245l1.129-2.683l0.378-0.107l-1.084,2.609l1.433-0.406l-0.216-0.764l0.33-0.093l0.216,0.764l0.66-0.187
								L347.61,243.757z"/>
						</g>
						<g>
							<path style="fill:#FFFFFF;" d="M350.01,242.991c0.156,0.552-0.124,1.089-0.921,1.315c-0.476,0.135-0.981,0.099-1.309-0.088
								l0.089-0.316c0.275,0.162,0.702,0.214,1.132,0.092c0.547-0.155,0.776-0.495,0.66-0.905c-0.112-0.396-0.464-0.576-1.077-0.403
								l-0.236,0.067l-0.071-0.25l0.59-1.405l-1.688,0.478l-0.086-0.302l2.122-0.601l0.068,0.241l-0.601,1.438
								C349.402,242.19,349.861,242.463,350.01,242.991z"/>
						</g>
						<g>
							<path style="fill:#FFFFFF;" d="M352.672,242.211c0.159,0.561-0.109,1.11-0.915,1.339c-0.476,0.135-0.975,0.098-1.303-0.089
								l0.089-0.316c0.275,0.162,0.697,0.215,1.121,0.095c0.561-0.159,0.781-0.517,0.667-0.917c-0.12-0.424-0.459-0.614-1.298-0.376
								l-0.702,0.199l-0.299-1.703l1.806-0.512l0.086,0.302l-1.509,0.428l0.185,1.083l0.424-0.12
								C352.018,241.342,352.507,241.626,352.672,242.211z"/>
						</g>
						<g>
							<path style="fill:#FFFFFF;" d="M355.577,241.373c0.175,0.618-0.199,1.152-0.84,1.333c-0.877,0.248-1.525-0.225-1.821-1.267
								c-0.318-1.122,0.129-1.88,1.025-2.134c0.297-0.084,0.59-0.111,0.834-0.043l-0.06,0.312c-0.201-0.065-0.44-0.043-0.685,0.026
								c-0.712,0.202-1.04,0.788-0.786,1.684c0.021,0.075,0.053,0.168,0.09,0.265c0.062-0.41,0.391-0.722,0.849-0.852
								C354.839,240.512,355.406,240.769,355.577,241.373z M355.244,241.477c-0.123-0.434-0.522-0.621-1.031-0.477
								c-0.504,0.143-0.76,0.552-0.644,0.962c0.103,0.363,0.502,0.622,1.072,0.46C355.117,242.287,355.368,241.915,355.244,241.477z
								"/>
						</g>
						<g>
							<path style="fill:#FFFFFF;" d="M362.988,240.337l-1.081-0.814l-0.498,1.262l-0.377,0.107l0.62-1.551l-1.276-0.942
								l0.377-0.107l1.02,0.76l0.47-1.182l0.368-0.104l-0.592,1.471l1.351,0.992L362.988,240.337z"/>
						</g>
						<g>
							<path style="fill:#FFFFFF;" d="M365.506,239.624l-1.081-0.814l-0.498,1.262l-0.377,0.107l0.62-1.551l-1.276-0.942
								l0.377-0.107l1.02,0.76l0.47-1.182l0.368-0.104l-0.592,1.472l1.351,0.992L365.506,239.624z"/>
						</g>
						<g>
							<path style="fill:#FFFFFF;" d="M368.023,238.911l-1.081-0.814l-0.498,1.262l-0.378,0.107l0.62-1.551l-1.276-0.942
								l0.378-0.107l1.02,0.76l0.47-1.182l0.368-0.104l-0.592,1.471l1.351,0.992L368.023,238.911z"/>
						</g>
						<g>
							<path style="fill:#FFFFFF;" d="M370.541,238.198l-1.081-0.814l-0.498,1.262l-0.377,0.107l0.62-1.551l-1.276-0.942
								l0.378-0.107l1.02,0.76l0.47-1.182l0.368-0.104l-0.592,1.472l1.351,0.992L370.541,238.198z"/>
						</g>
						<g>
							<path style="fill:#FFFFFF;" d="M379.234,235.735l-1.081-0.814l-0.498,1.262l-0.377,0.107l0.62-1.551l-1.276-0.942
								l0.378-0.107l1.02,0.76l0.47-1.182l0.368-0.104l-0.592,1.472l1.351,0.992L379.234,235.735z"/>
						</g>
						<g>
							<path style="fill:#FFFFFF;" d="M381.751,235.021l-1.081-0.814l-0.498,1.262l-0.378,0.107l0.62-1.551l-1.276-0.942
								l0.377-0.107l1.02,0.76l0.47-1.182l0.368-0.104l-0.592,1.472l1.351,0.992L381.751,235.021z"/>
						</g>
						<g>
							<path style="fill:#FFFFFF;" d="M384.268,234.308l-1.081-0.814l-0.498,1.262l-0.377,0.107l0.62-1.551l-1.276-0.942
								l0.377-0.107l1.02,0.76l0.47-1.182l0.368-0.104l-0.592,1.471l1.351,0.992L384.268,234.308z"/>
						</g>
						<g>
							<path style="fill:#FFFFFF;" d="M386.786,233.595l-1.081-0.814l-0.498,1.262l-0.378,0.107l0.62-1.551l-1.276-0.942
								l0.377-0.107l1.02,0.76l0.47-1.182l0.368-0.104l-0.592,1.471l1.351,0.992L386.786,233.595z"/>
						</g>
						<g>
							<path style="fill:#FFFFFF;" d="M393.658,228.083l0.935,3.3l-0.339,0.096l-0.85-2.999l-0.778,0.22l-0.086-0.302
								L393.658,228.083z"/>
						</g>
						<g>
							<path style="fill:#FFFFFF;" d="M397.294,229.594c0.156,0.552-0.124,1.089-0.921,1.315c-0.476,0.135-0.981,0.099-1.309-0.088
								l0.089-0.316c0.275,0.162,0.702,0.214,1.132,0.092c0.547-0.155,0.776-0.495,0.66-0.905c-0.112-0.396-0.464-0.576-1.077-0.403
								l-0.236,0.067l-0.071-0.25l0.59-1.405l-1.688,0.478l-0.086-0.302l2.122-0.601l0.068,0.241l-0.601,1.438
								C396.686,228.794,397.145,229.066,397.294,229.594z"/>
						</g>
						<g>
							<path style="fill:#FFFFFF;" d="M400.598,228.744l-0.66,0.187l0.246,0.868l-0.339,0.096l-0.246-0.868l-1.862,0.528
								l-0.069-0.245l1.129-2.683l0.378-0.107l-1.084,2.609l1.433-0.406l-0.216-0.764l0.33-0.094l0.216,0.764l0.66-0.187
								L400.598,228.744z"/>
						</g>
						<g>
							<path style="fill:#FFFFFF;" d="M403.304,228.589l0.086,0.302l-2.315,0.656l-0.068-0.24l0.991-1.732
								c0.269-0.473,0.276-0.715,0.212-0.941c-0.108-0.382-0.443-0.541-0.948-0.398c-0.387,0.11-0.651,0.312-0.796,0.623l-0.3-0.139
								c0.169-0.374,0.531-0.66,1.036-0.803c0.67-0.19,1.19,0.03,1.346,0.581c0.089,0.316,0.071,0.627-0.25,1.186l-0.81,1.421
								L403.304,228.589z"/>
						</g>
					</g>
					<g>
						<g>
							<path style="fill:#FFFFFF;" d="M345.237,252.767c-0.135-0.475,0.134-0.918,0.624-1.057c0.272-0.077,0.527-0.042,0.727,0.095
								l-0.173,0.282c-0.14-0.091-0.291-0.117-0.448-0.072c-0.295,0.084-0.445,0.35-0.361,0.647
								c0.084,0.297,0.352,0.445,0.647,0.361c0.157-0.045,0.272-0.145,0.343-0.299l0.295,0.15c-0.097,0.225-0.296,0.388-0.57,0.465
								C345.832,253.478,345.372,253.242,345.237,252.767z"/>
						</g>
						<g>
							<path style="fill:#FFFFFF;" d="M348.121,252.436l-0.731,0.207l-0.044,0.377l-0.373,0.106l0.256-1.774l0.36-0.102l1.15,1.375
								l-0.382,0.108L348.121,252.436z M347.928,252.191l-0.42-0.532l-0.079,0.674L347.928,252.191z"/>
						</g>
						<g>
							<path style="fill:#FFFFFF;" d="M349.909,252.294l-0.428-0.352l-0.018,0.005l-0.317,0.09l0.124,0.439l-0.364,0.103
								l-0.446-1.575l0.681-0.193c0.421-0.119,0.746,0.025,0.846,0.378c0.067,0.236-0.003,0.443-0.183,0.589l0.497,0.406
								L349.909,252.294z M349.205,251.113l-0.297,0.084l0.156,0.549l0.297-0.084c0.223-0.063,0.306-0.199,0.258-0.37
								C349.569,251.119,349.427,251.05,349.205,251.113z"/>
						</g>
						<g>
							<path style="fill:#FFFFFF;" d="M350.394,251.988l0.046-0.309c0.16,0.059,0.377,0.07,0.566,0.017
								c0.216-0.061,0.283-0.158,0.255-0.255c-0.083-0.295-0.941,0.167-1.107-0.418c-0.076-0.268,0.077-0.552,0.524-0.678
								c0.198-0.056,0.414-0.066,0.586-0.015l-0.034,0.309c-0.17-0.042-0.332-0.04-0.472,0c-0.216,0.061-0.276,0.166-0.248,0.265
								c0.082,0.29,0.941-0.169,1.105,0.409c0.075,0.263-0.08,0.55-0.53,0.678C350.837,252.06,350.564,252.057,350.394,251.988z"/>
						</g>
						<g>
							<path style="fill:#FFFFFF;" d="M353.635,249.537l0.446,1.575l-0.364,0.103l-0.183-0.646l-0.716,0.203l0.183,0.646
								l-0.364,0.103l-0.446-1.575l0.364-0.103l0.176,0.621l0.716-0.203l-0.176-0.621L353.635,249.537z"/>
						</g>
						<g>
							<path style="fill:#FFFFFF;" d="M354.135,250.246c-0.133-0.468,0.134-0.918,0.631-1.059c0.494-0.14,0.959,0.1,1.092,0.57
								c0.133,0.47-0.136,0.918-0.631,1.059C354.73,250.957,354.268,250.714,354.135,250.246z M355.49,249.862
								c-0.085-0.299-0.354-0.444-0.635-0.365c-0.282,0.08-0.435,0.344-0.35,0.644c0.085,0.299,0.354,0.444,0.636,0.364
								C355.421,250.426,355.574,250.161,355.49,249.862z"/>
						</g>
						<g>
							<path style="fill:#FFFFFF;" d="M355.914,248.891l0.364-0.103l0.362,1.278l0.79-0.224l0.084,0.297l-1.154,0.327
								L355.914,248.891z"/>
						</g>
						<g>
							<path style="fill:#FFFFFF;" d="M357.275,248.506l0.715-0.203c0.516-0.146,0.957,0.064,1.092,0.541
								c0.135,0.477-0.13,0.887-0.646,1.034l-0.715,0.203L357.275,248.506z M358.333,249.584c0.313-0.089,0.465-0.333,0.379-0.635
								c-0.086-0.301-0.343-0.43-0.656-0.341l-0.333,0.094l0.276,0.976L358.333,249.584z"/>
						</g>
						<g>
							<path style="fill:#FFFFFF;" d="M360.718,248.915l0.083,0.292l-1.219,0.345l-0.446-1.575l1.19-0.337l0.083,0.292l-0.828,0.235
								l0.097,0.342l0.731-0.207l0.08,0.284l-0.731,0.207l0.103,0.365L360.718,248.915z"/>
						</g>
						<g>
							<path style="fill:#FFFFFF;" d="M362.097,248.841l-0.428-0.352l-0.018,0.005l-0.317,0.09l0.124,0.438l-0.364,0.103
								l-0.446-1.575l0.681-0.193c0.421-0.119,0.746,0.025,0.846,0.378c0.067,0.236-0.003,0.443-0.183,0.589l0.497,0.406
								L362.097,248.841z M361.393,247.66l-0.297,0.084l0.156,0.549l0.297-0.084c0.223-0.063,0.306-0.199,0.258-0.37
								C361.757,247.666,361.616,247.596,361.393,247.66z"/>
						</g>
					</g>
					<g>
						<path style="fill:#FFFFFF;" d="M369.161,253.25l-21.399,6.063c-0.542,0.154-1.106-0.161-1.26-0.703l-0.016-0.057
							c-0.154-0.542,0.161-1.106,0.703-1.26l21.4-6.063c0.542-0.154,1.106,0.161,1.26,0.704l0.016,0.057
							C370.018,252.532,369.703,253.096,369.161,253.25z"/>
					</g>
					<g>
						<path style="fill:#FFFFFF;" d="M407.773,242.31l-11.015,3.121c-0.542,0.154-1.106-0.161-1.26-0.703l-0.016-0.057
							c-0.154-0.542,0.161-1.106,0.704-1.26l11.015-3.121c0.542-0.154,1.106,0.161,1.26,0.703l0.016,0.057
							C408.63,241.592,408.315,242.156,407.773,242.31z"/>
					</g>
				</g>
				<g style="opacity:0.2;">
					<g>
						<g>
							<path style="fill:#FFFFFF;" d="M402.345,200.108l-71.518,20.263c-1.401,0.397-2.216,1.855-1.819,3.257l3.635,12.831
								c5.413,1.87,11.775,0.666,16.955-2.045c6.106-3.196,11.043-8.179,16.32-12.613c5.276-4.434,11.3-8.499,18.153-9.231
								c6.467-0.69,12.813,1.662,19.192,2.926c2.061,0.408,4.229,0.668,6.376,0.684l-4.038-14.253
								C405.204,200.525,403.746,199.711,402.345,200.108z"/>
						</g>
					</g>
				</g>
			</g>
			<g>
				<path style="fill:#FF725E;" d="M318.981,136.882c1.092,2.479-0.512,5.264-3.203,5.564c-1.677,0.187-3.349-0.775-4.029-2.319
					c-1.092-2.479,0.512-5.264,3.203-5.564C316.629,134.375,318.3,135.337,318.981,136.882z"/>
			</g>
			<g>
				<path style="fill:#E0E0E0;" d="M355.168,129.584l-25.4,6.84c-0.9,0.243-1.827-0.291-2.069-1.191l-0.025-0.094
					c-0.243-0.9,0.291-1.827,1.191-2.069l25.4-6.84c0.9-0.242,1.827,0.291,2.069,1.191l0.025,0.094
					C356.602,128.415,356.068,129.342,355.168,129.584z"/>
			</g>
			<g>
				<g>
					<path style="fill:#FF725E;" d="M371.158,165.834c-0.092,0.001,0.159-1.566-0.296-4.323c-0.205-1.378-0.715-3.027-1.58-4.799
						c-0.874-1.766-2.186-3.642-4.041-5.294c-1.851-1.637-4.233-3.095-7.058-3.834c-2.807-0.72-6.027-0.893-9.18,0.02
						c-1.583,0.409-3.134,1.095-4.581,2.003c-0.745,0.426-1.41,0.982-2.104,1.511c-0.636,0.598-1.301,1.179-1.863,1.871
						c-2.367,2.661-3.869,6.21-4.214,9.966c-0.276,3.762,0.625,7.51,2.524,10.524c0.442,0.774,1.002,1.457,1.532,2.151
						c0.597,0.636,1.163,1.293,1.828,1.836c1.279,1.133,2.697,2.065,4.192,2.727c2.962,1.417,6.167,1.773,9.054,1.522
						c2.908-0.267,5.497-1.315,7.59-2.628c2.101-1.326,3.702-2.962,4.853-4.561c1.143-1.607,1.916-3.15,2.344-4.476
						C371.058,167.405,371.068,165.817,371.158,165.834c0.009,0.001,0.005,0.098-0.011,0.286c-0.022,0.218-0.051,0.494-0.086,0.837
						c-0.032,0.37-0.09,0.825-0.225,1.351c-0.117,0.529-0.237,1.145-0.486,1.807c-0.404,1.351-1.159,2.929-2.299,4.579
						c-1.148,1.642-2.759,3.328-4.891,4.702c-2.124,1.36-4.766,2.453-7.744,2.747c-2.957,0.277-6.247-0.072-9.298-1.515
						c-1.539-0.675-3-1.627-4.32-2.789c-0.685-0.557-1.27-1.23-1.885-1.884c-0.548-0.712-1.125-1.414-1.582-2.21
						c-1.96-3.098-2.895-6.961-2.609-10.835c0.353-3.867,1.908-7.523,4.348-10.258c0.581-0.71,1.265-1.308,1.922-1.921
						c0.714-0.544,1.401-1.112,2.168-1.549c1.492-0.93,3.089-1.63,4.717-2.044c3.245-0.924,6.548-0.73,9.42,0.027
						c2.89,0.777,5.317,2.288,7.19,3.977c1.879,1.704,3.193,3.632,4.056,5.439c0.855,1.814,1.342,3.495,1.519,4.894
						c0.137,0.693,0.155,1.321,0.184,1.862c0.047,0.541,0.03,0.999,0.001,1.37c-0.022,0.345-0.039,0.621-0.053,0.84
						C371.179,165.738,371.167,165.834,371.158,165.834z"/>
				</g>
				<g>
					<g>
						<g>
							<g>
								<g>
									<g>
										<g>
											<polygon style="fill:#FF725E;" points="344.32,168.405 346.312,164.677 352.803,167.671 359.504,155.793 
												363.027,157.848 354.58,173.547 											"/>
										</g>
									</g>
								</g>
							</g>
						</g>
					</g>
				</g>
			</g>
			<path style="fill:#E0E0E0;" d="M380.042,185.273l-39.944,11.317c-1.295,0.367-2.642-0.385-3.008-1.68l-0.038-0.135
				c-0.367-1.295,0.385-2.642,1.68-3.008l39.944-11.317c1.295-0.367,2.642,0.385,3.008,1.68l0.038,0.135
				C382.089,183.56,381.337,184.907,380.042,185.273z"/>
		</g>
		<g>
			<g>
				<path style="fill:#263238;" d="M435.834,178.972c-0.743-2.741-1.958-5.354-3.576-7.688c1.196-0.68,1.547-2.49,0.691-3.567
					c1.865-1.509,1.266-5.033-0.993-5.841c0.79-0.836,0.513-2.282-0.28-3.115c-0.793-0.834-1.941-1.209-3.038-1.554
					c-2.145-0.674-4.291-1.348-6.436-2.022c-0.855-2.268-3.738-3.521-5.98-2.6c-1.302-1.94-7.435-2.905-10.181-0.378
					c-10.426-9.169-16.654-8.669-25.778-5.309c-2.263,0.833-5.46,3.207-6.294,5.469c-1.961,0.417-3.871,1.072-5.674,1.947
					c-1.231,0.597-2.505,1.405-2.937,2.702c-0.432,1.298,0.568,3.054,1.915,2.821c-1.606,0.832-3.304,1.749-4.175,3.335
					c-0.871,1.585-0.421,4.019,1.306,4.557c-1.806,2.678-3.165,5.658-4.004,8.777c-0.136,0.216-0.242,0.445-0.333,0.679
					c-1.172,0.815-1.82,2.342-1.541,3.747c0.298,1.503,1.627,2.744,3.148,2.938c-1.888,0.978-2.947,3.329-2.429,5.392
					c0.519,2.062,2.565,3.632,4.691,3.6c-2.793,1.644-3.857,5.665-2.243,8.475c1.615,2.81,5.624,3.917,8.451,2.332
					c2.769,4.497,8.607,6.855,13.722,5.541c1.312-0.337,2.579-0.889,3.927-1.024c1.65-0.164,3.326,0.309,4.965,0.056
					c2.741-0.423,4.821-2.848,5.674-5.492c2.878-0.299,5.864-0.732,9.139-1.305c4.859,4.401,9.77,0.803,9.167-1.073
					c2.84-0.155,4.313,0.227,6.942-0.858c1.037-0.428,2.703-1.122,3.429-1.978c0.122-0.144,0.261-0.304,0.41-0.478
					c1.608-1.872,1.306-4.591-0.463-6.312c-0.177-0.172-0.288-0.402-0.299-0.737c0.969-0.552,2.167-0.387,3.275-0.262
					c1.108,0.125,2.355,0.151,3.191-0.588c0.835-0.739,0.658-2.486-0.45-2.612c0.66-0.901,0.719-2.2,0.144-3.157
					c0.898,0.779,2.427,0.145,2.937-0.929C436.363,181.387,436.145,180.119,435.834,178.972z"/>
				<path style="fill:#AE7461;" d="M407.238,161.988l-14.883-6.569c-5.907-1.488-10.946,5.328-12.182,11.293
					c-1.373,6.627-2.789,14.771-2.707,19.873c0.165,10.259,8.845,13.847,8.845,13.847c0.003-0.013-0.826,6.134-0.826,6.134
					c0.316,4.811,5.328,5.379,5.328,5.379c13.731,1.636,15.399-6.04,15.399-6.04l3.616-38.092
					C410.125,165.987,409.032,162.44,407.238,161.988z"/>
				<path style="fill:#263238;" d="M388.428,182.969c0.017-0.077-0.822-0.349-2.191-0.726c-0.348-0.087-0.673-0.205-0.698-0.454
					c-0.047-0.268,0.155-0.627,0.385-1.015c0.454-0.808,0.93-1.655,1.429-2.543c1.998-3.626,3.498-6.628,3.351-6.707
					c-0.147-0.079-1.885,2.796-3.883,6.422c-0.484,0.895-0.947,1.749-1.387,2.566c-0.191,0.382-0.486,0.806-0.381,1.361
					c0.058,0.278,0.29,0.506,0.508,0.6c0.217,0.101,0.415,0.133,0.589,0.169C387.541,182.916,388.411,183.047,388.428,182.969z"/>
				<path style="fill:#6F4439;" d="M386.311,200.433c0,0,5.515,0.179,12.774-2.888c0,0-2.951,6.135-13.156,5.932L386.311,200.433z"
					/>
				<path style="fill:#263238;" d="M395.86,168.045c0.083,0.396,1.491,0.414,3.087,0.841c1.605,0.395,2.848,1.057,3.111,0.75
					c0.119-0.148-0.059-0.534-0.537-0.974c-0.473-0.438-1.262-0.904-2.221-1.151c-0.96-0.246-1.875-0.218-2.5-0.062
					C396.169,167.605,395.827,167.858,395.86,168.045z"/>
				<path style="fill:#263238;" d="M382.508,166.525c0.199,0.349,1.199,0.158,2.348,0.306c1.154,0.108,2.088,0.513,2.359,0.216
					c0.12-0.146,0.012-0.482-0.37-0.841c-0.376-0.356-1.041-0.698-1.833-0.786c-0.792-0.087-1.515,0.1-1.96,0.366
					C382.601,166.051,382.422,166.356,382.508,166.525z"/>
				<path style="fill:#263238;" d="M375.173,171.115c0.249-1.57,0.9-3.128,2.094-4.178c0.654-0.575,1.451-0.984,2.043-1.622
					c1.279-1.38,1.319-3.464,1.976-5.227c0.848-2.272,2.86-4.073,5.212-4.664c1.957-0.491,4.09-0.193,5.956-0.962
					c1.379-0.568,2.494-1.679,3.904-2.165c2.746-0.947,5.665,0.699,8.006,2.419c0.301,2.02-1.113,3.606-2.475,5.128
					c-1.361,1.522-3.418,2.397-5.459,2.322c-1.583-0.058-3.387-0.592-4.604,0.423c-1.279,1.068-1.03,3.194-2.118,4.456
					c-1.556,1.803-4.597,0.765-6.759,1.763c-1.67,0.771-2.518,2.598-3.474,4.169c-0.956,1.572-2.499,3.158-4.319,2.894
					C375.041,174.286,374.925,172.684,375.173,171.115z"/>
				<path style="fill:#263238;" d="M400.086,157.926c4.607,0.377,9.138,1.657,13.262,3.746c1.229,0.622,2.489,1.385,3.104,2.617
					c0.541,1.084,0.495,2.36,0.364,3.564c-0.411,3.771-2.38,8.244-4.159,11.595l-4.989,2.364c-3.547-1.212-1.271-7.318-0.79-10.443
					c-2.426-1.358-3.934-4.202-3.697-6.972C401.235,162.865,400.058,160.402,400.086,157.926z"/>
				<path style="fill:#AE7461;" d="M407.865,180.462c0.353-2.145,3.044-2.307,4.792-1.014c0.959,0.71,1.609,1.992,1.255,4.272
					c-0.945,6.078-6.852,3.876-6.836,3.7C407.086,187.311,407.452,182.973,407.865,180.462z"/>
				<path style="fill:#6F4439;" d="M409.29,185.406c0.03-0.015,0.095,0.091,0.261,0.201c0.162,0.107,0.454,0.209,0.789,0.139
					c0.679-0.136,1.378-1.072,1.578-2.163c0.101-0.551,0.068-1.096-0.061-1.562c-0.116-0.473-0.355-0.829-0.67-0.937
					c-0.31-0.124-0.569,0.034-0.67,0.193c-0.108,0.158-0.088,0.285-0.122,0.29c-0.019,0.013-0.115-0.122-0.027-0.366
					c0.044-0.117,0.137-0.249,0.298-0.344c0.164-0.096,0.388-0.123,0.61-0.064c0.464,0.105,0.819,0.602,0.96,1.114
					c0.167,0.519,0.218,1.133,0.104,1.751c-0.229,1.219-1.034,2.267-1.952,2.385c-0.445,0.045-0.781-0.139-0.944-0.311
					C409.278,185.554,409.267,185.413,409.29,185.406z"/>
				<path style="fill:#263238;" d="M393.864,177.678c-0.123,0.694,0.364,1.37,1.086,1.511c0.721,0.141,1.406-0.305,1.529-1
					c0.122-0.694-0.364-1.371-1.085-1.512C394.672,176.536,393.987,176.984,393.864,177.678z"/>
				<path style="fill:#263238;" d="M381.635,176.309c-0.123,0.694,0.364,1.37,1.086,1.511c0.721,0.141,1.406-0.306,1.529-1
					c0.122-0.694-0.364-1.371-1.085-1.512C382.442,175.167,381.757,175.615,381.635,176.309z"/>
				<path style="fill:#263238;" d="M382.202,171.163c0.108,0.212,1.189-0.379,2.478-0.108c1.292,0.249,2.067,1.216,2.248,1.061
					c0.087-0.067,0.008-0.426-0.327-0.859c-0.329-0.431-0.946-0.912-1.75-1.074c-0.804-0.161-1.556,0.042-2.022,0.313
					C382.354,170.766,382.147,171.066,382.202,171.163z"/>
				<path style="fill:#263238;" d="M394.55,173.436c0.159,0.222,1.359-0.538,2.925-0.372c1.568,0.141,2.624,1.123,2.816,0.935
					c0.093-0.083-0.049-0.468-0.509-0.91c-0.451-0.44-1.25-0.904-2.227-1.001c-0.977-0.095-1.84,0.206-2.355,0.551
					C394.676,172.985,394.472,173.336,394.55,173.436z"/>
				<path style="fill:#6F4439;" d="M394.295,186.583c-0.086-0.908-0.905-1.699-1.817-1.721c-0.669-0.016-1.322,0.357-1.696,0.912
					c-0.374,0.556-0.477,1.272-0.331,1.926l0.014,0.143c0.524,0.747,1.546,1.115,2.416,0.839
					C393.751,188.406,394.382,187.491,394.295,186.583z"/>
				<path style="fill:#263238;" d="M389.386,187.738c0.026-0.226,1.518,0.034,2.802-1.056c1.287-1.087,1.4-2.706,1.61-2.682
					c0.097-0.004,0.227,0.405,0.127,1.08c-0.093,0.662-0.474,1.586-1.259,2.253c-0.787,0.664-1.712,0.846-2.333,0.789
					C389.699,188.07,389.359,187.839,389.386,187.738z"/>
			</g>
			<g>
				<g>
					<g>
						<g>
							<g>
								<g>
									<g>
										<g>
											<g>
												<g>
													<g>
														<g>
															<g>
																<g>
																	<g>
																		<g>
																			<g>
																				<g>
																					<g>
																						<g>
																							<path style="fill:#455A64;" d="M358.323,443.456l1.819,18.944c0,0-20.648,7.714-20.873,11.531l39.037,0.106
																								l-0.022-2.855l-1.637-9.745l-2.413-18.93L358.323,443.456z"/>
																						</g>
																					</g>
																				</g>
																			</g>
																		</g>
																	</g>
																</g>
															</g>
														</g>
													</g>
												</g>
											</g>
										</g>
									</g>
								</g>
							</g>
						</g>
					</g>
					<g>
						<g>
							<g>
								<g>
									<g>
										<g>
											<g>
												<g>
													<g>
														<g>
															<g>
																<g>
																	<g>
																		<g>
																			<g>
																				<g>
																					<g>
																						<g>
																							<g>
																								<path style="fill:#E0E0E0;" d="M371.893,459.461c0.774,0.209,1.31,1.077,1.133,1.859
																									c-0.178,0.782-1.056,1.335-1.833,1.139c-0.777-0.195-1.453-1.218-1.189-1.975
																									c0.264-0.757,1.33-1.35,2.038-0.973"/>
																							</g>
																						</g>
																					</g>
																				</g>
																			</g>
																		</g>
																	</g>
																</g>
															</g>
														</g>
													</g>
												</g>
											</g>
										</g>
									</g>
								</g>
							</g>
						</g>
					</g>
					<g>
						<g>
							<g>
								<g>
									<g>
										<g>
											<g>
												<g>
													<g>
														<g>
															<g>
																<g>
																	<g>
																		<g>
																			<g>
																				<g>
																					<g>
																						<g>
																							<path style="fill:#263238;" d="M378.307,474.037l-0.022-2.855l-37.443,0.718c0,0-1.777,0.778-1.573,2.03
																								L378.307,474.037z"/>
																						</g>
																					</g>
																				</g>
																			</g>
																		</g>
																	</g>
																</g>
															</g>
														</g>
													</g>
												</g>
											</g>
										</g>
									</g>
								</g>
							</g>
						</g>
					</g>
					<g>
						<g>
							<g>
								<g>
									<g>
										<g>
											<g>
												<g>
													<g>
														<g>
															<g>
																<g>
																	<g>
																		<g>
																			<g>
																				<g>
																					<g>
																						<g>
																							<g>
																								<path style="fill:#263238;" d="M359.494,462.198c0.007,0.195,0.983,0.281,1.944,0.906
																									c0.978,0.6,1.475,1.444,1.654,1.366c0.18-0.038-0.114-1.204-1.291-1.94
																									C360.63,461.784,359.452,462.02,359.494,462.198z"/>
																							</g>
																						</g>
																					</g>
																				</g>
																			</g>
																		</g>
																	</g>
																</g>
															</g>
														</g>
													</g>
												</g>
											</g>
										</g>
									</g>
								</g>
							</g>
						</g>
					</g>
					<g>
						<g>
							<g>
								<g>
									<g>
										<g>
											<g>
												<g>
													<g>
														<g>
															<g>
																<g>
																	<g>
																		<g>
																			<g>
																				<g>
																					<g>
																						<g>
																							<g>
																								<path style="fill:#263238;" d="M355.308,463.942c-0.044,0.189,0.801,0.519,1.466,1.342
																									c0.689,0.804,0.858,1.695,1.053,1.686c0.184,0.031,0.316-1.113-0.53-2.121
																									C356.46,463.835,355.312,463.756,355.308,463.942z"/>
																							</g>
																						</g>
																					</g>
																				</g>
																			</g>
																		</g>
																	</g>
																</g>
															</g>
														</g>
													</g>
												</g>
											</g>
										</g>
									</g>
								</g>
							</g>
						</g>
					</g>
					<g>
						<g>
							<g>
								<g>
									<g>
										<g>
											<g>
												<g>
													<g>
														<g>
															<g>
																<g>
																	<g>
																		<g>
																			<g>
																				<g>
																					<g>
																						<g>
																							<g>
																								<path style="fill:#263238;" d="M352.941,468.963c0.177,0.041,0.447-0.934-0.057-2.001
																									c-0.496-1.071-1.417-1.49-1.499-1.327c-0.11,0.161,0.484,0.733,0.884,1.615
																									C352.689,468.122,352.747,468.944,352.941,468.963z"/>
																							</g>
																						</g>
																					</g>
																				</g>
																			</g>
																		</g>
																	</g>
																</g>
															</g>
														</g>
													</g>
												</g>
											</g>
										</g>
									</g>
								</g>
							</g>
						</g>
					</g>
					<g>
						<g>
							<g>
								<g>
									<g>
										<g>
											<g>
												<g>
													<g>
														<g>
															<g>
																<g>
																	<g>
																		<g>
																			<g>
																				<g>
																					<g>
																						<g>
																							<g>
																								<path style="fill:#263238;" d="M358.11,457.643c0.082,0.178,0.977-0.094,2.079-0.022
																									c1.104,0.05,1.963,0.418,2.064,0.25c0.113-0.141-0.727-0.861-2.027-0.928
																									C358.927,456.867,358.013,457.49,358.11,457.643z"/>
																							</g>
																						</g>
																					</g>
																				</g>
																			</g>
																		</g>
																	</g>
																</g>
															</g>
														</g>
													</g>
												</g>
											</g>
										</g>
									</g>
								</g>
							</g>
						</g>
					</g>
				</g>
				<g>
					<g>
						<g>
							<g>
								<g>
									<g>
										<g>
											<g>
												<g>
													<g>
														<g>
															<g>
																<g>
																	<g>
																		<g>
																			<g>
																				<g>
																					<g>
																						<g>
																							<path style="fill:#455A64;" d="M406.295,443.992l1.673,18.622c0,0-20.332,7.454-20.575,11.202l38.35,0.34
																								l-0.004-2.805l-1.55-9.584l-2.256-18.611L406.295,443.992z"/>
																						</g>
																					</g>
																				</g>
																			</g>
																		</g>
																	</g>
																</g>
															</g>
														</g>
													</g>
												</g>
											</g>
										</g>
									</g>
								</g>
							</g>
						</g>
					</g>
					<g>
						<g>
							<g>
								<g>
									<g>
										<g>
											<g>
												<g>
													<g>
														<g>
															<g>
																<g>
																	<g>
																		<g>
																			<g>
																				<g>
																					<g>
																						<g>
																							<g>
																								<path style="fill:#E0E0E0;" d="M419.529,459.797c0.759,0.21,1.281,1.066,1.102,1.833
																									c-0.179,0.767-1.045,1.305-1.807,1.108c-0.762-0.197-1.42-1.205-1.156-1.947
																									c0.264-0.742,1.315-1.318,2.008-0.944"/>
																							</g>
																						</g>
																					</g>
																				</g>
																			</g>
																		</g>
																	</g>
																</g>
															</g>
														</g>
													</g>
												</g>
											</g>
										</g>
									</g>
								</g>
							</g>
						</g>
					</g>
					<g>
						<g>
							<g>
								<g>
									<g>
										<g>
											<g>
												<g>
													<g>
														<g>
															<g>
																<g>
																	<g>
																		<g>
																			<g>
																				<g>
																					<g>
																						<g>
																							<path style="fill:#263238;" d="M425.743,474.155l-0.004-2.805l-36.788,0.48c0,0-1.75,0.754-1.557,1.985
																								L425.743,474.155z"/>
																						</g>
																					</g>
																				</g>
																			</g>
																		</g>
																	</g>
																</g>
															</g>
														</g>
													</g>
												</g>
											</g>
										</g>
									</g>
								</g>
							</g>
						</g>
					</g>
					<g>
						<g>
							<g>
								<g>
									<g>
										<g>
											<g>
												<g>
													<g>
														<g>
															<g>
																<g>
																	<g>
																		<g>
																			<g>
																				<g>
																					<g>
																						<g>
																							<g>
																								<path style="fill:#263238;" d="M407.333,462.411c0.005,0.192,0.964,0.282,1.904,0.902
																									c0.957,0.595,1.44,1.427,1.617,1.352c0.177-0.037-0.105-1.183-1.257-1.914
																									C408.451,462.011,407.292,462.235,407.333,462.411z"/>
																							</g>
																						</g>
																					</g>
																				</g>
																			</g>
																		</g>
																	</g>
																</g>
															</g>
														</g>
													</g>
												</g>
											</g>
										</g>
									</g>
								</g>
							</g>
						</g>
					</g>
					<g>
						<g>
							<g>
								<g>
									<g>
										<g>
											<g>
												<g>
													<g>
														<g>
															<g>
																<g>
																	<g>
																		<g>
																			<g>
																				<g>
																					<g>
																						<g>
																							<g>
																								<path style="fill:#263238;" d="M403.21,464.099c-0.045,0.185,0.784,0.514,1.432,1.327
																									c0.672,0.794,0.833,1.671,1.024,1.663c0.18,0.031,0.317-1.091-0.508-2.087
																									C404.342,464.001,403.215,463.916,403.21,464.099z"/>
																							</g>
																						</g>
																					</g>
																				</g>
																			</g>
																		</g>
																	</g>
																</g>
															</g>
														</g>
													</g>
												</g>
											</g>
										</g>
									</g>
								</g>
							</g>
						</g>
					</g>
					<g>
						<g>
							<g>
								<g>
									<g>
										<g>
											<g>
												<g>
													<g>
														<g>
															<g>
																<g>
																	<g>
																		<g>
																			<g>
																				<g>
																					<g>
																						<g>
																							<g>
																								<path style="fill:#263238;" d="M400.854,469.017c0.174,0.041,0.444-0.915-0.044-1.966
																									c-0.481-1.055-1.383-1.472-1.465-1.313c-0.109,0.157,0.471,0.723,0.859,1.592
																									C400.612,468.189,400.663,468.998,400.854,469.017z"/>
																							</g>
																						</g>
																					</g>
																				</g>
																			</g>
																		</g>
																	</g>
																</g>
															</g>
														</g>
													</g>
												</g>
											</g>
										</g>
									</g>
								</g>
							</g>
						</g>
					</g>
					<g>
						<g>
							<g>
								<g>
									<g>
										<g>
											<g>
												<g>
													<g>
														<g>
															<g>
																<g>
																	<g>
																		<g>
																			<g>
																				<g>
																					<g>
																						<g>
																							<g>
																								<path style="fill:#263238;" d="M406,457.928c0.08,0.175,0.96-0.086,2.043-0.009
																									c1.084,0.056,1.926,0.422,2.026,0.258c0.112-0.138-0.709-0.851-1.986-0.924
																									C406.808,457.171,405.906,457.777,406,457.928z"/>
																							</g>
																						</g>
																					</g>
																				</g>
																			</g>
																		</g>
																	</g>
																</g>
															</g>
														</g>
													</g>
												</g>
											</g>
										</g>
									</g>
								</g>
							</g>
						</g>
					</g>
				</g>
				<g>
					<g>
						<g>
							<path style="fill:#263238;" d="M357.48,278.706c0,0-9.253,26.798-9.572,46.734c-0.319,19.935-0.638,51.636,3.51,86.604
								c4.148,34.969,6.062,49.021,6.062,49.021h21.059c0,0,2.233-21.896,1.914-41.505c-0.319-19.609-1.852-25.818,0.031-47.387
								c1.883-21.569,4.863-34.525,8-41.061c0,0,8.692-10.332,9.33-24.506c0.638-14.174-4.378-26.355-4.378-26.355L357.48,278.706z"
								/>
						</g>
					</g>
				</g>
				<g>
					<g>
						<g>
							<path style="fill:#263238;" d="M376.193,316.303c0.35,1.077,6.599,45.012,11.158,64.39
								c4.559,19.379,9.63,24.507,10.52,40.271c1.023,18.131,6.001,40.101,6.001,40.101h22.423c0,0-3.153-33.514-6.306-59.711
								c-3.153-26.197-7.708-58.495-7.007-68.185c0.701-9.689,2.452-21.655,0-35.231c-2.453-13.575-7.755-17.154-7.755-17.154
								l-19.024-0.861L376.193,316.303z"/>
						</g>
					</g>
				</g>
				<g>
					<g>
						<g>
							<g>
								<path style="fill:#455A64;" d="M397.299,291.173c0.014-0.007,0.133,0.227,0.347,0.682c0.243,0.445,0.471,1.151,0.761,2.063
									c0.519,1.843,0.862,4.617,0.74,8.031c-0.108,3.412-0.677,7.461-1.844,11.823c-0.593,2.177-1.367,4.433-2.447,6.652
									c-1.075,2.225-2.566,4.317-4.051,6.429c-3.048,4.199-4.553,8.981-5.693,13.299c-1.109,4.346-1.703,8.355-2.128,11.724
									c-0.414,3.372-0.662,6.113-0.848,8.006c-0.092,0.913-0.165,1.639-0.219,2.179c-0.055,0.498-0.091,0.759-0.107,0.758
									c-0.016-0.001-0.011-0.265,0.013-0.765c0.033-0.542,0.076-1.271,0.131-2.187c0.13-1.898,0.328-4.645,0.701-8.03
									c0.384-3.381,0.946-7.411,2.039-11.791c0.548-2.188,1.235-4.461,2.121-6.755c0.454-1.145,0.965-2.293,1.565-3.418
									c0.605-1.122,1.3-2.215,2.039-3.286c1.497-2.129,2.961-4.179,4.026-6.367c1.068-2.182,1.842-4.406,2.442-6.563
									c1.18-4.32,1.78-8.339,1.929-11.722c0.164-3.385-0.125-6.135-0.585-7.971c-0.26-0.909-0.457-1.618-0.671-2.071
									C397.375,291.429,397.285,291.181,397.299,291.173z"/>
							</g>
						</g>
					</g>
				</g>
			</g>
			<g>
				<g>
					<g>
						<path style="fill:#455A64;" d="M406.212,205.905l-17.406-1.396c0,0-19.417,15.464-23.402,35.168
							c-3.985,19.704-8.526,39.39-8.526,39.39l35.433,4.365c3.689,0.454,7.424,0.403,11.099-0.152l3.692-0.558l-3.035-12.511
							c0,0,5.614-23.669,7.809-32.59C416.638,218.262,406.212,205.905,406.212,205.905z"/>
					</g>
				</g>
				<g style="opacity:0.3;">
					<g>
						<path d="M372.831,243.551l-14.366,28.144c3.721-0.129,6.371-1.678,8.9-4.41c2.53-2.732,4.281-6.077,5.968-9.396
							c4.271-8.404,8.39-17.151,9.241-26.539C379.022,235.161,375.762,239.243,372.831,243.551z"/>
					</g>
				</g>
				<g>
					<path style="fill:#455A64;" d="M409.114,207.031c4.228,1.64,7.624,4.891,9.443,9.045c4.872,11.13,14.082,33.028,12.992,37.142
						c-1.662,6.276-7.238,8.6-11.057,7.438c-3.819-1.162-13.417-7.903-13.417-7.903l-0.863-46.848L409.114,207.031z"/>
				</g>
				<g>
					<g>
						<g>
							<path style="fill:#AE7461;" d="M317.363,231.679c1.594,0.582,1.626,0.657,1.626,0.657s-0.185-1.384-1.328-3.09
								c-0.374-0.559-1.101-2.074-1.137-2.564c-0.126-1.737,1.203-3.021,2.314-1.051c0.424,0.752,1.5,2.011,2.161,2.655
								c2.447,2.383,10.342,10.973,10.342,10.973l-6.096,7.955c0,0-7.3-0.423-11.609-1.739c-3.241-0.989-4.51-2.206-4.535-2.96
								c-0.025-0.754,1.262-1.202,1.262-1.202s-0.806-1.165-0.652-2.172c0.154-1.007,1.541-1.498,1.541-1.498
								s-0.469-0.915-0.498-1.951c-0.029-1.036,1.275-2.273,1.275-2.273s-2.153-0.808-0.956-2.676
								c0.339-0.529,1.351-0.795,3.213-0.202C315.441,230.908,317.363,231.679,317.363,231.679z"/>
						</g>
					</g>
				</g>
				<g>
					<g>
						<g>
							<g>
								<g>
									<path style="fill:#455A64;" d="M330.199,236.549c0.21,0.307,20.919,12.152,20.919,12.152s9.699-18.452,12.801-24.896
										c3.065-6.367,6.842-15.423,11.797-18.212c4.954-2.788,13.089-1.082,13.089-1.082l-3.305,24.021l-8.038,17.313
										c0,0-9.541,19.069-14.773,23.505c-4.769,4.043-12.17,2.421-15.546,0.448c-3.376-1.973-25.5-21.037-25.5-21.037
										L330.199,236.549z"/>
								</g>
							</g>
						</g>
					</g>
				</g>
				<g>
					<g>
						<path style="fill:#263238;" d="M385.5,228.806c0.015,0.007-0.057,0.204-0.208,0.573c-0.176,0.413-0.402,0.946-0.683,1.605
							c-0.607,1.388-1.503,3.388-2.648,5.843c-2.288,4.91-5.58,11.634-9.484,18.921c-1.97,3.626-3.768,7.16-5.992,10.018
							c-1.103,1.428-2.311,2.669-3.58,3.662c-1.279,0.991-2.65,1.675-3.963,2.068c-2.641,0.808-4.923,0.617-6.405,0.334
							c-0.747-0.151-1.315-0.322-1.691-0.458c-0.376-0.139-0.569-0.22-0.563-0.235c0.015-0.048,0.802,0.26,2.287,0.508
							c1.472,0.223,3.712,0.354,6.269-0.474c1.273-0.402,2.591-1.084,3.819-2.056c1.228-0.984,2.4-2.208,3.476-3.62
							c2.167-2.822,3.949-6.347,5.918-9.975c3.9-7.279,7.237-13.971,9.602-18.84c1.157-2.398,2.102-4.358,2.785-5.775
							c0.314-0.644,0.568-1.164,0.765-1.567C385.383,228.983,385.485,228.799,385.5,228.806z"/>
					</g>
				</g>
				<g>
					<g>
						<path style="fill:#263238;" d="M412.4,229.35c0.036-0.001,0.013,0.5-0.099,1.38c-0.11,0.882-0.289,2.156-0.535,3.726
							c-0.488,3.14-1.224,7.468-2.128,12.231c-0.902,4.765-1.807,9.063-2.54,12.156c-0.372,1.546-0.679,2.794-0.924,3.65
							c-0.238,0.857-0.385,1.326-0.418,1.318c-0.032-0.008,0.053-0.493,0.235-1.362c0.201-0.956,0.461-2.193,0.773-3.679
							c0.647-3.108,1.497-7.411,2.399-12.172c0.877-4.72,1.67-8.99,2.266-12.198c0.277-1.494,0.508-2.737,0.686-3.698
							C412.285,229.827,412.37,229.352,412.4,229.35z"/>
					</g>
				</g>
			</g>
			<g>
				<path style="fill:#263238;" d="M427.351,171.853c2.765,0.057,5.602,0.414,8.032,1.733c2.431,1.319,4.395,3.761,4.514,6.524
					c0.119,2.763-2.045,5.615-4.809,5.696c2.608,1.29,4.119,4.476,3.467,7.311c-0.651,2.835-3.4,5.043-6.31,5.066
					c2.964,1.437,3.085,5.992,0.968,8.515c-2.118,2.523-5.562,3.444-8.816,3.958c-2.132,3.929-6.613,6.458-11.079,6.253
					c-4.466-0.205-8.696-3.135-10.459-7.243c-3.629-0.075-6.894-3.349-6.96-6.979c-0.066-3.629,3.079-7.019,6.703-7.226
					c-0.414-1.843,0.171-3.88,1.501-5.223c1.329-1.342,3.222-2.679,6.047-2.107c0,0,3.091,0.033,4.103-2.066
					c1.012-2.099,1.652-7.161,1.652-7.161L427.351,171.853z"/>
			</g>
		</g>
	</g>
</g>
</svg>
