<?xml version="1.0" encoding="utf-8"?>
<!-- Generator: Adobe Illustrator 27.5.0, SVG Export Plug-In . SVG Version: 6.00 Build 0)  -->
<svg version="1.1" xmlns="http://www.w3.org/2000/svg" xmlns:xlink="http://www.w3.org/1999/xlink" x="0px" y="0px"
	 viewBox="0 0 750 500" style="enable-background:new 0 0 750 500;" xml:space="preserve">
<g id="BACKGROUND">
	<linearGradient id="SVGID_1_" gradientUnits="userSpaceOnUse" x1="27.9063" y1="-97.0938" x2="652.9063" y2="527.9063">
		<stop  offset="0" style="stop-color:#FFFFFF"/>
		<stop  offset="1" style="stop-color:#E2E5F4"/>
	</linearGradient>
	<rect style="fill:url(#SVGID_1_);" width="750" height="500"/>
</g>
<g id="OBJECTS">
	<g>
		<g>
			<g>
				
					<polyline style="fill:none;stroke:#7D8FD8;stroke-width:3;stroke-linecap:round;stroke-linejoin:round;stroke-miterlimit:10;" points="
					94.812,159.806 104.669,164.48 99.995,174.337 				"/>
				<path style="fill:none;stroke:#7D8FD8;stroke-width:3;stroke-linecap:round;stroke-linejoin:round;stroke-miterlimit:10;" d="
					M63.219,234.907c-3.796-14.168-2.188-29.785,5.726-43.492c7.914-13.707,20.634-22.908,34.802-26.705"/>
			</g>
			<g>
				
					<polyline style="fill:none;stroke:#7D8FD8;stroke-width:3;stroke-linecap:round;stroke-linejoin:round;stroke-miterlimit:10;" points="
					54.504,342.724 63.48,336.524 69.679,345.5 				"/>
				<path style="fill:none;stroke:#7D8FD8;stroke-width:3;stroke-linecap:round;stroke-linejoin:round;stroke-miterlimit:10;" d="
					M103.747,407.635c-14.168-3.796-26.889-12.998-34.802-26.705c-7.914-13.707-9.522-29.323-5.726-43.492"/>
			</g>
			<g>
				
					<polyline style="fill:none;stroke:#7D8FD8;stroke-width:3;stroke-linecap:round;stroke-linejoin:round;stroke-miterlimit:10;" points="
					655.188,412.54 645.331,407.866 650.005,398.009 				"/>
				<path style="fill:none;stroke:#7D8FD8;stroke-width:3;stroke-linecap:round;stroke-linejoin:round;stroke-miterlimit:10;" d="
					M686.781,337.439c3.796,14.168,2.188,29.785-5.726,43.492s-20.634,22.908-34.802,26.705"/>
			</g>
			<g>
				
					<polyline style="fill:none;stroke:#7D8FD8;stroke-width:3;stroke-linecap:round;stroke-linejoin:round;stroke-miterlimit:10;" points="
					695.496,229.622 686.52,235.822 680.321,226.846 				"/>
				<path style="fill:none;stroke:#7D8FD8;stroke-width:3;stroke-linecap:round;stroke-linejoin:round;stroke-miterlimit:10;" d="
					M646.253,164.711c14.168,3.796,26.889,12.998,34.802,26.705s9.522,29.323,5.726,43.492"/>
			</g>
		</g>
		<g>
			
				<linearGradient id="SVGID_00000034064373880958196790000005444343496455739815_" gradientUnits="userSpaceOnUse" x1="290.5007" y1="169.3734" x2="459.4993" y2="338.3719">
				<stop  offset="0" style="stop-color:#9FA8DA"/>
				<stop  offset="1" style="stop-color:#5C6BC0"/>
			</linearGradient>
			<path style="opacity:0.47;fill:url(#SVGID_00000034064373880958196790000005444343496455739815_);" d="M485.107,207.357
				c-6.019-14.231-14.635-27.01-25.608-37.983c-10.973-10.973-23.753-19.589-37.983-25.608c-14.736-6.233-30.386-9.393-46.516-9.393
				s-31.781,3.16-46.516,9.393c-14.23,6.019-27.01,14.635-37.983,25.608c-10.973,10.973-19.589,23.753-25.608,37.983
				c-6.233,14.736-9.393,30.386-9.393,46.516s3.16,31.781,9.393,46.516c6.019,14.231,14.635,27.01,25.608,37.983
				c10.973,10.973,23.753,19.589,37.983,25.608c14.736,6.233,30.386,9.393,46.516,9.393s31.781-3.16,46.516-9.393
				c14.23-6.019,27.01-14.635,37.983-25.608c10.973-10.973,19.589-23.752,25.608-37.983c6.233-14.736,9.393-30.386,9.393-46.516
				S491.34,222.092,485.107,207.357z M379.839,218.374c17.168-0.414,33.602-3.039,48.917-7.82c1.809-0.565,3.593-1.16,5.353-1.783
				c3.376,12.563,5.311,26.17,5.672,40.262h-59.943V218.374z M379.839,208.69v-64.332c15.069,1.913,29.229,12.732,40.301,30.95
				c4.423,7.277,8.152,15.403,11.137,24.157C415.79,204.969,398.122,208.203,379.839,208.69z M370.161,144.359v64.332
				c-18.283-0.487-35.95-3.721-51.439-9.225c2.985-8.754,6.714-16.88,11.137-24.157
				C340.931,157.091,355.092,146.272,370.161,144.359z M321.243,210.554c15.315,4.781,31.749,7.405,48.917,7.82v30.659h-59.943
				c0.362-14.091,2.297-27.699,5.672-40.262C317.651,209.394,319.435,209.99,321.243,210.554z M300.538,249.033h-35.251
				c0.911-20.912,7.697-40.326,18.747-56.627c6.668,4.854,14.364,9.177,22.805,12.821
				C303.066,218.901,300.913,233.715,300.538,249.033z M300.538,258.712c0.375,15.318,2.529,30.132,6.3,43.806
				c-8.441,3.644-16.137,7.967-22.805,12.821c-11.05-16.301-17.836-35.714-18.747-56.627H300.538z M310.218,258.712h59.943v30.659
				c-17.173,0.415-33.611,3.04-48.929,7.824c-1.804,0.563-3.584,1.158-5.341,1.779C312.515,286.411,310.58,272.803,310.218,258.712z
				 M370.161,299.055v64.331c-15.069-1.913-29.229-12.732-40.301-30.95c-4.423-7.277-8.152-15.403-11.137-24.157
				C334.21,302.776,351.877,299.542,370.161,299.055z M379.839,363.386v-64.331c18.301,0.486,35.961,3.717,51.441,9.218
				c-2.986,8.756-6.716,16.884-11.139,24.163C409.069,350.654,394.908,361.473,379.839,363.386z M429.113,297.303
				c-15.414-4.852-31.968-7.514-49.274-7.931v-30.659h59.943c-0.362,14.091-2.297,27.698-5.672,40.261
				C432.465,298.392,430.8,297.834,429.113,297.303z M449.462,258.712h35.251c-0.911,20.913-7.698,40.327-18.748,56.628
				c-6.669-4.855-14.363-9.177-22.804-12.822C446.934,288.845,449.087,274.03,449.462,258.712z M449.462,249.033
				c-0.375-15.318-2.529-30.132-6.3-43.806c8.441-3.644,16.137-7.967,22.805-12.821c11.05,16.301,17.836,35.714,18.747,56.627
				H449.462z M460.189,184.641c-5.869,4.266-12.571,8.039-19.908,11.261c-3.188-9.259-7.163-17.875-11.87-25.62
				c-4.635-7.626-9.818-14.144-15.476-19.475C431.58,157.691,447.859,169.497,460.189,184.641z M337.064,150.806
				c-5.658,5.331-10.841,11.849-15.476,19.475c-4.707,7.745-8.682,16.361-11.87,25.62c-7.336-3.221-14.039-6.995-19.908-11.261
				C302.141,169.497,318.42,157.691,337.064,150.806z M289.811,323.104c5.869-4.266,12.571-8.04,19.908-11.261
				c3.188,9.259,7.163,17.875,11.87,25.62c4.635,7.626,9.818,14.144,15.476,19.475C318.42,350.055,302.141,338.248,289.811,323.104z
				 M412.936,356.939c5.658-5.331,10.841-11.849,15.476-19.475c4.708-7.747,8.684-16.365,11.872-25.627
				c7.334,3.222,14.035,6.998,19.906,11.267C447.859,338.248,431.58,350.055,412.936,356.939z"/>
			<path style="opacity:0.41;fill:#C5CAE9;" d="M499.663,378.926H250.338c-5.157,0-9.338,4.18-9.338,9.337v0
				c0,5.157,4.181,9.337,9.338,9.337h70.38c5.157,0,9.337,4.181,9.337,9.337c0,5.157-4.181,9.338-9.337,9.338h-21.938
				c-5.157,0-9.337,4.181-9.337,9.337c0,5.157,4.18,9.337,9.337,9.337h15.007h18.512h112.757c5.157,0,9.337-4.18,9.337-9.337
				c0-5.157-4.181-9.337-9.337-9.337h-57.628c-5.157,0-9.338-4.181-9.338-9.338c0-5.157,4.181-9.337,9.338-9.337h112.236
				c5.157,0,9.337-4.181,9.337-9.337v0C509,383.106,504.82,378.926,499.663,378.926z"/>
			<g>
				<g>
					
						<linearGradient id="SVGID_00000138543535930355207760000001988532780386129322_" gradientUnits="userSpaceOnUse" x1="299.5851" y1="322.9592" x2="446.9177" y2="322.9592">
						<stop  offset="0" style="stop-color:#5C6BC0"/>
						<stop  offset="1" style="stop-color:#3949AB"/>
					</linearGradient>
					
						<rect x="299.585" y="272.958" style="fill:url(#SVGID_00000138543535930355207760000001988532780386129322_);" width="147.333" height="100.003"/>
					
						<linearGradient id="SVGID_00000181807255352482921170000009825661538144769971_" gradientUnits="userSpaceOnUse" x1="286.5819" y1="229.5545" x2="463.4181" y2="229.5545">
						<stop  offset="0" style="stop-color:#FFFFFF"/>
						<stop  offset="1" style="stop-color:#CCD1EC"/>
					</linearGradient>
					<polygon style="fill:url(#SVGID_00000181807255352482921170000009825661538144769971_);" points="375,205.236 286.582,253.873 
						463.418,253.873 					"/>
					
						<linearGradient id="SVGID_00000164481373603518273270000014327402822792725898_" gradientUnits="userSpaceOnUse" x1="273.4676" y1="260.2343" x2="476.5324" y2="260.2343">
						<stop  offset="0" style="stop-color:#9FA8DA"/>
						<stop  offset="1" style="stop-color:#5C6BC0"/>
					</linearGradient>
					
						<rect x="273.468" y="253.873" style="fill:url(#SVGID_00000164481373603518273270000014327402822792725898_);" width="203.065" height="12.723"/>
					
						<linearGradient id="SVGID_00000154423475747291370640000005266334980607996054_" gradientUnits="userSpaceOnUse" x1="273.4676" y1="264.7778" x2="476.5324" y2="264.7778">
						<stop  offset="0" style="stop-color:#9FA8DA"/>
						<stop  offset="1" style="stop-color:#5C6BC0"/>
					</linearGradient>
					
						<rect x="273.468" y="262.96" style="opacity:0.32;fill:url(#SVGID_00000154423475747291370640000005266334980607996054_);" width="203.065" height="3.636"/>
					
						<linearGradient id="SVGID_00000152982102712414563240000008338790856547215000_" gradientUnits="userSpaceOnUse" x1="273.4676" y1="379.3224" x2="476.5324" y2="379.3224">
						<stop  offset="0" style="stop-color:#FFFFFF"/>
						<stop  offset="1" style="stop-color:#CCD1EC"/>
					</linearGradient>
					
						<rect x="273.468" y="372.961" style="fill:url(#SVGID_00000152982102712414563240000008338790856547215000_);" width="203.065" height="12.723"/>
					
						<linearGradient id="SVGID_00000148638842601389523730000000395850884937702817_" gradientUnits="userSpaceOnUse" x1="282.554" y1="269.7768" x2="467.446" y2="269.7768">
						<stop  offset="0" style="stop-color:#FFFFFF"/>
						<stop  offset="1" style="stop-color:#CCD1EC"/>
					</linearGradient>
					
						<rect x="282.554" y="266.596" style="fill:url(#SVGID_00000148638842601389523730000000395850884937702817_);" width="184.892" height="6.362"/>
					<g>
						<g>
							
								<linearGradient id="SVGID_00000163058359561521551200000013001965913726214303_" gradientUnits="userSpaceOnUse" x1="287.5538" y1="277.0495" x2="318.6108" y2="277.0495">
								<stop  offset="0" style="stop-color:#9FA8DA"/>
								<stop  offset="1" style="stop-color:#5C6BC0"/>
							</linearGradient>
							
								<rect x="287.554" y="272.958" style="fill:url(#SVGID_00000163058359561521551200000013001965913726214303_);" width="31.057" height="8.184"/>
							
								<linearGradient id="SVGID_00000097473818991408880490000009626340918345530037_" gradientUnits="userSpaceOnUse" x1="287.5538" y1="368.8689" x2="318.6108" y2="368.8689">
								<stop  offset="0" style="stop-color:#9FA8DA"/>
								<stop  offset="1" style="stop-color:#5C6BC0"/>
							</linearGradient>
							
								<rect x="287.554" y="364.777" style="fill:url(#SVGID_00000097473818991408880490000009626340918345530037_);" width="31.057" height="8.184"/>
							
								<linearGradient id="SVGID_00000168831169141211567460000018230104177545677441_" gradientUnits="userSpaceOnUse" x1="292.2291" y1="322.9592" x2="313.9355" y2="322.9592">
								<stop  offset="0" style="stop-color:#FFFFFF"/>
								<stop  offset="1" style="stop-color:#CCD1EC"/>
							</linearGradient>
							
								<rect x="292.229" y="281.141" style="fill:url(#SVGID_00000168831169141211567460000018230104177545677441_);" width="21.706" height="83.636"/>
							
								<linearGradient id="SVGID_00000045609153588957038070000014622614265697768607_" gradientUnits="userSpaceOnUse" x1="310.6564" y1="142.9607" x2="310.6564" y2="280.5778">
								<stop  offset="0" style="stop-color:#FFFFFF"/>
								<stop  offset="1" style="stop-color:#CCD1EC"/>
							</linearGradient>
							
								<rect x="307.377" y="281.141" style="opacity:0.76;fill:url(#SVGID_00000045609153588957038070000014622614265697768607_);" width="6.558" height="83.636"/>
						</g>
						<g>
							
								<linearGradient id="SVGID_00000183946251917121275480000001627496312775388053_" gradientUnits="userSpaceOnUse" x1="335.4989" y1="277.0495" x2="366.5559" y2="277.0495">
								<stop  offset="0" style="stop-color:#9FA8DA"/>
								<stop  offset="1" style="stop-color:#5C6BC0"/>
							</linearGradient>
							
								<rect x="335.499" y="272.958" style="fill:url(#SVGID_00000183946251917121275480000001627496312775388053_);" width="31.057" height="8.184"/>
							
								<linearGradient id="SVGID_00000052808668219182614400000001487635784249348285_" gradientUnits="userSpaceOnUse" x1="335.4989" y1="368.8689" x2="366.5559" y2="368.8689">
								<stop  offset="0" style="stop-color:#9FA8DA"/>
								<stop  offset="1" style="stop-color:#5C6BC0"/>
							</linearGradient>
							
								<rect x="335.499" y="364.777" style="fill:url(#SVGID_00000052808668219182614400000001487635784249348285_);" width="31.057" height="8.184"/>
							
								<linearGradient id="SVGID_00000067959316260808074480000010709186019565752964_" gradientUnits="userSpaceOnUse" x1="340.1742" y1="322.9592" x2="361.8806" y2="322.9592">
								<stop  offset="0" style="stop-color:#FFFFFF"/>
								<stop  offset="1" style="stop-color:#CCD1EC"/>
							</linearGradient>
							
								<rect x="340.174" y="281.141" style="fill:url(#SVGID_00000067959316260808074480000010709186019565752964_);" width="21.706" height="83.636"/>
							
								<linearGradient id="SVGID_00000052085385550924083610000010041388567266846854_" gradientUnits="userSpaceOnUse" x1="358.6015" y1="142.9607" x2="358.6015" y2="280.5778">
								<stop  offset="0" style="stop-color:#FFFFFF"/>
								<stop  offset="1" style="stop-color:#CCD1EC"/>
							</linearGradient>
							
								<rect x="355.322" y="281.141" style="opacity:0.76;fill:url(#SVGID_00000052085385550924083610000010041388567266846854_);" width="6.558" height="83.636"/>
						</g>
						<g>
							
								<linearGradient id="SVGID_00000052812403029149523960000006583600234699248310_" gradientUnits="userSpaceOnUse" x1="383.4441" y1="277.0495" x2="414.5011" y2="277.0495">
								<stop  offset="0" style="stop-color:#9FA8DA"/>
								<stop  offset="1" style="stop-color:#5C6BC0"/>
							</linearGradient>
							
								<rect x="383.444" y="272.958" style="fill:url(#SVGID_00000052812403029149523960000006583600234699248310_);" width="31.057" height="8.184"/>
							
								<linearGradient id="SVGID_00000105398295746335385810000016221991631952481209_" gradientUnits="userSpaceOnUse" x1="383.4441" y1="368.8689" x2="414.5011" y2="368.8689">
								<stop  offset="0" style="stop-color:#9FA8DA"/>
								<stop  offset="1" style="stop-color:#5C6BC0"/>
							</linearGradient>
							
								<rect x="383.444" y="364.777" style="fill:url(#SVGID_00000105398295746335385810000016221991631952481209_);" width="31.057" height="8.184"/>
							
								<linearGradient id="SVGID_00000025435108255953419730000011492666038925939849_" gradientUnits="userSpaceOnUse" x1="388.1194" y1="322.9592" x2="409.8258" y2="322.9592">
								<stop  offset="0" style="stop-color:#FFFFFF"/>
								<stop  offset="1" style="stop-color:#CCD1EC"/>
							</linearGradient>
							
								<rect x="388.119" y="281.141" style="fill:url(#SVGID_00000025435108255953419730000011492666038925939849_);" width="21.706" height="83.636"/>
							
								<linearGradient id="SVGID_00000181797984052548576610000016119537851907734418_" gradientUnits="userSpaceOnUse" x1="406.5467" y1="142.9607" x2="406.5467" y2="280.5778">
								<stop  offset="0" style="stop-color:#FFFFFF"/>
								<stop  offset="1" style="stop-color:#CCD1EC"/>
							</linearGradient>
							
								<rect x="403.268" y="281.141" style="opacity:0.76;fill:url(#SVGID_00000181797984052548576610000016119537851907734418_);" width="6.558" height="83.636"/>
						</g>
						<g>
							
								<linearGradient id="SVGID_00000157303147379253570080000016147939922177631151_" gradientUnits="userSpaceOnUse" x1="431.3892" y1="277.0495" x2="462.4462" y2="277.0495">
								<stop  offset="0" style="stop-color:#9FA8DA"/>
								<stop  offset="1" style="stop-color:#5C6BC0"/>
							</linearGradient>
							
								<rect x="431.389" y="272.958" style="fill:url(#SVGID_00000157303147379253570080000016147939922177631151_);" width="31.057" height="8.184"/>
							
								<linearGradient id="SVGID_00000061460869776669073410000017049037919429776547_" gradientUnits="userSpaceOnUse" x1="431.3892" y1="368.8689" x2="462.4462" y2="368.8689">
								<stop  offset="0" style="stop-color:#9FA8DA"/>
								<stop  offset="1" style="stop-color:#5C6BC0"/>
							</linearGradient>
							
								<rect x="431.389" y="364.777" style="fill:url(#SVGID_00000061460869776669073410000017049037919429776547_);" width="31.057" height="8.184"/>
							
								<linearGradient id="SVGID_00000084510135984683544090000014095357468146329526_" gradientUnits="userSpaceOnUse" x1="436.0645" y1="322.9592" x2="457.7709" y2="322.9592">
								<stop  offset="0" style="stop-color:#FFFFFF"/>
								<stop  offset="1" style="stop-color:#CCD1EC"/>
							</linearGradient>
							
								<rect x="436.065" y="281.141" style="fill:url(#SVGID_00000084510135984683544090000014095357468146329526_);" width="21.706" height="83.636"/>
							
								<linearGradient id="SVGID_00000124869983060995283260000010637172155352228247_" gradientUnits="userSpaceOnUse" x1="454.4918" y1="142.9607" x2="454.4918" y2="280.5778">
								<stop  offset="0" style="stop-color:#FFFFFF"/>
								<stop  offset="1" style="stop-color:#CCD1EC"/>
							</linearGradient>
							
								<rect x="451.213" y="281.141" style="opacity:0.76;fill:url(#SVGID_00000124869983060995283260000010637172155352228247_);" width="6.558" height="83.636"/>
						</g>
					</g>
					
						<linearGradient id="SVGID_00000160177323621554326970000013884840902664995460_" gradientUnits="userSpaceOnUse" x1="324.6823" y1="230.4461" x2="425.3177" y2="230.4461">
						<stop  offset="0" style="stop-color:#9FA8DA"/>
						<stop  offset="1" style="stop-color:#5C6BC0"/>
					</linearGradient>
					<polygon style="fill:url(#SVGID_00000160177323621554326970000013884840902664995460_);" points="324.682,241.329 
						324.682,247.241 425.318,247.241 425.318,241.329 375,213.651 					"/>
				</g>
				
					<linearGradient id="SVGID_00000088100851312891677080000001909327384937152161_" gradientUnits="userSpaceOnUse" x1="324.6823" y1="244.2853" x2="425.3177" y2="244.2853">
					<stop  offset="0" style="stop-color:#9FA8DA"/>
					<stop  offset="1" style="stop-color:#5C6BC0"/>
				</linearGradient>
				
					<rect x="324.682" y="241.329" style="opacity:0.32;fill:url(#SVGID_00000088100851312891677080000001909327384937152161_);" width="100.635" height="5.912"/>
			</g>
		</g>
		<g>
			<g>
				<g>
					<g>
						<path style="fill:#7D8FD8;" d="M586.148,451.18l39.277-22.677c5.171-2.986,8.357-8.504,8.357-14.475v-45.353
							c0-5.971-3.186-11.489-8.357-14.475l-39.277-22.677c-5.171-2.986-11.543-2.986-16.714,0L530.157,354.2
							c-5.171,2.986-8.357,8.504-8.357,14.475v45.353c0,5.971,3.186,11.489,8.357,14.475l39.277,22.677
							C574.605,454.166,580.977,454.166,586.148,451.18z"/>
					</g>
					<g>
						
							<linearGradient id="SVGID_00000172401899666869143770000008210503687899088284_" gradientUnits="userSpaceOnUse" x1="538.5154" y1="352.0764" x2="617.0665" y2="430.6274">
							<stop  offset="0" style="stop-color:#CCD1EC"/>
							<stop  offset="1" style="stop-color:#FFFFFF"/>
						</linearGradient>
						<path style="fill:url(#SVGID_00000172401899666869143770000008210503687899088284_);" d="M572.528,335.63l-40.361,23.303
							c-3.257,1.88-5.263,5.355-5.263,9.116v46.605c0,3.761,2.006,7.236,5.263,9.116l40.361,23.303c3.257,1.88,7.27,1.88,10.526,0
							l40.361-23.303c3.257-1.88,5.263-5.355,5.263-9.116v-46.605c0-3.761-2.006-7.236-5.263-9.116l-40.361-23.303
							C579.797,333.75,575.785,333.75,572.528,335.63z"/>
					</g>
				</g>
				<g>
					<g>
						<g>
							<g>
								
									<linearGradient id="SVGID_00000085242542044306960480000012324984383185515178_" gradientUnits="userSpaceOnUse" x1="566.7992" y1="405.0474" x2="608.3156" y2="405.0474">
									<stop  offset="0.0104" style="stop-color:#FFA000"/>
									<stop  offset="1" style="stop-color:#FF7D00"/>
								</linearGradient>
								<path style="fill:url(#SVGID_00000085242542044306960480000012324984383185515178_);" d="M607.241,401.509
									c-2.755-1.67-10.524-2.875-19.684-2.875c-9.16,0-16.929,1.204-19.684,2.875h-1.074v5.739c0,2.326,9.294,4.212,20.758,4.212
									c11.464,0,20.758-1.886,20.758-4.212v-5.739H607.241z"/>
								<path style="opacity:0.3;fill:#FFA000;" d="M569.847,409.446c1.142,0.378,2.572,0.716,4.225,1.003v-10.803
									c-1.655,0.287-3.082,0.627-4.225,1.006V409.446z"/>
								<path style="opacity:0.3;fill:#FFA000;" d="M600.718,410.505c1.637-0.273,3.062-0.596,4.225-0.957v-9.001
									c-1.162-0.361-2.588-0.684-4.225-0.957V410.505z"/>
								<path style="opacity:0.3;fill:#FFA000;" d="M576.34,410.791c0.751,0.098,1.534,0.187,2.347,0.265v-12.019
									c-0.813,0.078-1.596,0.167-2.347,0.265V410.791z"/>
								<path style="opacity:0.3;fill:#FFA000;" d="M597.463,410.95c0.818-0.09,1.6-0.192,2.347-0.303v-11.2
									c-0.745-0.111-1.531-0.211-2.347-0.302V410.95z"/>
								<path style="opacity:0.3;fill:#FFA000;" d="M579.861,411.16c0.462,0.037,0.931,0.072,1.408,0.103v-12.227h-1.408V411.16z"/>
								
									<linearGradient id="SVGID_00000120539470750190634290000003145988976723256989_" gradientUnits="userSpaceOnUse" x1="576.9647" y1="390.9167" x2="598.15" y2="412.102">
									<stop  offset="0" style="stop-color:#FFD54F"/>
									<stop  offset="1" style="stop-color:#FF9100"/>
								</linearGradient>
								
									<ellipse style="fill:url(#SVGID_00000120539470750190634290000003145988976723256989_);" cx="587.557" cy="401.509" rx="20.758" ry="4.212"/>
							</g>
						</g>
						<g>
							<g>
								
									<linearGradient id="SVGID_00000008858757004481646920000017188205656218990004_" gradientUnits="userSpaceOnUse" x1="566.7992" y1="395.9672" x2="608.3156" y2="395.9672">
									<stop  offset="0.0104" style="stop-color:#FFA000"/>
									<stop  offset="1" style="stop-color:#FF7D00"/>
								</linearGradient>
								<path style="fill:url(#SVGID_00000008858757004481646920000017188205656218990004_);" d="M607.241,392.429
									c-2.755-1.67-10.524-2.875-19.684-2.875c-9.16,0-16.929,1.204-19.684,2.875h-1.074v5.739c0,2.326,9.294,4.212,20.758,4.212
									c11.464,0,20.758-1.886,20.758-4.212v-5.739H607.241z"/>
								<path style="opacity:0.3;fill:#FFA000;" d="M569.847,400.365c1.142,0.378,2.572,0.716,4.225,1.003v-10.803
									c-1.655,0.287-3.082,0.627-4.225,1.006V400.365z"/>
								<path style="opacity:0.3;fill:#FFA000;" d="M600.718,401.425c1.637-0.273,3.062-0.596,4.225-0.957v-9.001
									c-1.162-0.361-2.588-0.684-4.225-0.957V401.425z"/>
								<path style="opacity:0.3;fill:#FFA000;" d="M576.34,401.711c0.751,0.098,1.534,0.187,2.347,0.265v-12.019
									c-0.813,0.078-1.596,0.167-2.347,0.265V401.711z"/>
								<path style="opacity:0.3;fill:#FFA000;" d="M597.463,401.87c0.818-0.09,1.6-0.192,2.347-0.303v-11.2
									c-0.745-0.111-1.531-0.211-2.347-0.302V401.87z"/>
								<path style="opacity:0.3;fill:#FFA000;" d="M579.861,402.08c0.462,0.037,0.931,0.072,1.408,0.103v-12.227h-1.408V402.08z"/>
								
									<linearGradient id="SVGID_00000155843480838536951920000016174147519046967197_" gradientUnits="userSpaceOnUse" x1="576.9647" y1="381.8365" x2="598.15" y2="403.0218">
									<stop  offset="0" style="stop-color:#FFD54F"/>
									<stop  offset="1" style="stop-color:#FF9100"/>
								</linearGradient>
								
									<ellipse style="fill:url(#SVGID_00000155843480838536951920000016174147519046967197_);" cx="587.557" cy="392.429" rx="20.758" ry="4.212"/>
							</g>
						</g>
						<g>
							<g>
								
									<linearGradient id="SVGID_00000126283595373271323940000013934294899285429675_" gradientUnits="userSpaceOnUse" x1="566.7992" y1="386.887" x2="608.3156" y2="386.887">
									<stop  offset="0.0104" style="stop-color:#FFA000"/>
									<stop  offset="1" style="stop-color:#FF7D00"/>
								</linearGradient>
								<path style="fill:url(#SVGID_00000126283595373271323940000013934294899285429675_);" d="M607.241,383.349
									c-2.755-1.67-10.524-2.875-19.684-2.875c-9.16,0-16.929,1.204-19.684,2.875h-1.074v5.739c0,2.326,9.294,4.212,20.758,4.212
									c11.464,0,20.758-1.886,20.758-4.212v-5.739H607.241z"/>
								<path style="opacity:0.3;fill:#FFA000;" d="M569.847,391.285c1.142,0.378,2.572,0.716,4.225,1.003v-10.803
									c-1.655,0.288-3.082,0.627-4.225,1.006V391.285z"/>
								<path style="opacity:0.3;fill:#FFA000;" d="M600.718,392.345c1.637-0.273,3.062-0.596,4.225-0.957v-9.001
									c-1.162-0.361-2.588-0.684-4.225-0.957V392.345z"/>
								<path style="opacity:0.3;fill:#FFA000;" d="M576.34,392.631c0.751,0.098,1.534,0.187,2.347,0.265v-12.019
									c-0.813,0.078-1.596,0.167-2.347,0.265V392.631z"/>
								<path style="opacity:0.3;fill:#FFA000;" d="M597.463,392.79c0.818-0.09,1.6-0.192,2.347-0.303v-11.2
									c-0.745-0.111-1.531-0.211-2.347-0.302V392.79z"/>
								<path style="opacity:0.3;fill:#FFA000;" d="M579.861,392.999c0.462,0.037,0.931,0.072,1.408,0.103v-12.227h-1.408V392.999z"
									/>
								
									<linearGradient id="SVGID_00000164478325475131077630000016633503394136242562_" gradientUnits="userSpaceOnUse" x1="576.9647" y1="372.7563" x2="598.15" y2="393.9416">
									<stop  offset="0" style="stop-color:#FFD54F"/>
									<stop  offset="1" style="stop-color:#FF9100"/>
								</linearGradient>
								
									<ellipse style="fill:url(#SVGID_00000164478325475131077630000016633503394136242562_);" cx="587.557" cy="383.349" rx="20.758" ry="4.212"/>
							</g>
						</g>
						<g>
							<g>
								
									<linearGradient id="SVGID_00000007406635713415120480000017356000035815846832_" gradientUnits="userSpaceOnUse" x1="566.7992" y1="377.8068" x2="608.3156" y2="377.8068">
									<stop  offset="0.0104" style="stop-color:#FFA000"/>
									<stop  offset="1" style="stop-color:#FF7D00"/>
								</linearGradient>
								<path style="fill:url(#SVGID_00000007406635713415120480000017356000035815846832_);" d="M607.241,374.269
									c-2.755-1.67-10.524-2.875-19.684-2.875c-9.16,0-16.929,1.204-19.684,2.875h-1.074v5.739c0,2.326,9.294,4.212,20.758,4.212
									c11.464,0,20.758-1.886,20.758-4.212v-5.739H607.241z"/>
								<path style="opacity:0.3;fill:#FFA000;" d="M569.847,382.205c1.142,0.378,2.572,0.716,4.225,1.003v-10.803
									c-1.655,0.288-3.082,0.627-4.225,1.006V382.205z"/>
								<path style="opacity:0.3;fill:#FFA000;" d="M600.718,383.265c1.637-0.273,3.062-0.596,4.225-0.957v-9.001
									c-1.162-0.361-2.588-0.684-4.225-0.957V383.265z"/>
								<path style="opacity:0.3;fill:#FFA000;" d="M576.34,383.551c0.751,0.098,1.534,0.187,2.347,0.265v-12.019
									c-0.813,0.078-1.596,0.167-2.347,0.265V383.551z"/>
								<path style="opacity:0.3;fill:#FFA000;" d="M597.463,383.71c0.818-0.09,1.6-0.192,2.347-0.303v-11.2
									c-0.745-0.111-1.531-0.211-2.347-0.302V383.71z"/>
								<path style="opacity:0.3;fill:#FFA000;" d="M579.861,383.919c0.462,0.037,0.931,0.072,1.408,0.103v-12.227h-1.408V383.919z"
									/>
								
									<linearGradient id="SVGID_00000077323117219097397850000015072636033830766735_" gradientUnits="userSpaceOnUse" x1="576.9647" y1="363.6761" x2="598.15" y2="384.8614">
									<stop  offset="0" style="stop-color:#FFD54F"/>
									<stop  offset="1" style="stop-color:#FF9100"/>
								</linearGradient>
								
									<ellipse style="fill:url(#SVGID_00000077323117219097397850000015072636033830766735_);" cx="587.557" cy="374.269" rx="20.758" ry="4.212"/>
							</g>
						</g>
						<g>
							<g>
								
									<linearGradient id="SVGID_00000142890577051307649000000010100315376013308066_" gradientUnits="userSpaceOnUse" x1="566.7992" y1="368.7266" x2="608.3156" y2="368.7266">
									<stop  offset="0.0104" style="stop-color:#FFA000"/>
									<stop  offset="1" style="stop-color:#FF7D00"/>
								</linearGradient>
								<path style="fill:url(#SVGID_00000142890577051307649000000010100315376013308066_);" d="M607.241,365.189
									c-2.755-1.67-10.524-2.875-19.684-2.875c-9.16,0-16.929,1.204-19.684,2.875h-1.074v5.739c0,2.326,9.294,4.212,20.758,4.212
									c11.464,0,20.758-1.886,20.758-4.212v-5.739H607.241z"/>
								<path style="opacity:0.3;fill:#FFA000;" d="M569.847,373.125c1.142,0.378,2.572,0.716,4.225,1.003v-10.803
									c-1.655,0.288-3.082,0.627-4.225,1.006V373.125z"/>
								<path style="opacity:0.3;fill:#FFA000;" d="M600.718,374.184c1.637-0.273,3.062-0.596,4.225-0.957v-9.001
									c-1.162-0.361-2.588-0.684-4.225-0.957V374.184z"/>
								<path style="opacity:0.3;fill:#FFA000;" d="M576.34,374.471c0.751,0.098,1.534,0.187,2.347,0.265v-12.019
									c-0.813,0.078-1.596,0.167-2.347,0.265V374.471z"/>
								<path style="opacity:0.3;fill:#FFA000;" d="M597.463,374.63c0.818-0.09,1.6-0.192,2.347-0.303v-11.2
									c-0.745-0.111-1.531-0.211-2.347-0.302V374.63z"/>
								<path style="opacity:0.3;fill:#FFA000;" d="M579.861,374.839c0.462,0.037,0.931,0.072,1.408,0.103v-12.227h-1.408V374.839z"
									/>
								
									<linearGradient id="SVGID_00000168075140307190049520000006314374759670298798_" gradientUnits="userSpaceOnUse" x1="576.9647" y1="354.5959" x2="598.15" y2="375.7812">
									<stop  offset="0" style="stop-color:#FFD54F"/>
									<stop  offset="1" style="stop-color:#FF9100"/>
								</linearGradient>
								
									<ellipse style="fill:url(#SVGID_00000168075140307190049520000006314374759670298798_);" cx="587.557" cy="365.189" rx="20.758" ry="4.212"/>
							</g>
						</g>
					</g>
					<g>
						<circle style="fill:#FDD835;" cx="566.799" cy="396.641" r="25.086"/>
						
							<linearGradient id="SVGID_00000147925412243771322200000014988770548271171238_" gradientUnits="userSpaceOnUse" x1="202.0872" y1="31.9288" x2="250.7465" y2="80.5881" gradientTransform="matrix(0 -1 -1 0 614.069 614.0689)">
							<stop  offset="0" style="stop-color:#FF9100"/>
							<stop  offset="1" style="stop-color:#FFD54F"/>
						</linearGradient>
						
							<circle style="fill:url(#SVGID_00000147925412243771322200000014988770548271171238_);" cx="566.799" cy="396.641" r="21.695"/>
						
							<linearGradient id="SVGID_00000063635289171198334520000003017358692345593480_" gradientUnits="userSpaceOnUse" x1="202.0872" y1="31.9288" x2="228.6085" y2="58.4501" gradientTransform="matrix(0 -1 -1 0 614.069 614.0689)">
							<stop  offset="0" style="stop-color:#FF9100"/>
							<stop  offset="1" style="stop-color:#FFD54F"/>
						</linearGradient>
						<path style="opacity:0.4;fill:url(#SVGID_00000063635289171198334520000003017358692345593480_);" d="M565.469,415.675
							c11.247,0,20.365-9.118,20.365-20.365c0-11.028-8.766-20.008-19.711-20.353c0.225-0.007,0.45-0.012,0.677-0.012
							c11.982,0,21.695,9.713,21.695,21.695c0,11.982-9.713,21.695-21.695,21.695c-11.982,0-21.695-9.713-21.695-21.695
							c0-0.227,0.005-0.452,0.012-0.677C545.461,406.908,554.44,415.675,565.469,415.675z"/>
						<g>
							<g>
								
									<linearGradient id="SVGID_00000026853958047876220720000006509387009071559047_" gradientUnits="userSpaceOnUse" x1="559.7951" y1="389.6223" x2="573.7891" y2="403.6164">
									<stop  offset="0" style="stop-color:#FFFFFF"/>
									<stop  offset="1" style="stop-color:#CCD1EC"/>
								</linearGradient>
								<path style="fill:url(#SVGID_00000026853958047876220720000006509387009071559047_);" d="M565.539,409.403v-2.122
									c-1.785-0.209-3.062-0.835-3.832-1.88c-0.769-1.044-1.154-2.564-1.154-4.558v-0.783h4.957v0.598
									c0,1.462,0.46,2.193,1.382,2.193c0.399,0,0.691-0.123,0.876-0.37c0.185-0.247,0.278-0.536,0.278-0.869
									c0-0.589-0.299-1.187-0.897-1.795l-4.088-4.116c-1.5-1.5-2.25-3.129-2.25-4.885c0-0.949,0.216-1.787,0.648-2.514
									c0.432-0.726,1.006-1.32,1.723-1.78c0.717-0.46,1.503-0.767,2.357-0.919v-1.723h2.464v1.681
									c1.624,0.209,2.858,0.878,3.703,2.008c0.845,1.13,1.268,2.626,1.268,4.487h-5.085v-0.926c0-0.408-0.109-0.722-0.328-0.94
									c-0.219-0.218-0.508-0.328-0.869-0.328c-0.399,0-0.698,0.1-0.897,0.299c-0.199,0.199-0.299,0.465-0.299,0.798
									c0,0.475,0.47,1.177,1.41,2.108l3.988,3.931c0.589,0.579,1.094,1.282,1.517,2.108c0.422,0.826,0.634,1.761,0.634,2.806
									c0,1.567-0.48,2.818-1.439,3.753c-0.959,0.935-2.16,1.484-3.604,1.645v2.094H565.539z"/>
							</g>
						</g>
						<path style="opacity:0.29;fill:#FFFFFF;" d="M566.799,396.641c6.411-6.411,9.546-14.857,9.409-23.26
							c-2.906-1.177-6.081-1.826-9.409-1.826c-13.855,0-25.086,11.231-25.086,25.086c0,3.328,0.65,6.503,1.826,9.409
							C551.942,406.187,560.388,403.052,566.799,396.641z"/>
					</g>
				</g>
			</g>
			<g>
				<g>
					<g>
						<path style="fill:#7D8FD8;" d="M180.566,451.18l39.277-22.677c5.171-2.986,8.357-8.504,8.357-14.475v-45.353
							c0-5.971-3.186-11.489-8.357-14.475l-39.277-22.677c-5.171-2.986-11.543-2.986-16.714,0L124.575,354.2
							c-5.171,2.986-8.357,8.504-8.357,14.475v45.353c0,5.971,3.186,11.489,8.357,14.475l39.277,22.677
							C169.023,454.166,175.395,454.166,180.566,451.18z"/>
					</g>
					<g>
						
							<linearGradient id="SVGID_00000098183823327489265890000003426231801186745480_" gradientUnits="userSpaceOnUse" x1="132.9336" y1="352.0764" x2="211.4846" y2="430.6274">
							<stop  offset="0" style="stop-color:#CCD1EC"/>
							<stop  offset="1" style="stop-color:#FFFFFF"/>
						</linearGradient>
						<path style="fill:url(#SVGID_00000098183823327489265890000003426231801186745480_);" d="M166.946,335.63l-40.361,23.303
							c-3.257,1.88-5.263,5.355-5.263,9.116v46.605c0,3.761,2.006,7.236,5.263,9.116l40.361,23.303c3.257,1.88,7.27,1.88,10.526,0
							l40.361-23.303c3.257-1.88,5.263-5.355,5.263-9.116v-46.605c0-3.761-2.006-7.236-5.263-9.116l-40.361-23.303
							C174.215,333.75,170.203,333.75,166.946,335.63z"/>
					</g>
				</g>
				<g>
					<g>
						
							<linearGradient id="SVGID_00000145739490650546686520000006671446833221880496_" gradientUnits="userSpaceOnUse" x1="132.9355" y1="378.254" x2="191.0324" y2="413.0445">
							<stop  offset="0" style="stop-color:#5C6BC0"/>
							<stop  offset="1" style="stop-color:#3949AB"/>
						</linearGradient>
						<path style="fill:url(#SVGID_00000145739490650546686520000006671446833221880496_);" d="M186.744,412.467h-51.427
							c-1.164,0-2.108-0.944-2.108-2.108v-30.561c0-1.164,0.944-2.108,2.108-2.108h51.427c1.164,0,2.108,0.944,2.108,2.108v30.561
							C188.852,411.523,187.908,412.467,186.744,412.467z"/>
						
							<linearGradient id="SVGID_00000031175644804854130230000013971088396822002570_" gradientUnits="userSpaceOnUse" x1="153.111" y1="412.158" x2="153.111" y2="378.1466">
							<stop  offset="0" style="stop-color:#000000"/>
							<stop  offset="0.0889" style="stop-color:#070707"/>
							<stop  offset="0.2165" style="stop-color:#1A1A1A"/>
							<stop  offset="0.3674" style="stop-color:#393939"/>
							<stop  offset="0.5361" style="stop-color:#646464"/>
							<stop  offset="0.7198" style="stop-color:#9C9C9C"/>
							<stop  offset="0.913" style="stop-color:#DFDFDF"/>
							<stop  offset="1" style="stop-color:#FFFFFF"/>
						</linearGradient>
						<path style="opacity:0.11;fill:url(#SVGID_00000031175644804854130230000013971088396822002570_);" d="M135.317,377.69
							c-1.164,0-2.108,0.944-2.108,2.108v30.561c0,1.164,0.944,2.108,2.108,2.108h2.919l34.777-34.777H135.317z"/>
						<g>
							<g>
								<g>
									<g>
										<g>
											<path style="fill:#FFFFFF;" d="M181.979,392.251c-0.077,0-0.155-0.03-0.214-0.089c-0.118-0.118-0.118-0.309,0-0.427
												c0.656-0.656,1.017-1.529,1.017-2.459s-0.361-1.803-1.017-2.459c-0.118-0.118-0.118-0.309,0-0.427
												c0.118-0.118,0.309-0.118,0.427,0c0.77,0.77,1.195,1.795,1.195,2.886c0,1.091-0.424,2.116-1.195,2.886
												C182.134,392.222,182.057,392.251,181.979,392.251z"/>
										</g>
									</g>
									<g>
										<g>
											<path style="fill:#FFFFFF;" d="M181.089,391.36c-0.077,0-0.155-0.03-0.214-0.089c-0.118-0.118-0.118-0.31,0-0.427
												c0.418-0.418,0.649-0.975,0.649-1.568c0-0.593-0.23-1.15-0.649-1.568c-0.118-0.118-0.118-0.309,0-0.427
												c0.118-0.118,0.309-0.118,0.427,0c0.533,0.533,0.826,1.241,0.826,1.995c0,0.754-0.293,1.463-0.826,1.995
												C181.243,391.331,181.166,391.36,181.089,391.36z"/>
										</g>
									</g>
									<g>
										<g>
											<path style="fill:#FFFFFF;" d="M180.198,390.47c-0.077,0-0.155-0.03-0.214-0.089c-0.118-0.118-0.118-0.309,0-0.427
												c0.181-0.181,0.28-0.421,0.28-0.677s-0.099-0.496-0.28-0.677c-0.118-0.118-0.118-0.309,0-0.427
												c0.118-0.118,0.309-0.118,0.427,0c0.295,0.295,0.457,0.687,0.457,1.105c0,0.418-0.162,0.81-0.457,1.105
												C180.352,390.44,180.275,390.47,180.198,390.47z"/>
										</g>
									</g>
								</g>
								<g>
									<g>
										<circle style="fill:#FFFFFF;" cx="179.307" cy="389.276" r="0.403"/>
									</g>
								</g>
							</g>
							<g>
								<g>
									<g>
										<g>
											<path style="fill:#FFFFFF;" d="M181.122,392.1c-0.077,0-0.155-0.03-0.214-0.089c-0.118-0.118-0.118-0.309,0-0.427
												c0.656-0.656,1.017-1.529,1.017-2.459s-0.361-1.803-1.017-2.459c-0.118-0.118-0.118-0.309,0-0.427s0.309-0.118,0.427,0
												c0.77,0.77,1.195,1.795,1.195,2.886c0,1.091-0.424,2.116-1.195,2.886C181.277,392.071,181.199,392.1,181.122,392.1z"/>
										</g>
									</g>
									<g>
										<g>
											<path style="fill:#FFFFFF;" d="M180.231,391.209c-0.077,0-0.155-0.03-0.214-0.089c-0.118-0.118-0.118-0.31,0-0.427
												c0.418-0.418,0.649-0.975,0.649-1.568c0-0.593-0.23-1.15-0.649-1.568c-0.118-0.118-0.118-0.309,0-0.427
												c0.118-0.118,0.309-0.118,0.427,0c0.533,0.533,0.826,1.241,0.826,1.995c0,0.754-0.293,1.463-0.826,1.995
												C180.386,391.18,180.308,391.209,180.231,391.209z"/>
										</g>
									</g>
									<g>
										<g>
											<path style="fill:#FFFFFF;" d="M179.34,390.318c-0.077,0-0.155-0.03-0.214-0.089c-0.118-0.118-0.118-0.309,0-0.427
												c0.181-0.181,0.28-0.421,0.28-0.677s-0.099-0.496-0.28-0.677c-0.118-0.118-0.118-0.309,0-0.427
												c0.118-0.118,0.309-0.118,0.427,0c0.295,0.295,0.457,0.687,0.457,1.105c0,0.418-0.162,0.81-0.457,1.105
												C179.495,390.289,179.417,390.318,179.34,390.318z"/>
										</g>
									</g>
								</g>
								<g>
									<g>
										<circle style="fill:#FFFFFF;" cx="178.449" cy="389.125" r="0.403"/>
									</g>
								</g>
							</g>
							
								<linearGradient id="SVGID_00000145774205994721031120000008100391538614432681_" gradientUnits="userSpaceOnUse" x1="138.6732" y1="389.1253" x2="147.2299" y2="389.1253">
								<stop  offset="0" style="stop-color:#FFFFFF"/>
								<stop  offset="1" style="stop-color:#E8EAF6"/>
							</linearGradient>
							<path style="opacity:0.58;fill:url(#SVGID_00000145774205994721031120000008100391538614432681_);" d="M146.405,392.098
								h-6.907c-0.456,0-0.825-0.369-0.825-0.825v-4.295c0-0.456,0.369-0.825,0.825-0.825h6.907c0.456,0,0.825,0.369,0.825,0.825
								v4.295C147.23,391.729,146.861,392.098,146.405,392.098z"/>
							<g style="opacity:0.58;">
								<rect x="138.673" y="395.078" style="fill:#FFFFFF;" width="2.41" height="3.114"/>
								<rect x="142.441" y="395.078" style="fill:#FFFFFF;" width="2.41" height="3.114"/>
								<rect x="146.209" y="395.078" style="fill:#FFFFFF;" width="2.41" height="3.114"/>
								<rect x="149.977" y="395.078" style="fill:#FFFFFF;" width="2.41" height="3.114"/>
								<rect x="153.745" y="395.078" style="fill:#FFFFFF;" width="2.41" height="3.114"/>
								<rect x="157.513" y="395.078" style="fill:#FFFFFF;" width="2.41" height="3.114"/>
								<rect x="161.281" y="395.078" style="fill:#FFFFFF;" width="2.41" height="3.114"/>
								<rect x="165.049" y="395.078" style="fill:#FFFFFF;" width="2.41" height="3.114"/>
								<rect x="168.817" y="395.078" style="fill:#FFFFFF;" width="2.41" height="3.114"/>
								<rect x="172.585" y="395.078" style="fill:#FFFFFF;" width="2.41" height="3.114"/>
								<rect x="176.353" y="395.078" style="fill:#FFFFFF;" width="2.41" height="3.114"/>
								<rect x="180.121" y="395.078" style="fill:#FFFFFF;" width="2.41" height="3.114"/>
							</g>
							<path style="fill:#FFFFFF;" d="M181.751,382.639h-8.1c-0.431,0-0.78-0.349-0.78-0.78l0,0c0-0.431,0.349-0.78,0.78-0.78h8.1
								c0.431,0,0.78,0.349,0.78,0.78l0,0C182.53,382.29,182.181,382.639,181.751,382.639z"/>
							<path style="fill:#FFFFFF;" d="M167.75,402.043h-5.547c-0.431,0-0.78-0.349-0.78-0.78l0,0c0-0.431,0.349-0.78,0.78-0.78
								h5.547c0.431,0,0.78,0.349,0.78,0.78l0,0C168.53,401.694,168.181,402.043,167.75,402.043z"/>
							<path style="fill:#FFFFFF;" d="M144.999,404.839h-5.547c-0.431,0-0.78-0.349-0.78-0.78l0,0c0-0.431,0.349-0.78,0.78-0.78
								h5.547c0.431,0,0.78,0.349,0.78,0.78l0,0C145.779,404.49,145.43,404.839,144.999,404.839z"/>
							<path style="fill:#FFFFFF;" d="M151.801,408.187h-12.348c-0.431,0-0.78-0.349-0.78-0.78l0,0c0-0.431,0.349-0.78,0.78-0.78
								h12.348c0.431,0,0.78,0.349,0.78,0.78l0,0C152.581,407.838,152.232,408.187,151.801,408.187z"/>
						</g>
					</g>
					<g>
						
							<linearGradient id="SVGID_00000073723736165686180810000012877872357441691568_" gradientUnits="userSpaceOnUse" x1="155.2928" y1="370.8013" x2="213.3897" y2="405.5918">
							<stop  offset="0" style="stop-color:#9FA8DA"/>
							<stop  offset="1" style="stop-color:#5C6BC0"/>
						</linearGradient>
						<path style="fill:url(#SVGID_00000073723736165686180810000012877872357441691568_);" d="M209.101,405.014h-51.427
							c-1.164,0-2.108-0.944-2.108-2.108v-30.561c0-1.164,0.944-2.108,2.108-2.108h51.427c1.164,0,2.108,0.944,2.108,2.108v30.561
							C211.209,404.07,210.265,405.014,209.101,405.014z"/>
						
							<linearGradient id="SVGID_00000093135562905113020280000002906702534713299903_" gradientUnits="userSpaceOnUse" x1="175.4682" y1="404.7053" x2="175.4682" y2="370.6939">
							<stop  offset="0" style="stop-color:#000000"/>
							<stop  offset="0.0889" style="stop-color:#070707"/>
							<stop  offset="0.2165" style="stop-color:#1A1A1A"/>
							<stop  offset="0.3674" style="stop-color:#393939"/>
							<stop  offset="0.5361" style="stop-color:#646464"/>
							<stop  offset="0.7198" style="stop-color:#9C9C9C"/>
							<stop  offset="0.913" style="stop-color:#DFDFDF"/>
							<stop  offset="1" style="stop-color:#FFFFFF"/>
						</linearGradient>
						<path style="opacity:0.11;fill:url(#SVGID_00000093135562905113020280000002906702534713299903_);" d="M157.674,370.237
							c-1.164,0-2.108,0.944-2.108,2.108v30.561c0,1.164,0.944,2.108,2.108,2.108h2.919l34.777-34.777H157.674z"/>
						<g>
							<g>
								<g>
									<g>
										<g>
											<path style="fill:#FFFFFF;" d="M204.337,384.799c-0.077,0-0.155-0.03-0.214-0.089c-0.118-0.118-0.118-0.309,0-0.427
												c0.656-0.656,1.017-1.529,1.017-2.459s-0.361-1.803-1.017-2.459c-0.118-0.118-0.118-0.309,0-0.427
												c0.118-0.118,0.309-0.118,0.427,0c0.77,0.77,1.195,1.795,1.195,2.886c0,1.091-0.424,2.116-1.195,2.886
												C204.491,384.769,204.414,384.799,204.337,384.799z"/>
										</g>
									</g>
									<g>
										<g>
											<path style="fill:#FFFFFF;" d="M203.446,383.908c-0.077,0-0.155-0.03-0.214-0.089c-0.118-0.118-0.118-0.31,0-0.427
												c0.418-0.418,0.649-0.975,0.649-1.568c0-0.593-0.23-1.15-0.649-1.568c-0.118-0.118-0.118-0.309,0-0.427
												c0.118-0.118,0.309-0.118,0.427,0c0.533,0.533,0.826,1.241,0.826,1.995c0,0.754-0.293,1.463-0.826,1.995
												C203.6,383.878,203.523,383.908,203.446,383.908z"/>
										</g>
									</g>
									<g>
										<g>
											<path style="fill:#FFFFFF;" d="M202.555,383.017c-0.077,0-0.155-0.03-0.214-0.089c-0.118-0.118-0.118-0.309,0-0.427
												c0.181-0.181,0.28-0.421,0.28-0.677s-0.099-0.496-0.28-0.677c-0.118-0.118-0.118-0.309,0-0.427
												c0.118-0.118,0.309-0.118,0.427,0c0.295,0.295,0.457,0.687,0.457,1.105c0,0.418-0.162,0.81-0.457,1.105
												C202.71,382.987,202.632,383.017,202.555,383.017z"/>
										</g>
									</g>
								</g>
								<g>
									<g>
										<circle style="fill:#FFFFFF;" cx="201.664" cy="381.824" r="0.403"/>
									</g>
								</g>
							</g>
							<g>
								<g>
									<g>
										<g>
											<path style="fill:#FFFFFF;" d="M203.479,384.648c-0.077,0-0.155-0.03-0.214-0.089c-0.118-0.118-0.118-0.309,0-0.427
												c0.656-0.656,1.017-1.53,1.017-2.459s-0.361-1.803-1.017-2.459c-0.118-0.118-0.118-0.309,0-0.427
												c0.118-0.118,0.309-0.118,0.427,0c0.77,0.77,1.195,1.795,1.195,2.886c0,1.091-0.424,2.116-1.195,2.886
												C203.634,384.618,203.557,384.648,203.479,384.648z"/>
										</g>
									</g>
									<g>
										<g>
											<path style="fill:#FFFFFF;" d="M202.588,383.757c-0.077,0-0.155-0.03-0.214-0.089c-0.118-0.118-0.118-0.31,0-0.427
												c0.418-0.418,0.649-0.975,0.649-1.568c0-0.593-0.23-1.15-0.649-1.568c-0.118-0.118-0.118-0.309,0-0.427
												c0.118-0.118,0.309-0.118,0.427,0c0.533,0.533,0.826,1.241,0.826,1.995c0,0.754-0.293,1.463-0.826,1.995
												C202.743,383.727,202.666,383.757,202.588,383.757z"/>
										</g>
									</g>
									<g>
										<g>
											<path style="fill:#FFFFFF;" d="M201.697,382.866c-0.077,0-0.155-0.03-0.214-0.089c-0.118-0.118-0.118-0.309,0-0.427
												c0.181-0.181,0.28-0.421,0.28-0.677s-0.099-0.496-0.28-0.677c-0.118-0.118-0.118-0.309,0-0.427s0.309-0.118,0.427,0
												c0.295,0.295,0.457,0.687,0.457,1.105c0,0.418-0.162,0.81-0.457,1.105C201.852,382.836,201.775,382.866,201.697,382.866z
												"/>
										</g>
									</g>
								</g>
								<g>
									<g>
										<circle style="fill:#FFFFFF;" cx="200.807" cy="381.673" r="0.403"/>
									</g>
								</g>
							</g>
							
								<linearGradient id="SVGID_00000124142042510620729260000014663682134050198420_" gradientUnits="userSpaceOnUse" x1="161.0305" y1="381.6726" x2="169.5872" y2="381.6726">
								<stop  offset="0" style="stop-color:#FFFFFF"/>
								<stop  offset="1" style="stop-color:#E8EAF6"/>
							</linearGradient>
							<path style="opacity:0.58;fill:url(#SVGID_00000124142042510620729260000014663682134050198420_);" d="M168.762,384.645
								h-6.907c-0.456,0-0.825-0.369-0.825-0.825v-4.295c0-0.456,0.369-0.825,0.825-0.825h6.907c0.456,0,0.825,0.369,0.825,0.825
								v4.295C169.587,384.276,169.218,384.645,168.762,384.645z"/>
							<g style="opacity:0.58;">
								<rect x="161.03" y="387.626" style="fill:#FFFFFF;" width="2.41" height="3.114"/>
								<rect x="164.798" y="387.626" style="fill:#FFFFFF;" width="2.41" height="3.114"/>
								<rect x="168.566" y="387.626" style="fill:#FFFFFF;" width="2.41" height="3.114"/>
								<rect x="172.334" y="387.626" style="fill:#FFFFFF;" width="2.41" height="3.114"/>
								<rect x="176.102" y="387.626" style="fill:#FFFFFF;" width="2.41" height="3.114"/>
								<rect x="179.87" y="387.626" style="fill:#FFFFFF;" width="2.41" height="3.114"/>
								<rect x="183.638" y="387.626" style="fill:#FFFFFF;" width="2.41" height="3.114"/>
								<rect x="187.406" y="387.626" style="fill:#FFFFFF;" width="2.41" height="3.114"/>
								<rect x="191.174" y="387.626" style="fill:#FFFFFF;" width="2.41" height="3.114"/>
								<rect x="194.942" y="387.626" style="fill:#FFFFFF;" width="2.41" height="3.114"/>
								<rect x="198.71" y="387.626" style="fill:#FFFFFF;" width="2.41" height="3.114"/>
								<rect x="202.478" y="387.626" style="fill:#FFFFFF;" width="2.41" height="3.114"/>
							</g>
							<path style="fill:#FFFFFF;" d="M204.108,375.186h-8.1c-0.431,0-0.78-0.349-0.78-0.78l0,0c0-0.431,0.349-0.78,0.78-0.78h8.1
								c0.431,0,0.78,0.349,0.78,0.78l0,0C204.887,374.837,204.538,375.186,204.108,375.186z"/>
							<path style="fill:#FFFFFF;" d="M190.108,394.59h-5.547c-0.431,0-0.78-0.349-0.78-0.78l0,0c0-0.431,0.349-0.78,0.78-0.78
								h5.547c0.431,0,0.78,0.349,0.78,0.78l0,0C190.887,394.241,190.538,394.59,190.108,394.59z"/>
							<path style="fill:#FFFFFF;" d="M167.357,397.386h-5.547c-0.431,0-0.78-0.349-0.78-0.78l0,0c0-0.431,0.349-0.78,0.78-0.78
								h5.547c0.431,0,0.78,0.349,0.78,0.78l0,0C168.136,397.037,167.787,397.386,167.357,397.386z"/>
							<path style="fill:#FFFFFF;" d="M174.158,400.734H161.81c-0.431,0-0.78-0.349-0.78-0.78l0,0c0-0.431,0.349-0.78,0.78-0.78
								h12.348c0.431,0,0.78,0.349,0.78,0.78l0,0C174.938,400.385,174.589,400.734,174.158,400.734z"/>
						</g>
					</g>
				</g>
			</g>
			<g>
				<g>
					<g>
						<path style="fill:#7D8FD8;" d="M102.992,226.11l-39.277,22.677c-5.171,2.986-8.357,8.504-8.357,14.475v45.353
							c0,5.971,3.186,11.489,8.357,14.475l39.277,22.677c5.171,2.986,11.543,2.986,16.714,0l39.277-22.677
							c5.171-2.986,8.357-8.504,8.357-14.475v-45.353c0-5.971-3.186-11.489-8.357-14.475l-39.277-22.677
							C114.535,223.125,108.163,223.125,102.992,226.11z"/>
					</g>
					<g>
						
							<linearGradient id="SVGID_00000026150972588607246900000017953699433600125825_" gradientUnits="userSpaceOnUse" x1="72.0733" y1="246.6632" x2="150.6243" y2="325.2142">
							<stop  offset="0" style="stop-color:#CCD1EC"/>
							<stop  offset="1" style="stop-color:#FFFFFF"/>
						</linearGradient>
						<path style="fill:url(#SVGID_00000026150972588607246900000017953699433600125825_);" d="M106.086,230.217L65.724,253.52
							c-3.257,1.88-5.263,5.355-5.263,9.116v46.605c0,3.761,2.006,7.236,5.263,9.116l40.361,23.303c3.257,1.88,7.27,1.88,10.526,0
							l40.361-23.303c3.257-1.88,5.263-5.355,5.263-9.116v-46.605c0-3.761-2.006-7.236-5.263-9.116l-40.361-23.303
							C113.355,228.337,109.342,228.337,106.086,230.217z"/>
					</g>
				</g>
				<g>
					
						<linearGradient id="SVGID_00000037685202524792690130000008460207044812663993_" gradientUnits="userSpaceOnUse" x1="95.4195" y1="285.9387" x2="127.278" y2="285.9387">
						<stop  offset="0" style="stop-color:#FFFFFF"/>
						<stop  offset="1" style="stop-color:#CCD1EC"/>
					</linearGradient>
					<path style="fill:url(#SVGID_00000037685202524792690130000008460207044812663993_);" d="M115.154,289.725
						c-1.131-0.934-1.789-2.319-1.789-3.786l0,0h0l0,0c0-1.467,0.658-2.852,1.789-3.786c3.757-3.104,12.124-11.35,12.124-23.233
						h-15.929H95.42c0,11.883,8.366,20.129,12.124,23.233c1.131,0.934,1.789,2.319,1.789,3.786l0,0h0l0,0
						c0,1.467-0.658,2.852-1.789,3.786c-3.757,3.104-12.124,11.35-12.124,23.233h15.929h15.929
						C127.278,301.074,118.912,292.829,115.154,289.725z"/>
					<g>
						
							<linearGradient id="SVGID_00000098180674225329968510000011628610206682783917_" gradientUnits="userSpaceOnUse" x1="95.4195" y1="304.6647" x2="127.278" y2="304.6647">
							<stop  offset="0" style="stop-color:#FFD54F"/>
							<stop  offset="1" style="stop-color:#FF9100"/>
						</linearGradient>
						<path style="fill:url(#SVGID_00000098180674225329968510000011628610206682783917_);" d="M95.42,312.958h15.929h15.929
							c0-6.825-2.76-12.446-5.821-16.586l-23.096,4.646C96.642,304.411,95.42,308.418,95.42,312.958z"/>
						
							<linearGradient id="SVGID_00000086673285662369993040000005292573908320111544_" gradientUnits="userSpaceOnUse" x1="95.4195" y1="266.9364" x2="127.278" y2="266.9364">
							<stop  offset="0" style="stop-color:#FFFFFF"/>
							<stop  offset="1" style="stop-color:#CCD1EC"/>
						</linearGradient>
						<path style="fill:url(#SVGID_00000086673285662369993040000005292573908320111544_);" d="M127.278,258.919h-15.929H95.42
							c0,2.835,0.48,5.46,1.256,7.86l25.182,8.174C124.754,270.871,127.278,265.445,127.278,258.919z"/>
					</g>
					<g>
						
							<linearGradient id="SVGID_00000171692749622132126120000004667511213164619454_" gradientUnits="userSpaceOnUse" x1="96.6752" y1="276.359" x2="121.8571" y2="276.359">
							<stop  offset="0" style="stop-color:#FFD54F"/>
							<stop  offset="1" style="stop-color:#FF9100"/>
						</linearGradient>
						<path style="fill:url(#SVGID_00000171692749622132126120000004667511213164619454_);" d="M113.365,285.939L113.365,285.939
							c0-1.467,0.658-2.852,1.789-3.786c1.694-1.399,4.324-3.847,6.703-7.199l-25.182-8.174c2.477,7.662,8.007,13.01,10.868,15.373
							c1.131,0.934,1.789,2.319,1.789,3.786l0,0H113.365L113.365,285.939z"/>
					</g>
					
						<linearGradient id="SVGID_00000012450809659199166520000017810403755063002248_" gradientUnits="userSpaceOnUse" x1="93.8488" y1="258.9195" x2="128.8488" y2="258.9195">
						<stop  offset="0" style="stop-color:#9FA8DA"/>
						<stop  offset="1" style="stop-color:#5C6BC0"/>
					</linearGradient>
					
						<rect x="93.849" y="257.306" style="fill:url(#SVGID_00000012450809659199166520000017810403755063002248_);" width="35" height="3.226"/>
					
						<linearGradient id="SVGID_00000115506662262450032690000005471958522756775578_" gradientUnits="userSpaceOnUse" x1="93.8488" y1="312.9579" x2="128.8488" y2="312.9579">
						<stop  offset="0" style="stop-color:#9FA8DA"/>
						<stop  offset="1" style="stop-color:#5C6BC0"/>
					</linearGradient>
					
						<rect x="93.849" y="311.345" style="fill:url(#SVGID_00000115506662262450032690000005471958522756775578_);" width="35" height="3.226"/>
				</g>
			</g>
			<g>
				<g>
					<g>
						<path style="fill:#7D8FD8;" d="M630.294,226.11l-39.277,22.677c-5.171,2.986-8.357,8.504-8.357,14.475v45.353
							c0,5.971,3.186,11.489,8.357,14.475l39.277,22.677c5.171,2.986,11.543,2.986,16.714,0l39.277-22.677
							c5.171-2.986,8.357-8.504,8.357-14.475v-45.353c0-5.971-3.186-11.489-8.357-14.475l-39.277-22.677
							C641.837,223.125,635.466,223.125,630.294,226.11z"/>
					</g>
					<g>
						
							<linearGradient id="SVGID_00000169518579398257596360000009099497254143493289_" gradientUnits="userSpaceOnUse" x1="599.3757" y1="246.6632" x2="677.9268" y2="325.2142">
							<stop  offset="0" style="stop-color:#CCD1EC"/>
							<stop  offset="1" style="stop-color:#FFFFFF"/>
						</linearGradient>
						<path style="fill:url(#SVGID_00000169518579398257596360000009099497254143493289_);" d="M633.388,230.217l-40.361,23.303
							c-3.257,1.88-5.263,5.355-5.263,9.116v46.605c0,3.761,2.006,7.236,5.263,9.116l40.361,23.303c3.257,1.88,7.27,1.88,10.526,0
							l40.361-23.303c3.257-1.88,5.263-5.355,5.263-9.116v-46.605c0-3.761-2.006-7.236-5.263-9.116l-40.361-23.303
							C640.658,228.337,636.645,228.337,633.388,230.217z"/>
					</g>
				</g>
				<g>
					
						<linearGradient id="SVGID_00000105406408720655791830000012311057704838459779_" gradientUnits="userSpaceOnUse" x1="629.2652" y1="258.1207" x2="648.0374" y2="276.8929">
						<stop  offset="0" style="stop-color:#C8D24C"/>
						<stop  offset="1" style="stop-color:#9E9D24"/>
					</linearGradient>
					
						<path style="fill:none;stroke:url(#SVGID_00000105406408720655791830000012311057704838459779_);stroke-width:3.3383;stroke-miterlimit:10;" d="
						M627.937,273.895v-7.648c0-5.917,4.797-10.714,10.714-10.714h0c5.917,0,10.714,4.797,10.714,10.714v7.648"/>
					
						<linearGradient id="SVGID_00000076569375362587106060000015331974731047802025_" gradientUnits="userSpaceOnUse" x1="618.6089" y1="273.5318" x2="658.6936" y2="313.6165">
						<stop  offset="0" style="stop-color:#C8D24C"/>
						<stop  offset="1" style="stop-color:#9E9D24"/>
					</linearGradient>
					<path style="fill:url(#SVGID_00000076569375362587106060000015331974731047802025_);" d="M618.651,273.489v38.271
						c0,2.532,2.052,4.584,4.584,4.584h30.832c2.532,0,4.584-2.052,4.584-4.584v-38.271H618.651z M640.328,295.44v7.784h-3.354
						v-7.784c-1.697-0.67-2.901-2.316-2.901-4.251c0-2.529,2.05-4.578,4.578-4.578c2.529,0,4.578,2.05,4.578,4.578
						C643.23,293.124,642.025,294.77,640.328,295.44z"/>
					<g>
						
							<linearGradient id="SVGID_00000073679401138001630240000010326030656600619159_" gradientUnits="userSpaceOnUse" x1="653.6821" y1="317.2626" x2="653.6821" y2="272.5804">
							<stop  offset="0" style="stop-color:#C8D24C"/>
							<stop  offset="1" style="stop-color:#9E9D24"/>
						</linearGradient>
						<path style="opacity:0.27;fill:url(#SVGID_00000073679401138001630240000010326030656600619159_);" d="M653.297,273.489
							v38.271c0,2.532-2.052,4.584-4.584,4.584h5.354c2.532,0,4.584-2.052,4.584-4.584v-38.271H653.297z"/>
					</g>
				</g>
			</g>
			<g>
				<g>
					<g>
						<path style="fill:#7D8FD8;" d="M569.434,121.166l-39.277,22.677c-5.171,2.986-8.357,8.504-8.357,14.475v45.353
							c0,5.971,3.186,11.489,8.357,14.475l39.277,22.677c5.171,2.986,11.543,2.986,16.714,0l39.277-22.677
							c5.171-2.986,8.357-8.504,8.357-14.475v-45.353c0-5.971-3.186-11.489-8.357-14.475l-39.277-22.677
							C580.977,118.18,574.605,118.18,569.434,121.166z"/>
					</g>
					<g>
						
							<linearGradient id="SVGID_00000093856616581718498780000007224642083903437194_" gradientUnits="userSpaceOnUse" x1="538.5154" y1="141.7184" x2="617.0665" y2="220.2695">
							<stop  offset="0" style="stop-color:#CCD1EC"/>
							<stop  offset="1" style="stop-color:#FFFFFF"/>
						</linearGradient>
						<path style="fill:url(#SVGID_00000093856616581718498780000007224642083903437194_);" d="M572.528,125.272l-40.361,23.303
							c-3.257,1.88-5.263,5.355-5.263,9.116v46.605c0,3.761,2.006,7.236,5.263,9.116l40.361,23.303c3.257,1.88,7.27,1.88,10.526,0
							l40.361-23.303c3.257-1.88,5.263-5.355,5.263-9.116v-46.605c0-3.761-2.006-7.236-5.263-9.116l-40.361-23.303
							C579.797,123.392,575.785,123.392,572.528,125.272z"/>
					</g>
				</g>
				<g>
					<g>
						
							<linearGradient id="SVGID_00000180327913297045320870000007435897829130116772_" gradientUnits="userSpaceOnUse" x1="548.8981" y1="166.1116" x2="594.2158" y2="211.4293">
							<stop  offset="0" style="stop-color:#9FA8DA"/>
							<stop  offset="1" style="stop-color:#5C6BC0"/>
						</linearGradient>
						<path style="fill:url(#SVGID_00000180327913297045320870000007435897829130116772_);" d="M585.817,218.529h-28.52
							c-1.732,0-3.137-1.404-3.137-3.137v-53.243c0-1.732,1.404-3.137,3.137-3.137h28.52c1.732,0,3.137,1.404,3.137,3.137v53.243
							C588.954,217.124,587.549,218.529,585.817,218.529z"/>
						
							<linearGradient id="SVGID_00000140693750667027650420000005602469523645275281_" gradientUnits="userSpaceOnUse" x1="551.8179" y1="169.0315" x2="591.2959" y2="208.5094">
							<stop  offset="0" style="stop-color:#5C6BC0"/>
							<stop  offset="1" style="stop-color:#3949AB"/>
						</linearGradient>
						
							<rect x="555.963" y="164.886" style="fill:url(#SVGID_00000140693750667027650420000005602469523645275281_);" width="31.187" height="47.769"/>
						
							<linearGradient id="SVGID_00000093163159332745650440000009190928127285639059_" gradientUnits="userSpaceOnUse" x1="563.1771" y1="203.1088" x2="579.9368" y2="219.8685">
							<stop  offset="0" style="stop-color:#3949AB"/>
							<stop  offset="1" style="stop-color:#5C6BC0"/>
						</linearGradient>
						
							<rect x="555.963" y="210.323" style="opacity:0.22;fill:url(#SVGID_00000093163159332745650440000009190928127285639059_);" width="31.187" height="2.332"/>
						<g style="opacity:0.13;">
							<path style="fill:#FFFFFF;" d="M588.954,162.149c0-1.732-1.404-3.137-3.137-3.137h-28.52c-1.732,0-3.137,1.404-3.137,3.137
								v38.026l34.794-34.794V162.149z"/>
						</g>
					</g>
					<g>
						<g>
							
								<linearGradient id="SVGID_00000177473503491753091090000014910957453597996987_" gradientUnits="userSpaceOnUse" x1="588.4005" y1="195.8314" x2="588.4005" y2="143.4592">
								<stop  offset="0" style="stop-color:#E8EAF6"/>
								<stop  offset="1" style="stop-color:#FFFFFF"/>
							</linearGradient>
							<polygon style="fill:url(#SVGID_00000177473503491753091090000014910957453597996987_);" points="599.792,143.459 
								598.977,144.622 598.164,143.459 597.349,144.622 596.535,143.459 595.721,144.622 594.907,143.459 594.094,144.622 
								593.28,143.459 592.466,144.622 591.652,143.459 590.838,144.622 590.024,143.459 589.21,144.622 588.396,143.459 
								587.582,144.622 586.769,143.459 585.955,144.622 585.141,143.459 584.328,144.622 583.514,143.459 582.7,144.622 
								581.887,143.459 581.074,144.622 580.26,143.459 579.447,144.622 578.634,143.459 577.82,144.622 577.007,143.459 
								576.193,144.622 575.379,143.459 575.379,195.831 601.422,195.831 601.422,143.459 600.607,144.622 							"/>
						</g>
						<rect x="578.053" y="146.864" style="opacity:0.25;fill:#7986CB;" width="13.138" height="1.511"/>
						<rect x="578.053" y="156.049" style="opacity:0.25;fill:#7986CB;" width="17.323" height="1.511"/>
						<rect x="578.053" y="159.886" style="opacity:0.25;fill:#7986CB;" width="14.416" height="1.511"/>
						<rect x="578.053" y="163.722" style="opacity:0.25;fill:#7986CB;" width="8.022" height="1.511"/>
						<rect x="578.053" y="167.559" style="opacity:0.25;fill:#7986CB;" width="16.044" height="1.511"/>
						<rect x="578.053" y="171.395" style="opacity:0.25;fill:#7986CB;" width="13.138" height="1.511"/>
						<rect x="578.053" y="175.232" style="opacity:0.25;fill:#7986CB;" width="17.323" height="1.511"/>
						<rect x="578.053" y="179.069" style="opacity:0.25;fill:#7986CB;" width="10.347" height="1.511"/>
						<rect x="578.053" y="182.905" style="opacity:0.25;fill:#7986CB;" width="17.323" height="1.511"/>
						<rect x="577.239" y="186.96" style="opacity:0.25;fill:#7986CB;" width="22.322" height="0.378"/>
						<rect x="577.239" y="152.143" style="opacity:0.25;fill:#7986CB;" width="22.322" height="0.378"/>
						<rect x="578.053" y="190.114" style="opacity:0.25;fill:#7986CB;" width="17.323" height="1.511"/>
						<rect x="589.563" y="192.439" style="opacity:0.25;fill:#7986CB;" width="5.813" height="1.511"/>
					</g>
				</g>
			</g>
			<g>
				<g>
					<g>
						<path style="fill:#7D8FD8;" d="M163.852,121.166l-39.277,22.677c-5.171,2.986-8.357,8.504-8.357,14.475v45.353
							c0,5.971,3.186,11.489,8.357,14.475l39.277,22.677c5.171,2.986,11.543,2.986,16.714,0l39.277-22.677
							c5.171-2.986,8.357-8.504,8.357-14.475v-45.353c0-5.971-3.186-11.489-8.357-14.475l-39.277-22.677
							C175.395,118.18,169.023,118.18,163.852,121.166z"/>
					</g>
					<g>
						
							<linearGradient id="SVGID_00000073712721149784534860000001400460975866114731_" gradientUnits="userSpaceOnUse" x1="132.9336" y1="141.7184" x2="211.4846" y2="220.2695">
							<stop  offset="0" style="stop-color:#CCD1EC"/>
							<stop  offset="1" style="stop-color:#FFFFFF"/>
						</linearGradient>
						<path style="fill:url(#SVGID_00000073712721149784534860000001400460975866114731_);" d="M166.946,125.272l-40.361,23.303
							c-3.257,1.88-5.263,5.355-5.263,9.116v46.605c0,3.761,2.006,7.236,5.263,9.116l40.361,23.303c3.257,1.88,7.27,1.88,10.526,0
							l40.361-23.303c3.257-1.88,5.263-5.355,5.263-9.116v-46.605c0-3.761-2.006-7.236-5.263-9.116l-40.361-23.303
							C174.215,123.392,170.203,123.392,166.946,125.272z"/>
					</g>
				</g>
				<g>
					<g>
						
							<linearGradient id="SVGID_00000020393322711784920450000017241191512578596280_" gradientUnits="userSpaceOnUse" x1="134.9747" y1="173.8374" x2="308.7959" y2="173.8374">
							<stop  offset="0" style="stop-color:#3949AB"/>
							<stop  offset="1" style="stop-color:#5C6BC0"/>
						</linearGradient>
						<path style="fill:url(#SVGID_00000020393322711784920450000017241191512578596280_);" d="M191.847,177.053h-55.419
							c-1.776,0-3.216-1.44-3.216-3.216l0,0c0-1.776,1.44-3.216,3.216-3.216h52.465c1.631,0,2.954,1.322,2.954,2.954V177.053z"/>
						
							<linearGradient id="SVGID_00000160183518006228200210000009128415288438408882_" gradientUnits="userSpaceOnUse" x1="133.2124" y1="175.3253" x2="191.8472" y2="175.3253">
							<stop  offset="0" style="stop-color:#3949AB"/>
							<stop  offset="1" style="stop-color:#5C6BC0"/>
						</linearGradient>
						<path style="opacity:0.42;fill:url(#SVGID_00000160183518006228200210000009128415288438408882_);" d="M136.265,175.708
							c-1.393,0-2.578-0.879-3.04-2.111c-0.006,0.08-0.012,0.159-0.012,0.24v0c0,1.776,1.44,3.216,3.216,3.216h55.419v-1.345
							H136.265z"/>
					</g>
					<g>
						<g>
							
								<linearGradient id="SVGID_00000000941417784857350020000007399609703153133481_" gradientUnits="userSpaceOnUse" x1="139.8482" y1="178.0378" x2="201.5668" y2="178.0378">
								<stop  offset="0" style="stop-color:#C8D24C"/>
								<stop  offset="1" style="stop-color:#9E9D24"/>
							</linearGradient>
							<path style="fill:url(#SVGID_00000000941417784857350020000007399609703153133481_);" d="M201.567,191.675h-61.719V164.4
								h61.719V191.675z"/>
							
								<linearGradient id="SVGID_00000100378655183154697920000012629173186186732459_" gradientUnits="userSpaceOnUse" x1="141.676" y1="178.0378" x2="199.7389" y2="178.0378">
								<stop  offset="0" style="stop-color:#C8D24C"/>
								<stop  offset="1" style="stop-color:#9E9D24"/>
							</linearGradient>
							<path style="opacity:0.54;fill:url(#SVGID_00000100378655183154697920000012629173186186732459_);" d="M195.512,166.228
								h-49.609c0,2.334-1.892,4.227-4.227,4.227v15.165c2.334,0,4.227,1.892,4.227,4.227h49.609c0-2.334,1.892-4.227,4.227-4.227
								v-15.165C197.404,170.455,195.512,168.563,195.512,166.228z M173.714,187.193c-5.056,1.66-10.501-1.093-12.162-6.149
								c-1.66-5.056,1.093-10.501,6.149-12.162c5.056-1.66,10.501,1.093,12.162,6.149
								C181.523,180.088,178.77,185.533,173.714,187.193z"/>
							<g style="opacity:0.54;">
								
									<linearGradient id="SVGID_00000123425986255507856610000008431356704439406755_" gradientUnits="userSpaceOnUse" x1="199.6924" y1="178.0378" x2="141.9795" y2="178.0378">
									<stop  offset="0" style="stop-color:#C8D24C"/>
									<stop  offset="1" style="stop-color:#9E9D24"/>
								</linearGradient>
								<path style="fill:url(#SVGID_00000123425986255507856610000008431356704439406755_);" d="M170.056,184.632v-1.097
									c-0.922-0.108-1.582-0.432-1.98-0.971c-0.397-0.54-0.596-1.325-0.596-2.355v-0.405h2.561v0.309
									c0,0.756,0.238,1.133,0.714,1.133c0.206,0,0.357-0.064,0.453-0.191c0.096-0.128,0.144-0.277,0.144-0.449
									c0-0.304-0.155-0.613-0.464-0.927l-2.112-2.127c-0.775-0.775-1.163-1.617-1.163-2.524c0-0.491,0.112-0.924,0.335-1.299
									c0.223-0.375,0.52-0.682,0.89-0.92c0.37-0.238,0.776-0.396,1.218-0.475v-0.89h1.273v0.868
									c0.839,0.108,1.477,0.454,1.913,1.038c0.437,0.584,0.655,1.357,0.655,2.318h-2.627v-0.478c0-0.211-0.056-0.373-0.169-0.486
									c-0.113-0.113-0.263-0.169-0.449-0.169c-0.206,0-0.361,0.051-0.464,0.155c-0.103,0.103-0.155,0.24-0.155,0.412
									c0,0.245,0.243,0.608,0.729,1.089l2.061,2.031c0.304,0.299,0.565,0.662,0.784,1.089c0.218,0.427,0.327,0.91,0.327,1.45
									c0,0.81-0.248,1.456-0.743,1.939c-0.496,0.483-1.116,0.767-1.862,0.85v1.082H170.056z"/>
							</g>
						</g>
						<g>
							
								<linearGradient id="SVGID_00000183936367749115863320000001284031503614796201_" gradientUnits="userSpaceOnUse" x1="149.4873" y1="172.0554" x2="211.2058" y2="172.0554">
								<stop  offset="0" style="stop-color:#C8D24C"/>
								<stop  offset="1" style="stop-color:#9E9D24"/>
							</linearGradient>
							<path style="fill:url(#SVGID_00000183936367749115863320000001284031503614796201_);" d="M211.206,185.693h-61.719v-27.275
								h61.719V185.693z"/>
							
								<linearGradient id="SVGID_00000118372405960114396510000002900291396934262701_" gradientUnits="userSpaceOnUse" x1="151.3151" y1="172.0554" x2="209.378" y2="172.0554">
								<stop  offset="0" style="stop-color:#C8D24C"/>
								<stop  offset="1" style="stop-color:#9E9D24"/>
							</linearGradient>
							<path style="opacity:0.54;fill:url(#SVGID_00000118372405960114396510000002900291396934262701_);" d="M205.151,160.246
								h-49.609c0,2.334-1.892,4.227-4.227,4.227v15.165c2.334,0,4.227,1.892,4.227,4.227h49.609c0-2.334,1.892-4.227,4.227-4.227
								v-15.165C207.044,164.473,205.151,162.58,205.151,160.246z M183.353,181.211c-5.056,1.66-10.501-1.093-12.162-6.149
								c-1.66-5.056,1.093-10.501,6.149-12.162c5.056-1.66,10.501,1.093,12.162,6.149
								C191.162,174.106,188.409,179.551,183.353,181.211z"/>
							<g style="opacity:0.54;">
								
									<linearGradient id="SVGID_00000101807399423961672420000016622727133035023773_" gradientUnits="userSpaceOnUse" x1="209.3314" y1="172.0554" x2="151.6185" y2="172.0554">
									<stop  offset="0" style="stop-color:#C8D24C"/>
									<stop  offset="1" style="stop-color:#9E9D24"/>
								</linearGradient>
								<path style="fill:url(#SVGID_00000101807399423961672420000016622727133035023773_);" d="M179.695,178.649v-1.097
									c-0.922-0.108-1.582-0.432-1.98-0.971c-0.397-0.54-0.596-1.325-0.596-2.355v-0.405h2.561v0.309
									c0,0.756,0.238,1.133,0.714,1.133c0.206,0,0.357-0.064,0.453-0.191c0.096-0.128,0.144-0.277,0.144-0.449
									c0-0.304-0.155-0.613-0.464-0.927l-2.112-2.127c-0.775-0.775-1.163-1.617-1.163-2.524c0-0.491,0.112-0.924,0.335-1.299
									c0.223-0.375,0.52-0.682,0.89-0.92c0.37-0.238,0.776-0.396,1.218-0.475v-0.89h1.273v0.868
									c0.839,0.108,1.477,0.454,1.913,1.038c0.437,0.584,0.655,1.357,0.655,2.318h-2.627v-0.478c0-0.211-0.056-0.373-0.169-0.486
									c-0.113-0.113-0.263-0.169-0.449-0.169c-0.206,0-0.361,0.051-0.464,0.155c-0.103,0.103-0.155,0.24-0.155,0.412
									c0,0.245,0.243,0.608,0.729,1.089l2.061,2.031c0.304,0.299,0.565,0.662,0.784,1.089c0.218,0.427,0.327,0.91,0.327,1.45
									c0,0.81-0.248,1.456-0.743,1.939c-0.496,0.483-1.116,0.767-1.862,0.85v1.082H179.695z"/>
							</g>
						</g>
					</g>
					
						<linearGradient id="SVGID_00000069399197494963243780000013276921040025068167_" gradientUnits="userSpaceOnUse" x1="133.2124" y1="188.7037" x2="194.7351" y2="188.7037">
						<stop  offset="0" style="stop-color:#5C6BC0"/>
						<stop  offset="1" style="stop-color:#3949AB"/>
					</linearGradient>
					<path style="fill:url(#SVGID_00000069399197494963243780000013276921040025068167_);" d="M191.782,177.053h-55.353
						c-1.776,0-3.216-1.44-3.216-3.216v26.517c0,1.776,1.44,3.216,3.216,3.216h55.353c1.631,0,2.954-1.322,2.954-2.954v-20.609
						C194.735,178.376,193.413,177.053,191.782,177.053z"/>
					<g style="opacity:0.34;">
						<path style="fill:#5A81E2;" d="M191.782,177.053l-0.379-0.012l-26.529,26.529h26.908c1.631,0,2.954-1.322,2.954-2.954v-20.609
							C194.735,178.376,193.413,177.053,191.782,177.053z"/>
					</g>
					
						<linearGradient id="SVGID_00000135678476750464209820000002068514253095523715_" gradientUnits="userSpaceOnUse" x1="184.2992" y1="190.3807" x2="195.9166" y2="190.3807">
						<stop  offset="0" style="stop-color:#FFFFFF"/>
						<stop  offset="1" style="stop-color:#CCD1EC"/>
					</linearGradient>
					<path style="fill:url(#SVGID_00000135678476750464209820000002068514253095523715_);" d="M188.3,194.382h6.257
						c0.751,0,1.36-0.609,1.36-1.36v-5.282c0-0.751-0.609-1.36-1.36-1.36H188.3c-2.21,0-4.001,1.791-4.001,4.001v0
						C184.299,192.59,186.09,194.382,188.3,194.382z"/>
					
						<linearGradient id="SVGID_00000171699410433569383820000007678324963944852908_" gradientUnits="userSpaceOnUse" x1="186.8688" y1="188.7295" x2="190.1712" y2="192.0319">
						<stop  offset="0" style="stop-color:#5C6BC0"/>
						<stop  offset="1" style="stop-color:#3949AB"/>
					</linearGradient>
					<circle style="fill:url(#SVGID_00000171699410433569383820000007678324963944852908_);" cx="188.52" cy="190.381" r="2.335"/>
				</g>
			</g>
		</g>
	</g>
</g>
<g id="TEXTS">
	<g>
		<g>
			
				<text transform="matrix(1 0 0 1 241.7202 117.249)" style="fill:#7D8FD8; font-family:'Montserrat-Regular'; font-size:16px; letter-spacing:3;">Business Infographic</text>
		</g>
		<text transform="matrix(1 0 0 1 206.2734 91.1719)" style="fill:#3949AB; font-family:'Anton-Regular'; font-size:53.4869px;">banking service</text>
	</g>
</g>
</svg>
